<svg preserveAspectRatio="none" width="100%" height="100%" overflow="visible" style="display: block;" viewBox="0 0 24 24" fill="none" xmlns="http://www.w3.org/2000/svg">
<g id="menu_24dp_E8EAED_FILL0_wght200_GRAD0_opsz24 1">
<path id="Vector" d="M4.5 17.2693C4.35833 17.2693 4.23958 17.2213 4.14375 17.1253C4.04792 17.0293 4 16.9103 4 16.7685C4 16.6267 4.04792 16.508 4.14375 16.4125C4.23958 16.317 4.35833 16.2693 4.5 16.2693H19.5C19.6417 16.2693 19.7604 16.3173 19.8563 16.4133C19.9521 16.5091 20 16.628 20 16.77C20 16.9118 19.9521 17.0305 19.8563 17.126C19.7604 17.2215 19.6417 17.2693 19.5 17.2693H4.5ZM4.5 12.5C4.35833 12.5 4.23958 12.452 4.14375 12.356C4.04792 12.26 4 12.1411 4 11.9993C4 11.8574 4.04792 11.7388 4.14375 11.6433C4.23958 11.5478 4.35833 11.5 4.5 11.5H19.5C19.6417 11.5 19.7604 11.548 19.8563 11.644C19.9521 11.74 20 11.8589 20 12.0008C20 12.1426 19.9521 12.2613 19.8563 12.3568C19.7604 12.4523 19.6417 12.5 19.5 12.5H4.5ZM4.5 7.73075C4.35833 7.73075 4.23958 7.68275 4.14375 7.58675C4.04792 7.49092 4 7.372 4 7.23C4 7.08817 4.04792 6.9695 4.14375 6.874C4.23958 6.7785 4.35833 6.73075 4.5 6.73075H19.5C19.6417 6.73075 19.7604 6.77875 19.8563 6.87475C19.9521 6.97075 20 7.08967 20 7.2315C20 7.37333 19.9521 7.492 19.8563 7.5875C19.7604 7.683 19.6417 7.73075 19.5 7.73075H4.5Z" fill="var(--fill-0, #333333)"/>
</g>
</svg>
