<svg preserveAspectRatio="none" width="100%" height="100%" overflow="visible" style="display: block;" viewBox="0 0 175 3" fill="none" xmlns="http://www.w3.org/2000/svg">
<path id="Vector 95" d="M0.00864143 0.185519C1.16789 0.0258214 2.32561 -0.0424286 3.51807 0.0271282C3.78978 0.0428575 3.76418 0.166287 3.87589 0.186251C4.08119 0.223122 4.42573 0.0899352 4.47403 0.0899352C4.77379 0.088238 4.65665 0.304277 4.697 0.312598C5.14679 0.400308 5.01732 0.154232 5.44735 0.130586C6.00735 0.0997343 6.72594 0.143752 7.40067 0.155855C7.63762 0.160694 7.53213 0.325162 8.04354 0.311316C8.40583 0.301636 9.51717 0.114183 10.0289 0.314429C10.0319 0.390042 9.96729 0.473525 9.94011 0.551557C10.6737 0.236412 10.9362 0.250238 11.9762 0.327064C12.1407 0.339163 12.2965 0.209689 12.5864 0.257481C12.8761 0.305314 12.8883 0.504903 13.4709 0.502484C13.6775 0.501146 13.8029 0.360394 14.1198 0.354347C15.021 0.33681 16.7373 0.511632 17.477 0.517682C18.9336 0.529773 19.7262 0.289553 21.0198 0.373024C21.1194 0.379074 20.9006 0.533328 21.0832 0.536359C21.2674 0.539384 21.4592 0.335016 21.5045 0.330176C21.9935 0.277573 23.0269 0.551357 23.2989 0.518231C23.9601 0.437165 23.3085 0.347104 24.2248 0.308386C25.0973 0.271542 26.3019 0.537621 27.1668 0.589644C28.169 0.6501 28.4922 0.263602 29.247 0.6671C31.8976 0.643508 34.5588 0.629072 37.2124 0.608505C37.2049 0.688941 37.1961 0.769408 37.1871 0.849845C37.3969 0.794188 37.6068 0.738448 37.8166 0.683397C37.7849 0.743272 37.7548 0.803209 37.7231 0.862479C38.7087 0.631441 39.587 0.512254 40.7386 0.575728C40.7611 0.576931 40.7019 0.737309 40.7205 0.741443C40.9802 0.771692 41.2703 0.648316 41.4983 0.677354C42.0492 0.746926 42.9851 1.09663 42.573 0.668931C43.8576 0.757241 45.367 0.612637 46.5912 0.695482C47.1209 0.731167 47.2796 0.98464 47.5331 0.999263C47.7864 1.01376 47.6575 0.795958 47.7474 0.787587C48.2878 0.739192 49.1771 0.748178 49.2708 0.991938C49.3794 0.894571 49.4944 0.796018 49.6046 0.698046C49.54 0.968319 51.2099 0.856605 51.648 0.863212C51.728 0.864422 51.7392 0.982894 51.7996 0.981684C52.4725 0.96651 52.637 0.780815 53.2135 0.719103C53.4158 0.697325 53.1021 0.90611 53.6214 0.815969C53.6666 0.808052 53.6426 0.620479 54.2629 0.621689C55.2531 0.623499 57.1475 0.549104 58.3264 0.641648C58.423 0.648906 58.1289 0.853375 58.5707 0.805715C58.7307 0.788776 58.6541 0.64359 59.0421 0.64238C60.5455 0.636333 62.1487 0.803256 63.6823 0.66472C63.6265 0.82866 63.0802 1.01256 63.9013 0.909722C64.0325 0.892743 63.9346 0.746337 63.9934 0.740894C64.4703 0.698587 64.8839 0.803168 65.4 0.746936C65.5525 0.729997 65.5903 0.615037 65.7805 0.587813C66.0613 0.547302 66.1855 0.711216 66.5115 0.641648C67.0214 0.532156 67.1002 0.376771 67.7325 0.681566C71.316 0.662206 74.8829 0.576391 78.4544 0.71068C79.4869 0.623568 80.4396 0.526239 81.5159 0.492962C81.8328 0.483283 81.8935 0.691348 82.3991 0.622421C82.5123 0.607297 83.3201 0.383984 83.4378 0.804433C83.6626 0.76816 83.8047 0.766934 83.9979 0.744556C83.8515 0.682849 83.7004 0.620461 83.56 0.558149C84.3751 0.625298 85.0408 0.477076 85.7623 0.4069C86.2935 0.355509 85.9163 0.53581 86.2423 0.517682C86.5683 0.500138 86.7166 0.45957 87.1241 0.675523C87.4441 0.426385 87.6568 0.601118 88.247 0.607772C88.3104 0.608373 88.6769 0.51176 88.9833 0.531049C89.2036 0.544959 89.2689 0.700329 89.6189 0.676256C89.6762 0.672626 90.4161 0.480117 90.6516 0.462565C91.0184 0.434737 91.6014 0.633918 91.6723 0.636337C92.7031 0.67139 93.1005 0.474754 93.8326 0.79839C93.9805 0.606055 94.5914 0.493484 95.0849 0.512188C95.7084 0.535782 96.9584 0.929052 97.1291 0.51347C97.8505 0.698566 97.7722 0.584328 98.6277 0.580672C99.4066 0.577042 101.469 0.736011 102.1 0.713061C102.731 0.690677 102.423 0.459543 102.674 0.42869C103.084 0.377397 102.863 0.547934 103.143 0.545515C103.937 0.538253 104.627 0.505661 105.385 0.431253C105.426 0.55099 105.469 0.671329 105.512 0.791066C105.551 0.751163 105.59 0.711214 105.629 0.671312C105.792 0.672521 105.975 0.670063 106.126 0.673692C104.852 0.148065 107.356 0.71257 108.108 0.725879C108.742 0.736766 109.797 0.487476 110.493 0.433634C110.662 0.42039 110.546 0.549774 110.581 0.546796C110.988 0.509893 111.05 0.421535 111.598 0.433634C111.888 0.440295 112.184 0.60232 112.466 0.605392C114.538 0.62717 116.539 0.464371 118.598 0.446818C118.948 0.443793 119.25 0.641586 119.544 0.645859C119.965 0.651908 120.231 0.489961 120.626 0.487468C121.02 0.485049 121.588 0.678589 121.855 0.648972C122.122 0.619933 121.665 0.432384 122.154 0.483806C122.379 0.507438 121.982 0.647103 122.26 0.651353C123.126 0.664661 124.349 0.491692 125.271 0.659226C125.23 0.617496 125.175 0.579939 125.125 0.540021C126.108 0.556359 126.976 0.656793 127.99 0.671312C128.345 0.676709 128.985 0.554094 129.333 0.55467C129.682 0.555275 129.841 0.688318 130.12 0.692003C130.235 0.693818 130.19 0.57459 130.267 0.57701C131.23 0.608495 131.758 0.820731 132.766 0.796559C136.46 0.708234 140.269 0.631963 144.02 0.552107C144.171 0.548946 144.272 0.393622 144.493 0.370644C144.832 0.335075 144.849 0.472376 144.894 0.477214C145.19 0.507431 145.069 0.380349 145.466 0.380349C146.34 0.38035 147.75 0.492936 148.621 0.483257C150.629 0.460873 152.316 0.339825 154.285 0.278722C154.426 0.273883 154.33 0.457765 154.576 0.460185C156.31 0.479519 156.678 0.303461 158.836 0.353065C160.995 0.402675 165.069 0.514064 167.596 0.539472C167.596 0.539899 167.596 0.540326 167.596 0.540754C168.391 0.200794 169.421 0.28535 170.275 0.542402C165.348 1.38089 160.634 1.00774 155.371 1.04101C149.841 1.0755 143.944 1.68474 138.34 1.60188C137.813 1.59402 137.601 1.40039 137.157 1.44093C137.082 1.44778 137.277 1.597 137.046 1.61213C133.876 1.8154 130.496 1.4753 127.383 1.56965C126.544 1.59506 126.413 1.76144 125.674 1.8044C125.804 1.72578 125.889 1.64357 126.002 1.56434C122.633 1.31872 119.259 1.42822 115.846 1.39313C115.692 1.39128 115.672 1.22852 115.511 1.22247C115.188 1.2098 114.878 1.38887 114.596 1.39497C114.228 1.40283 114.164 1.27333 113.824 1.2818C113.659 1.28614 113.708 1.41059 113.348 1.38947C113.318 1.38766 113.298 1.25709 113.058 1.27393C112.401 1.32051 111.059 1.43004 110.516 1.46272C109.822 1.50445 109.265 1.30777 109.002 1.29499C108.292 1.26051 108.307 1.46191 107.707 1.46198C103.432 1.46319 99.3449 1.23403 94.9688 1.23584C94.6939 1.23593 93.677 1.46017 93.1683 1.45118C92.9978 1.44755 92.1063 1.38832 91.9727 1.38343C91.4308 1.36467 90.9625 1.22912 90.6636 1.20068C90.084 1.14508 89.4363 1.35676 89.1208 1.37794C88.5669 1.41542 87.5831 1.3876 87.3504 1.38215C86.7889 1.36884 86.9744 1.10699 86.5714 1.16809C86.4523 1.18634 86.577 1.38709 86.1575 1.38709C85.806 1.38641 85.6638 1.23523 85.4238 1.20801C85.1839 1.18095 84.7436 1.41475 84.594 1.40888C83.8121 1.37621 83.4661 1.22301 82.6147 1.21515C81.9078 1.20913 78.64 1.3163 78.3683 1.37134C77.1515 1.61732 79.178 1.50697 79.2922 1.51527C79.9096 1.56306 79.8192 1.65744 80.4351 1.47718C80.9861 2.03314 82.9063 1.16751 83.3984 1.82692C83.9071 1.38771 84.3345 1.60914 84.8704 1.69746C85.6111 1.81954 85.0471 1.56359 85.5874 1.56178C85.8004 1.5613 86.4177 1.76081 86.7376 1.73299C87.0575 1.7051 87.1922 1.55212 87.6208 1.54365C88.386 1.52795 89.002 1.59935 89.6449 1.78261C89.7626 1.70157 89.8725 1.62048 89.9887 1.53944C90.4325 1.62655 90.878 1.71313 91.3218 1.79964C91.2509 1.72886 91.1798 1.65746 91.1089 1.58668C91.2387 1.5764 91.3689 1.5667 91.4987 1.55702C91.9304 1.66348 92.3427 1.76206 92.7865 1.87215C93.9923 1.46272 93.6424 1.81709 94.3126 1.87032C94.9826 1.9235 95.3704 1.68647 95.888 1.6852C96.5854 1.68338 96.9057 1.6538 97.609 1.67073C98.0166 1.68041 98.708 1.90912 98.1404 1.54676C99.4129 1.51773 101.155 1.4166 102.293 1.56361C102.629 1.6065 102.181 1.72063 102.239 1.73482C102.524 1.80195 102.764 1.61694 103.058 1.64345C103.547 1.6876 104.5 1.83165 104.885 1.86556C105.439 1.91456 106.31 1.67491 106.399 1.65736C106.897 1.56001 107.03 1.75899 107.19 1.74526C108.1 1.6654 108.301 1.58184 108.588 2.00161C108.824 1.82012 109.811 1.51473 110.049 1.82015C110.055 1.54433 110.875 1.59082 111.379 1.52186C111.473 1.60172 111.568 1.68109 111.661 1.76155C112.714 1.26791 114.809 1.62649 116.193 1.6852C116.228 1.68641 116.29 1.47967 116.498 1.52626C116.511 1.53008 116.49 1.62298 116.63 1.63502C117.09 1.67376 118.847 1.90582 119.049 1.90786C119.793 1.91572 119.923 1.76142 120.376 1.7469C120.972 1.72755 121.058 1.86679 121.626 1.84688C121.891 1.83781 122.133 1.65453 122.551 1.68043C122.798 1.69555 122.823 1.83949 123.019 1.85109C123.716 1.89284 124.228 1.802 124.847 1.98953C125.009 1.53167 125.305 1.86914 125.611 1.90365C126.855 2.0446 128.405 1.85112 129.472 1.89284C132.802 2.02412 135.755 2.3065 139.008 2.37003C139.536 2.38031 139.664 2.15043 140.217 2.16495C140.467 2.17168 140.723 2.33813 141.131 2.34055C141.458 2.34293 141.927 2.25832 142.336 2.25888C142.445 2.25888 142.455 2.41496 142.615 2.41617C143.828 2.42523 145.013 2.31441 146.239 2.23819C146.693 2.20983 146.974 2.41663 146.897 2.05673C147.071 2.14504 147.24 2.22195 147.403 2.30905C148.028 2.08219 148.538 2.31861 149.383 2.26053C149.474 2.25361 150.113 2.00478 150.475 2.18436C150.5 2.05613 150.444 1.94726 150.455 1.83113C150.812 1.78214 151.362 1.93023 151.604 1.9454C151.845 1.9605 152.006 1.79394 152.079 1.79232C152.355 1.78808 152.291 2.00714 152.312 2.01077C153.599 2.22065 153.464 2.10395 154.241 1.77547C154.436 1.69261 155.758 1.93326 156.025 1.67384C156.037 1.77966 155.963 1.87279 155.942 1.97378C156.339 2.001 156.739 2.02895 157.138 2.05618C157.053 1.95454 156.952 1.85281 156.875 1.75057C157.688 1.83888 158.365 1.5994 159.03 1.60719C159.411 1.61203 159.364 1.83656 159.588 1.78755C159.631 1.77785 159.558 1.62614 159.687 1.61397C160.745 1.51536 161.209 1.67564 162.269 1.70589C162.765 1.72033 163.2 1.44458 163.912 1.62605C163.977 1.64304 164.676 1.88789 165.108 1.53706C165.245 1.64777 165.366 1.70592 165.469 1.79909C166.343 1.27821 166.102 1.78869 167.284 1.90969C167.895 1.97256 169.952 1.88129 170.618 1.82564C171.015 1.79173 171.007 1.587 171.078 1.57881C171.501 1.53163 171.501 1.73007 171.892 1.69746C172.283 1.6648 172.777 1.44032 173.178 1.46088C173.486 1.47673 173.243 1.72329 173.698 1.6374C173.792 1.61881 173.523 1.40957 174.002 1.49165C174.077 1.50435 174.843 1.73068 175 1.77968C174.597 1.91096 173.429 2.08223 172.989 2.13546C165.425 3.055 150.188 3.06457 142.11 2.94903C141.36 2.93871 140.869 2.72333 140.38 2.70457C139.891 2.68582 140.305 2.88314 139.861 2.86681C139.417 2.84987 139.094 2.71063 138.679 2.69853C135.88 2.61626 133.061 2.52918 130.285 2.49107C129.565 2.48139 128.989 2.64177 128.334 2.64177C128.079 2.64167 128.071 2.43487 127.89 2.43668C125.938 2.45303 124.133 2.65205 122.192 2.62785C121.386 2.61754 120.515 2.44332 119.716 2.42698C119.058 2.41307 118.376 2.53218 117.784 2.53465C117.463 2.53646 117.294 2.37895 117.178 2.36655C116.773 2.32541 116.914 2.5178 116.708 2.5178C116.137 2.51715 115.853 2.28487 115.319 2.30301C115.109 2.31027 115.136 2.45829 114.832 2.48136C114.445 2.51039 114.588 2.37384 114.312 2.36893C114.296 2.36833 114.35 2.47416 114.204 2.47843C113.262 2.50626 112.086 2.5897 111.177 2.58244C109.297 2.56791 107.442 2.364 105.691 2.32407C105.249 2.31439 105.366 2.45237 105.226 2.45902C104.55 2.49044 104.308 2.3254 103.6 2.38468C103.483 2.39439 103.009 2.58542 102.556 2.53703C102.311 2.51097 102.034 2.39181 101.825 2.36399C101.617 2.33617 101.584 2.51164 101.333 2.51176C100.878 2.51236 101.01 2.39074 100.358 2.41251C100.095 2.42098 99.2185 2.58722 98.5423 2.57456C97.4373 2.554 96.0679 2.40211 94.7652 2.39969C94.3184 2.39848 93.7444 2.57879 93.0515 2.58061C92.2047 2.58301 90.6443 2.54202 89.7764 2.53959C89.3326 2.53838 89.3005 2.34951 89.2477 2.34165C88.9083 2.28911 89.0454 2.50012 88.8178 2.4918C88.5053 2.4803 88.2137 2.32465 87.9299 2.31436C87.7489 2.30778 87.7201 2.4633 87.6809 2.46451C86.2288 2.51594 84.9456 2.50141 83.5026 2.51835C75.7632 2.60788 67.9499 2.80753 60.2257 2.71739C59.5781 2.71013 59.5537 2.51405 58.9846 2.5449C58.4155 2.57515 57.8658 2.99863 57.3978 2.53098C57.3827 2.62536 57.3842 2.69264 57.3691 2.77855C56.1932 2.64549 55.0172 2.78322 53.867 2.80016C53.0158 2.81285 52.2608 2.79781 51.4745 2.78752C50.7774 2.77781 50.8376 2.61338 50.2341 2.82799C47.2347 2.69369 44.203 2.72639 41.2292 2.50315C40.5318 2.85464 39.8633 2.63318 38.8987 2.58116C38.7796 2.57458 38.9074 2.70282 38.5543 2.69194C38.1107 2.67854 37.8812 2.4826 37.1343 2.49345C36.9366 2.49647 35.4719 2.71371 34.93 2.6024C34.3881 2.4911 33.6031 2.42577 33.0401 2.31931C33.1201 2.40339 33.2214 2.48382 33.3105 2.56669C33.0297 2.58121 32.7474 2.5952 32.4667 2.60972C32.4259 2.50869 32.3851 2.40758 32.3458 2.30594C32.1828 2.40213 32.0197 2.49713 31.8552 2.59452C31.5005 2.07552 31.8641 2.2448 31.0748 2.37607C30.6793 2.44141 30.3653 2.35073 29.9593 2.40336C29.813 2.4227 29.7194 2.57553 29.5581 2.59507C29.1626 2.64225 29.3931 2.43191 29.1488 2.43302C28.9028 2.43483 28.5495 2.66587 28.1088 2.56303C28.5689 2.15113 27.2389 2.2855 27.1755 2.60551C27.0172 2.6061 26.8844 2.5928 26.7095 2.60185C26.8711 1.79361 26.0419 2.36717 25.7128 2.47788C25.384 2.58843 25.3973 2.37127 25.3203 2.37973C25.0986 2.40334 25.2601 2.49351 25.1047 2.49656C24.0752 2.51471 23.1058 2.38213 22.0899 2.37003C21.9438 2.36831 22.0734 2.49103 21.903 2.47898C21.7324 2.46688 21.569 2.34471 21.3169 2.35318C21.2492 2.35533 21.228 2.46313 21.1226 2.46323C18.9142 2.45839 16.8173 2.36655 14.5651 2.35263C14.3613 2.35142 14.2013 2.5431 13.8074 2.53648C13.4134 2.52982 12.8157 2.35684 12.3267 2.34348C12.1969 2.33985 12.1616 2.49951 11.9896 2.49528C11.404 2.48073 10.8995 2.35073 10.2913 2.32956C9.26342 2.2939 8.18725 2.3913 7.14432 2.29697C6.9466 2.27943 6.9782 2.14626 6.69304 2.10873C6.20093 2.044 6.38612 2.23818 6.28649 2.26419C5.96055 2.34822 5.85812 2.09014 5.54281 2.15652C5.4946 2.16679 5.56337 2.31984 5.52012 2.32224C4.84988 2.34886 4.8147 1.99014 4.10219 2.18252C3.46858 1.97628 4.52691 1.90602 4.63558 1.79653C4.90101 1.53038 4.19935 1.21763 3.78576 1.11719C3.4296 1.0307 3.43222 1.19639 3.29043 1.19647C2.54025 1.19708 1.4231 1.22858 0.852453 1.14996C0.506769 1.10278 1.12987 1.03375 0.953256 0.979304C0.778207 0.92493 0.664882 1.04946 0.485288 0.913384C0.305653 0.777265 -0.0607972 0.37669 0.00864143 0.185519ZM63.0315 1.07727C61.8812 1.73061 58.8307 1.66236 57.1929 1.60005C55.8343 1.54802 54.6631 1.04462 54.9438 1.77419C56.4125 1.77902 57.6004 1.70585 59.1535 1.72823C59.315 1.73065 60.2784 1.79834 60.6135 1.81044C60.8022 1.81712 60.8082 1.93763 61.0648 1.93642C61.1207 1.93581 61.4302 1.77838 61.5434 1.78261C61.9313 1.79656 63.0847 2.03825 63.2458 2.03127C63.6924 2.01072 63.521 1.8234 63.7137 1.78939C64.3613 1.67686 64.4327 1.95819 65.0742 1.86684C65.189 1.85051 65.5694 1.60534 66.0449 1.6374C66.2381 1.65074 66.5672 1.77731 66.7151 1.77126C67.5212 1.73858 68.421 1.57094 69.1591 1.59877C69.7642 1.62179 69.6015 1.81104 69.9215 1.83644C70.2415 1.86116 70.6279 1.64168 70.8467 1.62898C71.1969 1.60907 71.6226 1.7337 71.7313 1.73189C73.8717 1.69498 75.7752 1.55045 77.8402 1.49842C76.4379 1.41191 75.0371 1.33252 73.6439 1.24298C72.8529 1.43899 73.2466 1.2552 72.7259 1.19409C72.3139 1.1457 72.2142 1.4777 71.6725 1.44093C71.673 1.44093 71.6734 1.44093 71.6739 1.44093C71.3946 1.42157 70.7893 1.19165 70.1945 1.28785C70.1734 1.29151 70.1204 1.46381 69.6751 1.46986C68.6744 1.48317 67.1409 1.57156 66.0148 1.53468C65.6843 1.52379 65.7516 1.34282 65.3606 1.32044C65.0754 1.30425 64.7451 1.47157 64.2985 1.43415C63.7385 1.38636 63.4698 1.09854 63.0849 1.49842C63.0532 1.35565 63.0692 1.21641 63.0315 1.07727ZM32.0982 1.42518C32.0195 1.40937 30.966 0.963016 31.2784 1.43964C32.6943 1.64654 34.2252 1.54377 35.7151 1.65993C35.2064 1.18865 34.3457 1.3744 33.3011 1.40888C33.3007 1.40888 33.3002 1.40888 33.2998 1.40888C33.2505 1.41049 33.4566 1.28732 33.1763 1.30964C33.0404 1.32052 32.5193 1.50927 32.0982 1.42518Z" fill="var(--stroke-0, #CEBD9D)"/>
</svg>
