<svg preserveAspectRatio="none" width="100%" height="100%" overflow="visible" style="display: block;" viewBox="0 0 40 32" fill="none" xmlns="http://www.w3.org/2000/svg">
<g id="Frame 13795">
<path id="Vector 95" d="M39.998 17.3145C39.7331 17.4742 39.4684 17.5424 39.1959 17.4729C39.1338 17.4571 39.1396 17.3337 39.1141 17.3138C39.0672 17.2769 38.9884 17.4101 38.9774 17.4101C38.9088 17.4118 38.9356 17.1957 38.9264 17.1874C38.8236 17.0997 38.8532 17.3458 38.7549 17.3694C38.6269 17.4003 38.4626 17.3562 38.3084 17.3441C38.2543 17.3393 38.2784 17.1748 38.1615 17.1887C38.0787 17.1984 37.8246 17.3858 37.7077 17.1856C37.707 17.11 37.7218 17.0265 37.728 16.9484C37.5603 17.2636 37.5003 17.2498 37.2626 17.1729C37.225 17.1608 37.1894 17.2903 37.1231 17.2425C37.0569 17.1947 37.0541 16.9951 36.9209 16.9975C36.8737 16.9989 36.845 17.1396 36.7726 17.1457C36.5666 17.1632 36.1743 16.9884 36.0053 16.9823C35.6723 16.9702 35.4912 17.2104 35.1955 17.127C35.1727 17.1209 35.2227 16.9667 35.181 16.9636C35.1389 16.9606 35.095 17.165 35.0847 17.1698C34.9729 17.2224 34.7367 16.9486 34.6745 16.9818C34.5234 17.0628 34.6723 17.1529 34.4629 17.1916C34.2635 17.2285 33.9881 16.9624 33.7904 16.9104C33.5614 16.8499 33.4875 17.2364 33.315 16.8329C32.7091 16.8565 32.1008 16.8709 31.4943 16.8915C31.496 16.8111 31.498 16.7306 31.5001 16.6502C31.4521 16.7058 31.4042 16.7616 31.3562 16.8166C31.3635 16.7567 31.3703 16.6968 31.3776 16.6375C31.1523 16.8686 30.9515 16.9877 30.6883 16.9243C30.6832 16.9231 30.6967 16.7627 30.6924 16.7586C30.6331 16.7283 30.5668 16.8517 30.5147 16.8226C30.3887 16.7531 30.1748 16.4034 30.269 16.8311C29.9754 16.7428 29.6304 16.8874 29.3506 16.8045C29.2295 16.7688 29.1932 16.5154 29.1353 16.5007C29.0774 16.4862 29.1069 16.704 29.0863 16.7124C28.9628 16.7608 28.7595 16.7518 28.7381 16.5081C28.7133 16.6054 28.687 16.704 28.6618 16.802C28.6766 16.5317 28.2949 16.6434 28.1947 16.6368C28.1765 16.6356 28.1739 16.5171 28.1601 16.5183C28.0063 16.5335 27.9687 16.7192 27.8369 16.7809C27.7907 16.8027 27.8624 16.5939 27.7437 16.684C27.7333 16.6919 27.7388 16.8795 27.5971 16.8783C27.3707 16.8765 26.9377 16.9509 26.6682 16.8584C26.6462 16.8511 26.7134 16.6466 26.6124 16.6943C26.5758 16.7112 26.5933 16.8564 26.5047 16.8576C26.161 16.8637 25.7946 16.6967 25.444 16.8353C25.4568 16.6713 25.5817 16.4874 25.394 16.5903C25.364 16.6073 25.3864 16.7537 25.3729 16.7591C25.2639 16.8014 25.1694 16.6968 25.0514 16.7531C25.0166 16.77 25.0079 16.885 24.9645 16.9122C24.9003 16.9527 24.8719 16.7888 24.7974 16.8584C24.6808 16.9678 24.6628 17.1232 24.5183 16.8184C23.6992 16.8378 22.8839 16.9236 22.0676 16.7893C21.8316 16.8764 21.6138 16.9738 21.3678 17.007C21.2954 17.0167 21.2815 16.8087 21.1659 16.8776C21.1401 16.8927 20.9554 17.116 20.9285 16.6956C20.8771 16.7318 20.8446 16.7331 20.8005 16.7554C20.8339 16.8172 20.8685 16.8795 20.9006 16.9419C20.7143 16.8747 20.5621 17.0229 20.3972 17.0931C20.2758 17.1445 20.362 16.9642 20.2875 16.9823C20.213 16.9999 20.1791 17.0404 20.0859 16.8245C20.0128 17.0736 19.9642 16.8989 19.8293 16.8922C19.8148 16.8916 19.731 16.9882 19.661 16.969C19.6106 16.955 19.5957 16.7997 19.5157 16.8237C19.5026 16.8274 19.3335 17.0199 19.2796 17.0374C19.1958 17.0653 19.0625 16.8661 19.0463 16.8637C18.8107 16.8286 18.7199 17.0252 18.5526 16.7016C18.5187 16.8939 18.3791 17.0065 18.2663 16.9878C18.1238 16.9642 17.8381 16.5709 17.7991 16.9865C17.6342 16.8014 17.6521 16.9157 17.4565 16.9193C17.2785 16.923 16.8072 16.764 16.6629 16.7869C16.5187 16.8093 16.589 17.0405 16.5317 17.0713C16.4379 17.1226 16.4886 16.9521 16.4244 16.9545C16.2429 16.9617 16.0852 16.9943 15.912 17.0687C15.9027 16.949 15.8927 16.8287 15.883 16.7089C15.8741 16.7488 15.8651 16.7888 15.8562 16.8287C15.8189 16.8275 15.7772 16.8299 15.7427 16.8263C16.0338 17.3519 15.4614 16.7874 15.2896 16.7741C15.1447 16.7632 14.9035 17.0125 14.7444 17.0664C14.7058 17.0796 14.7323 16.9502 14.7244 16.9532C14.6313 16.9901 14.6171 17.0785 14.4919 17.0664C14.4256 17.0597 14.358 16.8977 14.2935 16.8946C13.8198 16.8728 13.3626 17.0356 12.892 17.0532C12.812 17.0562 12.7429 16.8584 12.6756 16.8541C12.5794 16.8481 12.5187 17.01 12.4283 17.0125C12.3382 17.015 12.2084 16.8214 12.1474 16.851C12.0863 16.8801 12.1908 17.0676 12.079 17.0162C12.0277 16.9926 12.1184 16.8529 12.0549 16.8486C11.8569 16.8353 11.5774 17.0083 11.3666 16.8408C11.3759 16.8825 11.3886 16.9201 11.4 16.96C11.1754 16.9436 10.977 16.8432 10.7451 16.8287C10.664 16.8233 10.5178 16.9459 10.4381 16.9453C10.3584 16.9447 10.3221 16.8117 10.2583 16.808C10.2321 16.8062 10.2424 16.9254 10.2248 16.923C10.0047 16.8915 9.88392 16.6793 9.65347 16.7034C8.80917 16.7918 7.93856 16.868 7.08115 16.9479C7.04667 16.9511 7.02347 17.1064 6.97311 17.1294C6.89556 17.1649 6.89176 17.0276 6.88141 17.0228C6.81382 16.9926 6.84137 17.1197 6.75064 17.1197C6.55087 17.1196 6.22859 17.0071 6.02951 17.0167C5.57062 17.0391 5.18488 17.1602 4.73495 17.2213C4.70252 17.2261 4.72453 17.0422 4.66827 17.0398C4.2719 17.0205 4.18798 17.1965 3.69461 17.1469C3.2012 17.0973 2.26993 16.9859 1.69235 16.9605C1.69235 16.9601 1.69235 16.9597 1.69235 16.9592C1.51054 17.2992 1.2753 17.2146 1.08002 16.9576C2.20621 16.1191 3.28376 16.4923 4.48654 16.459C5.75074 16.4245 7.09842 15.8153 8.37952 15.8981C8.49994 15.906 8.54831 16.0996 8.64975 16.0591C8.6669 16.0522 8.62251 15.903 8.67523 15.8879C9.39979 15.6846 10.1723 16.0247 10.8838 15.9303C11.0756 15.9049 11.1057 15.7386 11.2744 15.6956C11.2448 15.7742 11.2254 15.8564 11.1995 15.9357C11.9696 16.1813 12.7408 16.0718 13.521 16.1069C13.5562 16.1087 13.5607 16.2715 13.5976 16.2775C13.6714 16.2902 13.7421 16.1111 13.8066 16.105C13.8908 16.0972 13.9054 16.2267 13.983 16.2182C14.0209 16.2139 14.0096 16.0894 14.092 16.1105C14.0988 16.1123 14.1034 16.2429 14.1582 16.2261C14.3083 16.1795 14.615 16.07 14.7392 16.0373C14.8979 15.9955 15.0252 16.1922 15.0853 16.205C15.2474 16.2395 15.2441 16.0381 15.3813 16.038C16.3585 16.0368 17.2926 16.266 18.2929 16.2642C18.3557 16.2641 18.5881 16.0398 18.7044 16.0488C18.7433 16.0524 18.9471 16.1117 18.9777 16.1166C19.1015 16.1353 19.2086 16.2709 19.2769 16.2993C19.4094 16.3549 19.5574 16.1432 19.6295 16.1221C19.7561 16.0846 19.981 16.1124 20.0342 16.1179C20.1625 16.1312 20.1201 16.393 20.2123 16.3319C20.2395 16.3137 20.211 16.1129 20.3069 16.1129C20.3872 16.1136 20.4197 16.2648 20.4746 16.292C20.5294 16.319 20.63 16.0853 20.6642 16.0911C20.8429 16.1238 20.922 16.277 21.1166 16.2848C21.2782 16.2909 22.0252 16.1837 22.0873 16.1287C22.3654 15.8827 21.9022 15.993 21.8761 15.9847C21.735 15.9369 21.7556 15.8426 21.6148 16.0228C21.4889 15.4669 21.05 16.3325 20.9375 15.6731C20.8212 16.1123 20.7235 15.8909 20.601 15.8025C20.4317 15.6805 20.5607 15.9364 20.4372 15.9382C20.3885 15.9387 20.2474 15.7392 20.1743 15.767C20.1012 15.7949 20.0704 15.9479 19.9724 15.9563C19.7975 15.9721 19.6567 15.9007 19.5097 15.7174C19.4828 15.7984 19.4577 15.8795 19.4312 15.9606C19.3297 15.8734 19.2279 15.7869 19.1264 15.7004C19.1427 15.7711 19.1589 15.8425 19.1751 15.9133C19.1454 15.9236 19.1157 15.9333 19.086 15.943C18.9873 15.8365 18.8931 15.7379 18.7917 15.6278C18.516 16.0373 18.596 15.6829 18.4428 15.6297C18.2897 15.5765 18.2011 15.8135 18.0827 15.8148C17.9233 15.8166 17.8501 15.8462 17.6894 15.8293C17.5962 15.8196 17.4382 15.5909 17.5679 15.9532C17.277 15.9823 16.8788 16.0834 16.6187 15.9364C16.5418 15.8935 16.6443 15.7794 16.6312 15.7652C16.566 15.698 16.5111 15.8831 16.4438 15.8566C16.332 15.8124 16.1143 15.6683 16.0263 15.6344C15.8997 15.5854 15.7006 15.8251 15.6802 15.8426C15.5664 15.94 15.536 15.741 15.4994 15.7547C15.2914 15.8346 15.2455 15.9182 15.1799 15.4984C15.1261 15.6799 14.9004 15.9853 14.8459 15.6799C14.8445 15.9557 14.6572 15.9092 14.5419 15.9781C14.5205 15.8983 14.4988 15.8189 14.4774 15.7384C14.2369 16.2321 13.758 15.8735 13.4416 15.8148C13.4337 15.8136 13.4195 16.0203 13.3719 15.9737C13.3689 15.9699 13.3738 15.877 13.3418 15.865C13.2366 15.8262 12.8351 15.5942 12.7889 15.5921C12.6187 15.5843 12.589 15.7386 12.4855 15.7531C12.3492 15.7725 12.3295 15.6332 12.1999 15.6531C12.1392 15.6622 12.0839 15.8455 11.9884 15.8196C11.9318 15.8044 11.9262 15.6605 11.8814 15.6489C11.722 15.6072 11.6049 15.698 11.4635 15.5105C11.4266 15.9683 11.3589 15.6309 11.2889 15.5964C11.0046 15.4554 10.6503 15.6489 10.4063 15.6072C9.64522 15.4759 8.97031 15.1935 8.22678 15.13C8.10601 15.1197 8.07692 15.3496 7.95029 15.3351C7.89336 15.3283 7.83469 15.1619 7.74155 15.1595C7.6667 15.1571 7.55945 15.2417 7.46597 15.2411C7.44113 15.2411 7.43893 15.085 7.40234 15.0838C7.12496 15.0748 6.85409 15.1856 6.57394 15.2618C6.47012 15.2902 6.40589 15.0834 6.42349 15.4433C6.38382 15.355 6.34525 15.2781 6.30798 15.1909C6.16514 15.4178 6.04848 15.1814 5.85526 15.2395C5.83443 15.2464 5.68854 15.4952 5.60577 15.3156C5.59992 15.4439 5.61276 15.5527 5.61035 15.6689C5.5286 15.7179 5.40296 15.5698 5.34775 15.5546C5.29261 15.5395 5.25571 15.7061 5.23911 15.7077C5.17596 15.7119 5.19069 15.4929 5.18585 15.4892C4.89158 15.2793 4.92256 15.396 4.74487 15.7245C4.70036 15.8074 4.39826 15.5667 4.33716 15.8262C4.33442 15.7203 4.35124 15.6272 4.35608 15.5262C4.26534 15.499 4.17389 15.471 4.08279 15.4438C4.10212 15.5455 4.12532 15.6472 4.14291 15.7494C3.95697 15.6611 3.80235 15.9006 3.65021 15.8928C3.56326 15.888 3.57386 15.6634 3.5228 15.7124C3.51281 15.7222 3.52969 15.8739 3.50006 15.886C3.25819 15.9846 3.15222 15.8244 2.91 15.7941C2.7965 15.7797 2.69717 16.0554 2.53433 15.8739C2.51947 15.857 2.35972 15.6121 2.26105 15.9629C2.22966 15.8522 2.20196 15.7941 2.1785 15.7009C1.97872 16.2218 2.03393 15.7113 1.76376 15.5903C1.62396 15.5274 1.15373 15.6187 1.00159 15.6744C0.910976 15.7083 0.912621 15.913 0.896454 15.9212C0.799854 15.9684 0.799778 15.7699 0.710449 15.8025C0.621086 15.8352 0.508198 16.0597 0.416412 16.0391C0.346111 16.0233 0.401524 15.7767 0.297699 15.8626C0.276192 15.8812 0.337635 16.0904 0.228119 16.0084C0.210869 15.9956 0.0358849 15.7693 2.44505e-08 15.7203C0.0921326 15.589 0.359196 15.4178 0.459595 15.3645C2.18858 14.445 5.67142 14.4354 7.5177 14.551C7.68916 14.5613 7.80128 14.7767 7.91306 14.7954C8.02485 14.8142 7.93034 14.6169 8.03177 14.6332C8.13321 14.6501 8.20712 14.7894 8.302 14.8015C8.94166 14.8837 9.58616 14.9708 10.2206 15.0089C10.3852 15.0186 10.5168 14.8582 10.6665 14.8582C10.7248 14.8583 10.7266 15.0651 10.768 15.0633C11.2141 15.047 11.6268 14.848 12.0705 14.8722C12.2547 14.8825 12.4538 15.0567 12.6363 15.073C12.7867 15.0869 12.9426 14.9678 13.0779 14.9654C13.1513 14.9635 13.19 15.121 13.2166 15.1334C13.309 15.1746 13.2767 14.9822 13.324 14.9822C13.4544 14.9828 13.5192 15.2151 13.6414 15.197C13.6893 15.1897 13.6831 15.0417 13.7528 15.0186C13.841 14.9896 13.8084 15.1262 13.8715 15.1311C13.8753 15.1317 13.8629 15.0258 13.8963 15.0216C14.1116 14.9937 14.3805 14.9103 14.5882 14.9176C15.0177 14.9321 15.4418 15.136 15.842 15.1759C15.9431 15.1856 15.9163 15.0476 15.9483 15.041C16.1029 15.0096 16.1581 15.1746 16.3199 15.1153C16.3468 15.1056 16.4552 14.9146 16.5587 14.963C16.6146 14.989 16.678 15.1082 16.7256 15.136C16.7732 15.1638 16.7809 14.9884 16.8381 14.9882C16.9423 14.9876 16.912 15.1093 17.061 15.0875C17.121 15.079 17.3215 14.9128 17.476 14.9254C17.7286 14.946 18.0416 15.0979 18.3394 15.1003C18.4415 15.1015 18.5727 14.9212 18.7311 14.9194C18.9246 14.917 19.2813 14.958 19.4797 14.9604C19.5811 14.9616 19.5885 15.1505 19.6005 15.1584C19.6781 15.2109 19.6468 14.9999 19.6988 15.0082C19.7702 15.0197 19.8369 15.1754 19.9017 15.1856C19.9431 15.1922 19.9497 15.0367 19.9587 15.0355C20.2906 14.9841 20.5838 14.9986 20.9137 14.9817C22.6827 14.8921 24.4686 14.6925 26.2341 14.7826C26.3822 14.7899 26.3877 14.9859 26.5178 14.9551C26.6479 14.9249 26.7735 14.5014 26.8805 14.969C26.8839 14.8746 26.8836 14.8074 26.8871 14.7215C27.1558 14.8545 27.4246 14.7168 27.6875 14.6998C27.8821 14.6871 28.0547 14.7022 28.2344 14.7125C28.3937 14.7222 28.38 14.8866 28.5179 14.672C29.2035 14.8063 29.8965 14.7736 30.5762 14.9969C30.7356 14.6454 30.8884 14.8668 31.1089 14.9188C31.1361 14.9254 31.1069 14.7972 31.1876 14.8081C31.289 14.8215 31.3414 15.0174 31.5122 15.0066C31.5574 15.0035 31.8921 14.7863 32.016 14.8976C32.1399 15.0089 32.3193 15.0742 32.448 15.1807C32.4297 15.0966 32.4065 15.0162 32.3862 14.9333C32.4504 14.9188 32.5149 14.9048 32.579 14.8903C32.5884 14.9913 32.5977 15.0924 32.6067 15.1941C32.6439 15.0979 32.6812 15.0029 32.7188 14.9055C32.7999 15.4245 32.7168 15.2552 32.8972 15.1239C32.9876 15.0586 33.0594 15.1493 33.1522 15.0966C33.1856 15.0773 33.207 14.9245 33.2439 14.9049C33.3343 14.8578 33.2816 15.0681 33.3374 15.067C33.3937 15.0652 33.4744 14.8341 33.5751 14.937C33.47 15.3489 33.774 15.2145 33.7885 14.8945C33.8246 14.8939 33.855 14.9072 33.895 14.8982C33.858 15.7064 34.0476 15.1328 34.1228 15.0221C34.1979 14.9116 34.1949 15.1287 34.2125 15.1203C34.2632 15.0967 34.2263 15.0065 34.2618 15.0034C34.4971 14.9853 34.7187 15.1179 34.9509 15.13C34.9843 15.1317 34.9547 15.009 34.9936 15.021C35.0326 15.0331 35.0699 15.1553 35.1276 15.1468C35.143 15.1447 35.1479 15.0369 35.172 15.0368C35.6768 15.0416 36.1561 15.1335 36.6708 15.1474C36.7174 15.1486 36.754 14.9569 36.844 14.9635C36.9341 14.9702 37.0707 15.1432 37.1825 15.1565C37.2121 15.1602 37.2202 15.0005 37.2595 15.0047C37.3934 15.0193 37.5087 15.1493 37.6477 15.1704C37.8826 15.2061 38.1286 15.1087 38.367 15.203C38.4122 15.2206 38.405 15.3537 38.4702 15.3913C38.5826 15.456 38.5403 15.2618 38.5631 15.2358C38.6376 15.1518 38.661 15.4099 38.7331 15.3435C38.7441 15.3332 38.7284 15.1802 38.7383 15.1778C38.8915 15.1511 38.8995 15.5099 39.0624 15.3175C39.2072 15.5237 38.9653 15.594 38.9404 15.7035C38.8798 15.9696 39.0401 16.2824 39.1347 16.3828C39.2161 16.4693 39.2155 16.3036 39.2479 16.3035C39.4194 16.3029 39.6747 16.2714 39.8052 16.35C39.8842 16.3972 39.7417 16.4663 39.7821 16.5207C39.8221 16.5751 39.848 16.4505 39.8891 16.5866C39.9301 16.7227 40.0139 17.1233 39.998 17.3145ZM25.5928 16.4227C25.8557 15.7694 26.553 15.8376 26.9273 15.9C27.2379 15.952 27.5056 16.4554 27.4414 15.7258C27.1057 15.721 26.8342 15.7941 26.4792 15.7718C26.4423 15.7694 26.2221 15.7017 26.1455 15.6896C26.1024 15.6829 26.101 15.5624 26.0423 15.5636C26.0296 15.5642 25.9588 15.7216 25.9329 15.7174C25.8443 15.7034 25.5806 15.4618 25.5438 15.4687C25.4417 15.4893 25.4809 15.6766 25.4369 15.7106C25.2888 15.8231 25.2725 15.5418 25.1259 15.6332C25.0997 15.6495 25.0127 15.8947 24.904 15.8626C24.8599 15.8493 24.7846 15.7227 24.7508 15.7287C24.5666 15.7614 24.3609 15.9291 24.1922 15.9012C24.0539 15.8782 24.0911 15.689 24.0179 15.6636C23.9448 15.6388 23.8565 15.8583 23.8065 15.871C23.7264 15.8909 23.6291 15.7663 23.6043 15.7681C23.115 15.805 22.68 15.9495 22.208 16.0016C22.5285 16.0881 22.8487 16.1675 23.1671 16.257C23.3479 16.061 23.2579 16.2448 23.3769 16.3059C23.4711 16.3543 23.4939 16.0223 23.6177 16.0591C23.6176 16.0591 23.6175 16.0591 23.6174 16.0591C23.6812 16.0784 23.8196 16.3083 23.9555 16.2122C23.9604 16.2085 23.9725 16.0362 24.0743 16.0301C24.303 16.0168 24.6535 15.9284 24.9109 15.9653C24.9865 15.9762 24.9711 16.1572 25.0604 16.1796C25.1256 16.1958 25.2011 16.0284 25.3032 16.0658C25.4312 16.1136 25.4926 16.4015 25.5806 16.0016C25.5878 16.1444 25.5842 16.2836 25.5928 16.4227ZM32.6633 16.0748C32.6813 16.0906 32.9221 16.537 32.8507 16.0604C32.527 15.8535 32.1771 15.9562 31.8366 15.8401C31.9528 16.3113 32.1495 16.1256 32.3883 16.0911C32.3884 16.0911 32.3885 16.0911 32.3886 16.0911C32.3999 16.0895 32.3528 16.2127 32.4168 16.1904C32.4479 16.1795 32.567 15.9907 32.6633 16.0748Z" fill="var(--stroke-0, #AA8958)"/>
</g>
</svg>
