<svg preserveAspectRatio="none" width="100%" height="100%" overflow="visible" style="display: block;" viewBox="0 0 177 3" fill="none" xmlns="http://www.w3.org/2000/svg">
<path id="Vector 95" d="M0.00874019 0.185519C1.18124 0.0258214 2.35219 -0.0424286 3.55827 0.0271282C3.8331 0.0428575 3.8072 0.166287 3.92018 0.186251C4.12783 0.223122 4.47631 0.0899352 4.52516 0.0899352C4.82835 0.088238 4.70987 0.304277 4.75068 0.312598C5.20561 0.400308 5.07467 0.154232 5.50961 0.130586C6.07601 0.0997343 6.80281 0.143752 7.48525 0.155855C7.72491 0.160694 7.61821 0.325162 8.13547 0.311316C8.50189 0.301636 9.62593 0.114183 10.1435 0.314429C10.1466 0.390042 10.0812 0.473525 10.0537 0.551557C10.7957 0.236412 11.0612 0.250238 12.1131 0.327064C12.2795 0.339163 12.4371 0.209689 12.7302 0.257481C13.0232 0.305314 13.0356 0.504903 13.6249 0.502484C13.8339 0.501146 13.9607 0.360394 14.2812 0.354347C15.1927 0.33681 16.9286 0.511632 17.6767 0.517682C19.15 0.529773 19.9516 0.289553 21.26 0.373024C21.3608 0.379074 21.1395 0.533328 21.3242 0.536359C21.5105 0.539384 21.7044 0.335016 21.7502 0.330176C22.2448 0.277573 23.2901 0.551357 23.5652 0.518231C24.2339 0.437165 23.5749 0.347104 24.5017 0.308386C25.3841 0.271542 26.6025 0.537621 27.4773 0.589644C28.491 0.6501 28.8179 0.263602 29.5812 0.6671C32.2621 0.643508 34.9538 0.629072 37.6377 0.608505C37.6301 0.688941 37.6212 0.769408 37.6121 0.849845C37.8243 0.794188 38.0366 0.738448 38.2488 0.683397C38.2167 0.743272 38.1863 0.803209 38.1543 0.862479C39.1511 0.631441 40.0395 0.512254 41.2041 0.575728C41.2269 0.576931 41.167 0.737309 41.1859 0.741443C41.4485 0.771692 41.742 0.648316 41.9725 0.677354C42.5298 0.746926 43.4764 1.09663 43.0596 0.668931C44.3588 0.757241 45.8855 0.612637 47.1236 0.695482C47.6594 0.731167 47.8199 0.98464 48.0763 0.999263C48.3325 1.01376 48.2021 0.795958 48.2931 0.787587C48.8396 0.739192 49.7391 0.748178 49.8339 0.991938C49.9438 0.894571 50.0601 0.796018 50.1715 0.698046C50.1062 0.968319 51.7951 0.856605 52.2383 0.863212C52.3192 0.864422 52.3305 0.982894 52.3916 0.981684C53.0722 0.96651 53.2386 0.780815 53.8216 0.719103C54.0262 0.697325 53.709 0.90611 54.2342 0.815969C54.28 0.808052 54.2556 0.620479 54.883 0.621689C55.8846 0.623499 57.8006 0.549104 58.993 0.641648C59.0907 0.648906 58.7932 0.853375 59.2401 0.805715C59.402 0.788776 59.3244 0.64359 59.7168 0.64238C61.2375 0.636333 62.8589 0.803256 64.4101 0.66472C64.3536 0.82866 63.8011 1.01256 64.6316 0.909722C64.7644 0.892743 64.6652 0.746337 64.7248 0.740894C65.2071 0.698587 65.6254 0.803168 66.1474 0.746936C66.3016 0.729997 66.3399 0.615037 66.5323 0.587813C66.8163 0.547302 66.9419 0.711216 67.2716 0.641648C67.7874 0.532156 67.8671 0.376771 68.5066 0.681566C72.1311 0.662206 75.7387 0.576391 79.351 0.71068C80.3953 0.623568 81.3589 0.526239 82.4475 0.492962C82.7681 0.483283 82.8294 0.691348 83.3408 0.622421C83.4553 0.607297 84.2723 0.383984 84.3914 0.804433C84.6188 0.76816 84.7625 0.766934 84.9579 0.744556C84.8098 0.682849 84.6569 0.620461 84.5149 0.558149C85.3394 0.625298 86.0126 0.477076 86.7424 0.4069C87.2797 0.355509 86.8982 0.53581 87.2279 0.517682C87.5577 0.500138 87.7076 0.45957 88.1198 0.675523C88.4435 0.426385 88.6586 0.601118 89.2555 0.607772C89.3197 0.608373 89.6904 0.51176 90.0003 0.531049C90.2231 0.544959 90.2892 0.700329 90.6431 0.676256C90.7011 0.672626 91.4494 0.480117 91.6876 0.462565C92.0586 0.434737 92.6482 0.633918 92.72 0.636337C93.7626 0.67139 94.1645 0.474754 94.9049 0.79839C95.0546 0.606055 95.6724 0.493484 96.1716 0.512188C96.8022 0.535782 98.0665 0.929052 98.2391 0.51347C98.9688 0.698566 98.8896 0.584328 99.7549 0.580672C100.543 0.577042 102.628 0.736011 103.267 0.713061C103.905 0.690677 103.594 0.459543 103.847 0.42869C104.262 0.377397 104.038 0.547934 104.322 0.545515C105.125 0.538253 105.823 0.505661 106.589 0.431253C106.631 0.55099 106.675 0.671329 106.718 0.791066C106.757 0.751163 106.797 0.711214 106.836 0.671312C107.001 0.672521 107.186 0.670063 107.339 0.673692C106.05 0.148065 108.583 0.71257 109.343 0.725879C109.985 0.736766 111.052 0.487476 111.756 0.433634C111.927 0.42039 111.809 0.549774 111.844 0.546796C112.257 0.509893 112.319 0.421535 112.873 0.433634C113.167 0.440295 113.466 0.60232 113.751 0.605392C115.847 0.62717 117.87 0.464371 119.953 0.446818C120.307 0.443793 120.613 0.641586 120.91 0.645859C121.336 0.651908 121.605 0.489961 122.005 0.487468C122.403 0.485049 122.978 0.678589 123.248 0.648972C123.518 0.619933 123.056 0.432384 123.55 0.483806C123.778 0.507438 123.376 0.647103 123.657 0.651353C124.533 0.664661 125.77 0.491692 126.703 0.659226C126.662 0.617496 126.605 0.579939 126.555 0.540021C127.549 0.556359 128.427 0.656793 129.453 0.671312C129.812 0.676709 130.459 0.554094 130.811 0.55467C131.164 0.555275 131.325 0.688318 131.607 0.692003C131.723 0.693818 131.678 0.57459 131.755 0.57701C132.729 0.608495 133.264 0.820731 134.283 0.796559C138.019 0.708234 141.872 0.631963 145.666 0.552107C145.818 0.548946 145.921 0.393622 146.144 0.370644C146.487 0.335075 146.504 0.472376 146.55 0.477214C146.849 0.507431 146.727 0.380349 147.128 0.380349C148.012 0.38035 149.438 0.492936 150.319 0.483257C152.35 0.460873 154.057 0.339825 156.048 0.278722C156.191 0.273883 156.094 0.457765 156.343 0.460185C158.097 0.479519 158.468 0.303461 160.651 0.353065C162.835 0.402675 166.956 0.514064 169.511 0.539472C169.511 0.539899 169.511 0.540326 169.511 0.540754C170.316 0.200794 171.357 0.28535 172.221 0.542402C167.238 1.38089 162.469 1.00774 157.147 1.04101C151.553 1.0755 145.59 1.68474 139.921 1.60188C139.388 1.59402 139.174 1.40039 138.725 1.44093C138.649 1.44778 138.845 1.597 138.612 1.61213C135.406 1.8154 131.987 1.4753 128.839 1.56965C127.99 1.59506 127.857 1.76144 127.111 1.8044C127.242 1.72578 127.328 1.64357 127.442 1.56434C124.034 1.31872 120.622 1.42822 117.17 1.39313C117.014 1.39128 116.994 1.22852 116.831 1.22247C116.504 1.2098 116.191 1.38887 115.906 1.39497C115.533 1.40283 115.469 1.27333 115.125 1.2818C114.958 1.28614 115.008 1.41059 114.643 1.38947C114.613 1.38766 114.593 1.25709 114.35 1.27393C113.686 1.32051 112.329 1.43004 111.779 1.46272C111.077 1.50445 110.513 1.30777 110.248 1.29499C109.53 1.26051 109.545 1.46191 108.938 1.46198C104.614 1.46319 100.48 1.23403 96.0541 1.23584C95.7761 1.23593 94.7476 1.46017 94.2331 1.45118C94.0607 1.44755 93.1589 1.38832 93.0238 1.38343C92.4757 1.36467 92.0021 1.22912 91.6998 1.20068C91.1135 1.14508 90.4585 1.35676 90.1394 1.37794C89.5791 1.41542 88.584 1.3876 88.3487 1.38215C87.7808 1.36884 87.9684 1.10699 87.5608 1.16809C87.4404 1.18634 87.5665 1.38709 87.1422 1.38709C86.7866 1.38641 86.6428 1.23523 86.4001 1.20801C86.1574 1.18095 85.7121 1.41475 85.5608 1.40888C84.77 1.37621 84.42 1.22301 83.5589 1.21515C82.8438 1.20913 79.5387 1.3163 79.2639 1.37134C78.0332 1.61732 80.0828 1.50697 80.1984 1.51527C80.8228 1.56306 80.7315 1.65744 81.3543 1.47718C81.9116 2.03314 83.8538 1.16751 84.3515 1.82692C84.8661 1.38771 85.2983 1.60914 85.8404 1.69746C86.5895 1.81954 86.019 1.56359 86.5655 1.56178C86.781 1.5613 87.4053 1.76081 87.7289 1.73299C88.0524 1.7051 88.1887 1.55212 88.6222 1.54365C89.3961 1.52795 90.0191 1.59935 90.6694 1.78261C90.7885 1.70157 90.8996 1.62048 91.0171 1.53944C91.466 1.62655 91.9166 1.71313 92.3655 1.79964C92.2937 1.72886 92.2219 1.65746 92.1501 1.58668C92.2814 1.5764 92.4131 1.5667 92.5444 1.55702C92.9811 1.66348 93.3981 1.76206 93.8469 1.87215C95.0665 1.46272 94.7126 1.81709 95.3904 1.87032C96.0681 1.9235 96.4604 1.68647 96.9839 1.6852C97.6892 1.68338 98.0132 1.6538 98.7246 1.67073C99.1368 1.68041 99.8361 1.90912 99.262 1.54676C100.549 1.51773 102.311 1.4166 103.462 1.56361C103.802 1.6065 103.349 1.72063 103.407 1.73482C103.696 1.80195 103.939 1.61694 104.236 1.64345C104.731 1.6876 105.694 1.83165 106.084 1.86556C106.644 1.91456 107.525 1.67491 107.615 1.65736C108.119 1.56001 108.253 1.75899 108.415 1.74526C109.336 1.6654 109.539 1.58184 109.829 2.00161C110.067 1.82012 111.066 1.51473 111.307 1.82015C111.313 1.54433 112.142 1.59082 112.652 1.52186C112.747 1.60172 112.843 1.68109 112.938 1.76155C114.002 1.26791 116.121 1.62649 117.521 1.6852C117.556 1.68641 117.619 1.47967 117.829 1.52626C117.843 1.53008 117.821 1.62298 117.962 1.63502C118.428 1.67376 120.205 1.90582 120.409 1.90786C121.162 1.91572 121.294 1.76142 121.752 1.7469C122.355 1.72755 122.442 1.86679 123.016 1.84688C123.284 1.83781 123.529 1.65453 123.951 1.68043C124.202 1.69555 124.227 1.83949 124.425 1.85109C125.13 1.89284 125.648 1.802 126.274 1.98953C126.438 1.53167 126.737 1.86914 127.047 1.90365C128.305 2.0446 129.872 1.85112 130.952 1.89284C134.32 2.02412 137.306 2.3065 140.597 2.37003C141.131 2.38031 141.26 2.15043 141.82 2.16495C142.072 2.17168 142.332 2.33813 142.744 2.34055C143.075 2.34293 143.549 2.25832 143.963 2.25888C144.073 2.25888 144.083 2.41496 144.245 2.41617C145.472 2.42523 146.671 2.31441 147.91 2.23819C148.37 2.20983 148.654 2.41663 148.576 2.05673C148.752 2.14504 148.922 2.22195 149.087 2.30905C149.719 2.08219 150.236 2.31861 151.09 2.26053C151.183 2.25361 151.828 2.00478 152.194 2.18436C152.22 2.05613 152.163 1.94726 152.174 1.83113C152.536 1.78214 153.092 1.93023 153.336 1.9454C153.58 1.9605 153.744 1.79394 153.817 1.79232C154.096 1.78808 154.031 2.00714 154.053 2.01077C155.355 2.22065 155.218 2.10395 156.004 1.77547C156.201 1.69261 157.538 1.93326 157.808 1.67384C157.82 1.77966 157.746 1.87279 157.724 1.97378C158.126 2.001 158.531 2.02895 158.934 2.05618C158.848 1.95454 158.745 1.85281 158.668 1.75057C159.49 1.83888 160.175 1.5994 160.848 1.60719C161.233 1.61203 161.186 1.83656 161.412 1.78755C161.456 1.77785 161.381 1.62614 161.512 1.61397C162.582 1.51536 163.051 1.67564 164.123 1.70589C164.625 1.72033 165.065 1.44458 165.786 1.62605C165.851 1.64304 166.558 1.88789 166.995 1.53706C167.134 1.64777 167.256 1.70592 167.36 1.79909C168.244 1.27821 168 1.78869 169.195 1.90969C169.814 1.97256 171.895 1.88129 172.568 1.82564C172.969 1.79173 172.962 1.587 173.033 1.57881C173.461 1.53163 173.461 1.73007 173.856 1.69746C174.252 1.6648 174.751 1.44032 175.157 1.46088C175.468 1.47673 175.223 1.72329 175.683 1.6374C175.778 1.61881 175.506 1.40957 175.991 1.49165C176.067 1.50435 176.841 1.73068 177 1.77968C176.592 1.91096 175.411 2.08223 174.966 2.13546C167.316 3.055 151.904 3.06457 143.734 2.94903C142.975 2.93871 142.479 2.72333 141.985 2.70457C141.49 2.68582 141.908 2.88314 141.459 2.86681C141.011 2.84987 140.684 2.71063 140.264 2.69853C137.433 2.61626 134.581 2.52918 131.774 2.49107C131.045 2.48139 130.463 2.64177 129.801 2.64177C129.543 2.64167 129.535 2.43487 129.352 2.43668C127.378 2.45303 125.552 2.65205 123.588 2.62785C122.773 2.61754 121.892 2.44332 121.085 2.42698C120.419 2.41307 119.729 2.53218 119.131 2.53465C118.806 2.53646 118.634 2.37895 118.517 2.36655C118.108 2.32541 118.251 2.5178 118.041 2.5178C117.464 2.51715 117.177 2.28487 116.637 2.30301C116.425 2.31027 116.452 2.45829 116.144 2.48136C115.753 2.51039 115.898 2.37384 115.619 2.36893C115.602 2.36833 115.657 2.47416 115.509 2.47843C114.556 2.50626 113.366 2.5897 112.447 2.58244C110.547 2.56791 108.67 2.364 106.899 2.32407C106.452 2.31439 106.571 2.45237 106.429 2.45902C105.745 2.49044 105.5 2.3254 104.785 2.38468C104.665 2.39439 104.186 2.58542 103.728 2.53703C103.481 2.51097 103.2 2.39181 102.989 2.36399C102.779 2.33617 102.745 2.51164 102.492 2.51176C102.03 2.51236 102.165 2.39074 101.505 2.41251C101.239 2.42098 100.352 2.58722 99.6685 2.57456C98.5509 2.554 97.1658 2.40211 95.8482 2.39969C95.3963 2.39848 94.8157 2.57879 94.115 2.58061C93.2585 2.58301 91.6802 2.54202 90.8024 2.53959C90.3536 2.53838 90.3211 2.34951 90.2677 2.34165C89.9244 2.28911 90.063 2.50012 89.8328 2.4918C89.5168 2.4803 89.2218 2.32465 88.9348 2.31436C88.7517 2.30778 88.7226 2.4633 88.683 2.46451C87.2142 2.51594 85.9165 2.50141 84.4569 2.51835C76.6291 2.60788 68.7265 2.80753 60.9139 2.71739C60.259 2.71013 60.2343 2.51405 59.6587 2.5449C59.0831 2.57515 58.5271 2.99863 58.0538 2.53098C58.0385 2.62536 58.04 2.69264 58.0248 2.77855C56.8355 2.64549 55.646 2.78322 54.4827 2.80016C53.6217 2.81285 52.8581 2.79781 52.0627 2.78752C51.3577 2.77781 51.4186 2.61338 50.8082 2.82799C47.7745 2.69369 44.7082 2.72639 41.7004 2.50315C40.995 2.85464 40.3189 2.63318 39.3433 2.58116C39.2228 2.57458 39.352 2.70282 38.9949 2.69194C38.5463 2.67854 38.3141 2.4826 37.5587 2.49345C37.3587 2.49647 35.8773 2.71371 35.3292 2.6024C34.7811 2.4911 33.9872 2.42577 33.4177 2.31931C33.4986 2.40339 33.6011 2.48382 33.6912 2.56669C33.4072 2.58121 33.1217 2.5952 32.8377 2.60972C32.7965 2.50869 32.7552 2.40758 32.7155 2.30594C32.5506 2.40213 32.3856 2.49713 32.2192 2.59452C31.8605 2.07552 32.2283 2.2448 31.4299 2.37607C31.0299 2.44141 30.7124 2.35073 30.3017 2.40336C30.1537 2.4227 30.059 2.57553 29.8959 2.59507C29.4959 2.64225 29.729 2.43191 29.482 2.43302C29.2331 2.43483 28.8758 2.66587 28.43 2.56303C28.8954 2.15113 27.5502 2.2855 27.4861 2.60551C27.3259 2.6061 27.1917 2.5928 27.0148 2.60185C27.1781 1.79361 26.3395 2.36717 26.0067 2.47788C25.6741 2.58843 25.6875 2.37127 25.6097 2.37973C25.3854 2.40334 25.5487 2.49351 25.3916 2.49656C24.3503 2.51471 23.3699 2.38213 22.3424 2.37003C22.1946 2.36831 22.3257 2.49103 22.1533 2.47898C21.9808 2.46688 21.8155 2.34471 21.5605 2.35318C21.4921 2.35533 21.4706 2.46313 21.364 2.46323C19.1303 2.45839 17.0095 2.36655 14.7315 2.35263C14.5254 2.35142 14.3636 2.5431 13.9652 2.53648C13.5667 2.52982 12.9622 2.35684 12.4676 2.34348C12.3363 2.33985 12.3006 2.49951 12.1266 2.49528C11.5343 2.48073 11.0241 2.35073 10.4089 2.32956C9.36928 2.2939 8.28082 2.3913 7.22597 2.29697C7.02599 2.27943 7.05795 2.14626 6.76953 2.10873C6.2718 2.044 6.4591 2.23818 6.35834 2.26419C6.02867 2.34822 5.92507 2.09014 5.60616 2.15652C5.5574 2.16679 5.62695 2.31984 5.5832 2.32224C4.90531 2.34886 4.86972 1.99014 4.14908 2.18252C3.50822 1.97628 4.57864 1.90602 4.68856 1.79653C4.95702 1.53038 4.24734 1.21763 3.82903 1.11719C3.46879 1.0307 3.47145 1.19639 3.32803 1.19647C2.56928 1.19708 1.43937 1.22858 0.862195 1.14996C0.512561 1.10278 1.14278 1.03375 0.96415 0.979304C0.787101 0.92493 0.67248 1.04946 0.490834 0.913384C0.309146 0.777265 -0.061492 0.37669 0.00874019 0.185519ZM63.7518 1.07727C62.5884 1.73061 59.5031 1.66236 57.8465 1.60005C56.4724 1.54802 55.2878 1.04462 55.5718 1.77419C57.0572 1.77902 58.2587 1.70585 59.8296 1.72823C59.9929 1.73065 60.9673 1.79834 61.3062 1.81044C61.497 1.81712 61.5031 1.93763 61.7627 1.93642C61.8192 1.93581 62.1323 1.77838 62.2468 1.78261C62.6391 1.79656 63.8057 2.03825 63.9686 2.03127C64.4203 2.01072 64.2469 1.8234 64.4419 1.78939C65.0968 1.67686 65.1691 1.95819 65.8179 1.86684C65.934 1.85051 66.3187 1.60534 66.7997 1.6374C66.9951 1.65074 67.328 1.77731 67.4776 1.77126C68.2929 1.73858 69.2029 1.57094 69.9495 1.59877C70.5615 1.62179 70.3969 1.81104 70.7206 1.83644C71.0442 1.86116 71.435 1.64168 71.6564 1.62898C72.0106 1.60907 72.4411 1.7337 72.551 1.73189C74.716 1.69498 76.6412 1.55045 78.7298 1.49842C77.3114 1.41191 75.8947 1.33252 74.4855 1.24298C73.6855 1.43899 74.0837 1.2552 73.5571 1.19409C73.1404 1.1457 73.0395 1.4777 72.4916 1.44093C72.4921 1.44093 72.4925 1.44093 72.493 1.44093C72.2105 1.42157 71.5983 1.19165 70.9967 1.28785C70.9753 1.29151 70.9218 1.46381 70.4714 1.46986C69.4592 1.48317 67.9083 1.57156 66.7693 1.53468C66.4349 1.52379 66.503 1.34282 66.1076 1.32044C65.8192 1.30425 65.485 1.47157 65.0334 1.43415C64.4669 1.38636 64.1952 1.09854 63.8058 1.49842C63.7738 1.35565 63.79 1.21641 63.7518 1.07727ZM32.465 1.42518C32.3854 1.40937 31.3199 0.963016 31.6359 1.43964C33.068 1.64654 34.6163 1.54377 36.1232 1.65993C35.6087 1.18865 34.7383 1.3744 33.6817 1.40888C33.6813 1.40888 33.6808 1.40888 33.6804 1.40888C33.6305 1.41049 33.839 1.28732 33.5555 1.30964C33.418 1.32052 32.891 1.50927 32.465 1.42518Z" fill="var(--stroke-0, #CEBD9D)"/>
</svg>
