<svg preserveAspectRatio="none" width="100%" height="100%" overflow="visible" style="display: block;" viewBox="0 0 24 24" fill="none" xmlns="http://www.w3.org/2000/svg">
<g id="keyboard_backspace_24dp_E8EAED_FILL0_wght100_GRAD0_opsz24 1">
<path id="Vector" d="M5.64961 12.3498L9.64961 16.3498C9.71628 16.4164 9.75378 16.4956 9.76211 16.5873C9.77044 16.6789 9.73294 16.7664 9.64961 16.8498C9.56628 16.9331 9.48294 16.9748 9.39961 16.9748C9.31628 16.9748 9.23294 16.9331 9.14961 16.8498L4.82461 12.5248C4.74128 12.4414 4.68294 12.3581 4.64961 12.2748C4.61628 12.1914 4.59961 12.0998 4.59961 11.9998C4.59961 11.8998 4.61628 11.8081 4.64961 11.7248C4.68294 11.6414 4.74128 11.5581 4.82461 11.4748L9.14961 7.14977C9.21628 7.0831 9.29544 7.0456 9.38711 7.03727C9.47878 7.02894 9.56628 7.06644 9.64961 7.14977C9.73294 7.2331 9.77461 7.31644 9.77461 7.39977C9.77461 7.4831 9.73294 7.56644 9.64961 7.64977L5.64961 11.6498H19.3496C19.4496 11.6498 19.5329 11.6831 19.5996 11.7498C19.6663 11.8164 19.6996 11.8998 19.6996 11.9998C19.6996 12.0998 19.6663 12.1831 19.5996 12.2498C19.5329 12.3164 19.4496 12.3498 19.3496 12.3498H5.64961Z" fill="var(--fill-0, #3B2F28)"/>
</g>
</svg>
