<svg preserveAspectRatio="none" width="100%" height="100%" overflow="visible" style="display: block;" viewBox="0 0 32 32" fill="none" xmlns="http://www.w3.org/2000/svg">
<g id="menu_24dp_E8EAED_FILL0_wght400_GRAD0_opsz24 (1) 2">
<path id="Vector" d="M16 4C9.39999 4 4 9.40963 4 16.0723C4 22.0964 8.39199 27.0964 14.128 28V19.5663H11.08V16.0723H14.128V13.4096C14.128 10.3855 15.916 8.72289 18.664 8.72289C19.972 8.72289 21.34 8.9518 21.34 8.9518V11.9277H19.828C18.34 11.9277 17.872 12.8554 17.872 13.8072V16.0723H21.208L20.668 19.5663H17.872V28C20.6997 27.5516 23.2746 26.103 25.1319 23.9157C26.9891 21.7284 28.0064 18.9465 28 16.0723C28 9.40963 22.6 4 16 4Z" fill="var(--fill-0, white)"/>
</g>
</svg>
