<svg preserveAspectRatio="none" width="100%" height="100%" overflow="visible" style="display: block;" viewBox="0 0 856.518 1292.67" fill="none" xmlns="http://www.w3.org/2000/svg">
<path id="Vector 13" opacity="0.5" d="M297.173 753.274C335.476 761.826 375.124 770.772 415.147 781.073C467.765 794.684 520.899 810.991 570.848 832.286C586.318 838.884 602.286 844.321 618.608 849.444C631.141 853.362 629.941 854.448 633.474 855.713C643.167 859.181 649.761 859.481 657.234 862.204C667.494 866.04 678.076 870.16 688.943 877.71C709.631 892.454 729.729 906.892 750.238 922.711C763.502 932.986 767.439 937.695 768.6 940.155C769.451 942.631 766.936 942.833 771.529 946.895C789.774 961.155 776.146 945.688 784.645 949.462C806.814 961.198 836.797 986.76 842.823 1017.78C842.858 1018.11 843.56 1020.13 844.159 1021.85C843.386 1020.19 842.518 1018.25 842.294 1017.93C840.328 1012.38 837.93 1006.89 834.99 1001.59C837.664 1007.2 839.823 1014.07 840.682 1018.38C840.666 1018.65 840.831 1019.42 840.905 1019.92C840.997 1020.47 841.012 1020.83 840.93 1020.95C840.849 1021.07 840.65 1020.9 840.351 1020.48C840.196 1020.26 840.015 1019.96 839.83 1019.65C839.638 1019.32 839.436 1018.94 839.309 1018.77C838.688 1017.18 837.928 1015.21 836.8 1012.53C837.399 1014.79 837.84 1016.86 838.263 1019.07C838.343 1020.27 839.192 1023.13 839.892 1025.7C842.659 1026.04 849.405 1048.89 850.654 1050.74C852.382 1052.62 849.098 1039.63 849.12 1039.72C852.469 1040.31 857.534 1094 856.34 1097.59C856.205 1107.62 853.384 1098.92 853.73 1107.39C853.953 1114.44 855.192 1115.72 855.708 1117.54C856.143 1119.61 856.25 1122.6 850.882 1133.14C851.366 1141.98 850.124 1142.72 846.054 1152.73C845.48 1154.05 847.122 1153.53 846.905 1154.13C840.674 1169.52 844.022 1156.95 843.844 1157.02C841.451 1157.6 833.691 1172.67 831.191 1175.21C820.526 1188.08 809.499 1197.33 800.464 1207.02C786.095 1222.9 769.689 1235.54 754.007 1252.97C752.471 1254.75 750.822 1256.47 749.071 1258.13C742.258 1266.08 716.478 1280.47 708.652 1284.49C706.634 1285.52 705.362 1286.06 704.492 1286.31C702.451 1287.03 702.219 1286.5 701.706 1286.27C701.218 1285.98 700.6 1285.79 698.735 1285.89C691.581 1291.23 683.816 1291.63 667.095 1290.37C664.197 1292.08 662.945 1292.4 661.174 1292.6C661.103 1292.61 660.888 1292.64 660.816 1292.65C657.092 1292.79 654.604 1291.78 648.378 1290.77C638.431 1289.16 619.798 1287.18 611.86 1284.47C621.925 1285.33 622.062 1284.51 635.855 1286.77C638.206 1286.89 647.42 1290.48 660.589 1290.87C660.635 1290.87 660.77 1290.85 660.815 1290.84C673.976 1288.5 689.208 1287.59 686.888 1285.91C684.859 1284.58 668.503 1286.88 667.855 1286.76C663.961 1285.46 673.137 1282.66 681.29 1282.94C679.29 1283.39 676.863 1283.86 674.696 1284.33C693.117 1285.2 679.975 1278.42 694.278 1283.92C696.082 1284.51 695.517 1285.52 698.561 1285.87C699.066 1285.4 695.441 1285.15 698.374 1284.43C699.536 1284.11 701.171 1284.03 702.768 1283.38C705.04 1282.42 707.221 1281.53 707.243 1280.5C707.287 1279.26 704.637 1280.37 701.897 1281.9C699.562 1283.05 696.045 1283.55 695.626 1283.59C695.618 1283.6 695.61 1283.61 695.602 1283.63C689.085 1283.49 698.253 1282.61 701.277 1280.84C702.627 1279.98 703.652 1279.35 703.809 1279.2C707.912 1275.36 704.167 1276.27 710.829 1271.36C714.669 1268.57 725.055 1263.3 728.384 1260.86C731.743 1258.48 725.815 1261.06 728.028 1259.4C730.226 1257.75 733.445 1256.48 735.747 1254.35C736.724 1253.44 735.957 1252.61 736.418 1252.18C741.146 1247.45 739.531 1252.17 743.731 1247.66C744.152 1247.18 744.682 1246.48 745.232 1245.65C748.714 1240.56 754.144 1232.57 747.562 1238.84C750.916 1234.81 754.294 1231.13 757.702 1227.45C755.237 1229.45 752.761 1231.65 750.29 1233.68C757.359 1227.08 759.022 1222.85 763.019 1218.63C767.001 1214.44 772.25 1212.41 775.687 1207.11C783.018 1195.89 761.282 1220.31 757.626 1223.06C756.338 1224.11 759.554 1218.35 760.189 1217.65C763.064 1214.46 767.478 1211.83 769.671 1209.47C775.549 1203.14 778.813 1198.03 782.728 1192.33C784.308 1190.09 786.011 1187.88 787.925 1185.61C807.68 1163.58 824.536 1141.2 823.287 1117.28C823.2 1106.82 822.758 1096.92 821.996 1087.89C820.906 1075.18 821.561 1067.43 820.525 1061.91C817.846 1049.07 815.814 1048.14 812.228 1037.74C811.248 1034.93 810.406 1033.28 808.633 1027.43C805.383 1013.67 797.417 1001.25 788.911 994.489C782.195 988.826 773.238 985.587 770.88 984.168C763.518 979.847 754.675 975.082 745.536 967.56C722.065 948.824 693.649 929.118 673.522 915.01C670.9 913.186 668.624 911.508 666.603 909.952C661.643 906.035 657.706 903.29 655.839 902.483C644.754 898.226 647.145 900.911 637.506 897.484C632.182 895.68 631.543 893.952 630.845 893.67C624.507 891.206 622.59 892.671 617.417 891.177C596.599 885.222 575.732 878.106 555.364 869.052C547.076 865.364 538.682 861.822 530.135 858.49C528.072 857.686 528.592 856.965 527.244 856.502C521.472 854.557 523.635 856.807 517.645 854.705C505.154 850.359 492.371 845.749 479.014 841.284C477.698 840.845 477.402 839.587 474.385 838.632C471.316 837.665 468.704 837.942 463.922 836.415C451.388 832.421 439.318 827.62 425.851 823.849C423.635 823.23 420.521 823.761 417.185 822.85C413.609 821.874 409.489 820.625 405.189 819.304C396.98 816.778 388.301 814.043 382.324 812.532C352.402 804.98 324.386 799.327 295.9 792.924C289.206 791.419 283.533 788.889 280.058 788.085C272.206 786.273 277.882 788.729 269.922 786.967C239.316 780.181 208.664 773.452 177.783 766.308C148.208 758.913 121.065 754.709 87.9806 741.599C82.9119 739.226 77.4278 736.772 71.8826 734.099C54.0795 725.165 28.8309 713.616 15.6706 686.546C12.4773 679.709 9.22452 672.814 6.44609 665.707C2.27062 654.516 3.02936 651.653 1.25615 642.164C-0.577078 625.535 -1.67739 618.214 7.38652 602.137C6.36096 603.714 6.41555 603.862 6.37674 603.864C7.02034 602.047 9.21611 594.659 11.5851 588.434C14.3289 581.8 16.2444 574.88 24.0128 565.605C24.9573 564.564 26.028 563.513 27.2107 562.526C34.508 556.079 37.0687 551.368 45.3468 542.713C52.7207 535.168 62.9042 524.166 74.3151 514.189C78.4392 510.661 83.3055 507.072 89.1815 504.198C104.291 496.741 119.149 489.015 133.773 480.921C162.626 464.167 195.735 449.934 229.001 441.154C274.561 428.483 321.498 414.154 369.313 402.682C377.409 400.719 385.561 398.926 393.777 397.327C411.611 393.738 431.055 391.261 448.216 388.343C473.029 384.109 495.446 383.009 516.326 379.269C519.848 378.621 514.983 381.885 526.052 378.652C526.411 378.543 526.778 378.425 527.152 378.299C533.247 376.257 541.349 372.511 554.692 368.299C567.729 364.175 580.223 359.905 593.699 354.955C609.407 349.482 624.017 345.711 636.736 340.141C664.42 328.212 691.188 318.167 716.333 304.814C737.698 293.816 759.988 276.272 762.072 260.893C763.085 253.742 763.8 246.514 764.244 239.302C765.23 222.603 765.036 202.417 761.59 190.767C755.928 172.585 750.335 160.431 739.467 150.057C714.759 125.684 691.218 104.55 663.231 89.4699C629.099 70.8407 593.213 46.1362 566.767 31.815C552.342 25.6975 539.295 18.9107 527.471 14.5298C519.404 11.6735 510.705 9.27849 502.125 7.1427C496.666 5.83063 499.805 1.13076 503.43 0C506.582 1.2154 509.438 2.65324 512.627 4.13273C517.25 -1.03183 516.837 -0.32371 529.924 2.77299C530.606 2.94759 531.331 3.13847 532.096 3.34517C541.378 6.06438 534.555 1.60337 539.803 2.29486C546.75 3.05128 577.769 11.3531 570.648 12.9766C571.569 12.9784 572.46 12.974 573.34 12.9652C574.489 12.9628 575.626 12.9804 576.808 13.0333C598.897 22.0582 617.841 33.9431 638.033 44.1639C641.505 45.9832 642.285 44.9813 645.867 46.8627C655.539 51.9313 662.456 56.9531 672.159 62.4744C674.372 63.7329 675.948 64.3282 677.549 64.909C679.719 65.7025 681.899 66.4375 685.873 68.9522C692.749 73.4143 691.521 74.8307 701.884 79.5576C697.524 73.0487 722.625 94.3435 730.616 102.407C731.864 103.487 743.224 111.354 748.05 116.675C751.302 120.203 755.292 125.29 759.991 130.521C762.607 133.415 765.258 136.495 767.937 139.655C771.63 144.077 775.04 146.223 778.095 151.819C780.224 155.773 780.942 161.246 782.68 166.287C784.307 170.807 787.851 179.372 789.003 182.262C789.206 182.812 789.349 183.252 789.433 183.547C791.574 192.274 788.394 183.013 789.55 188.774C793.29 214.401 790.79 240.935 788.315 264.633C788.254 265.137 788.186 265.638 788.11 266.136C787.491 269.839 789.719 264.958 789.647 265.424C787.856 278.438 785.342 280.467 785.009 280.957C784.408 281.33 784.513 279.656 782.525 282.211C780.716 284.796 773.779 295.018 765.962 302.561C758.294 310.307 750.48 316.442 751 317.462C748.435 315.956 742.388 322.511 740.455 323.734C734.28 327.784 733.46 326.292 729.24 328.521C728.442 328.934 727.522 329.476 726.417 330.202C723.874 331.865 729.832 330.512 726.942 332.005C719.775 335.685 712.179 336.633 702.511 340.919C700.179 341.944 699.91 343.355 695.77 345.211C691.62 347.12 673.727 353.39 682.697 352.129C671.425 354.921 669.694 356.772 657.643 361.958C655.32 362.961 652.056 363.2 647.927 364.789C646.534 365.334 645.043 365.986 643.446 366.802C641.169 367.954 641.906 369.609 638.329 371.005C630.158 374.16 621.912 374.812 611.998 377.987C608.992 378.954 606.009 379.974 603.089 381.066C587.56 387.124 570.682 393.703 553.931 398.263C548.464 399.742 549.334 397.624 541.426 399.835C540.753 400.025 537.546 401.454 533.833 402.886C530.962 403.989 527.806 405.039 525.357 405.55C521.913 406.423 504.01 408.718 500.464 409.069C494.568 409.843 493.776 411.7 490.52 411.817C481.138 412.106 488.191 408.559 477.613 413.511C473.732 412.053 467.405 413.118 465.03 411.05C462.278 413.675 458.263 412.867 453.04 413.833C451.941 414.037 450.788 414.302 449.583 414.665C442.382 416.827 437.208 422.752 434.604 417.623C431.298 418.796 417.214 422.262 414.882 422.808C407.885 424.327 411.372 422.138 406.108 423.357C405.192 423.577 406.347 424.381 400.377 425.5C397.903 425.944 385.598 428.577 376.467 430.873C371.075 432.205 366.766 433.284 366.125 433.396C349.893 436.286 366.948 431.931 376.023 429.122C378.105 428.474 379.712 427.925 380.462 427.526C381.28 427.629 382.071 427.74 382.934 427.832C391.662 426.269 386.22 425.137 382.175 425.55C380.377 425.732 377.957 426.405 375.514 427.117C372.511 427.99 369.521 428.89 367.612 428.945C365.891 428.993 366.195 426.007 371.201 425.074C365.726 425.585 372.684 422.857 370.401 422.603C367.875 422.289 344.144 428.276 344.423 429.835C348.862 428.692 354.322 427.182 358.818 426.068C365.315 427.149 349.99 440.623 332.86 441.564C320.421 442.268 339.195 434.809 312.027 444.756C316.337 443.648 319.996 442.881 323.918 441.902C324.87 443.73 317.973 443.356 314.916 444.888C313.443 445.628 323.415 444.303 315.226 447.104C307.271 446.356 302.547 450.715 290.545 454.205C293.754 452.746 296.94 451.298 300.144 449.846C279.258 453.658 326.234 439.469 286.429 449.674C291.147 448.217 295.881 446.882 300.628 445.377C298.035 445.018 300.865 440.977 298.623 440.935C292.709 440.834 284.929 444.155 278.258 445.923C275.351 446.696 276.911 445.373 276.666 445.438C272.642 446.503 273.907 447.418 270.411 448.508C266.051 449.872 253.047 452.353 251.027 453.058C245.823 454.89 255.341 454.721 254.862 455.042C251.784 457.144 244.587 458.146 245.358 459.524C261.824 453.853 310.143 441.219 267.422 456.211C280.098 455.139 277.59 459.445 260.413 464.648C246.147 468.931 255.006 464.997 247.132 465.638C246.642 465.674 241.343 466.912 236.184 468.211C231.279 469.44 226.549 470.929 226.215 471.577C226.278 468.989 219.537 468.742 222.917 465.079C223.406 464.522 231.284 462.431 227.994 461.248C226.35 460.641 221.767 459.663 222.032 458.229C220.664 459.578 219.254 461.07 217.899 462.48C206.242 466.445 204.331 466.2 197.384 466.926C197.922 467.483 204.766 468.091 195.615 470.549C195.15 470.674 194.364 469.807 189.7 471.088C180.29 473.756 178.229 474.357 183.995 468.533C165.996 478.128 160.433 477.076 142.645 487.799C148.188 489.439 153.883 484.788 170.861 475.977C172.004 476.502 172.748 477.201 173.924 477.727C150.214 486.593 161.479 481.487 149.753 489.757C148.505 490.659 144.616 492.807 141.284 494.824C136.997 497.409 133.46 499.846 137.209 499.574C137.909 499.521 140.284 498.416 142.636 497.326C145.549 495.974 148.498 494.617 148.116 495.462C148.082 495.571 145.839 496.953 143.257 498.475C139.742 500.542 135.468 502.914 134.776 503.109C119.641 507.315 143.103 493.011 105.927 513.003C104.899 513.545 105.048 514.776 103.07 515.92C99.5961 517.923 98.8075 517.004 96.0124 518.462C95.8029 518.57 95.5839 518.692 95.3542 518.83C91.6761 520.996 88.2451 525.567 82.7547 528.241C75.3402 532.359 82.4147 521.437 94.5751 515.461C97.8252 513.933 101.028 512.596 103.604 511.775C104.162 510.385 100.202 511.5 93.8381 513.922C69.4339 525.188 43.8663 560.176 39.9591 561.392C25.481 576.049 50.6202 552.858 52.3864 551.955C53.2279 551.75 57.2685 556.252 60.6478 547.107C61.6265 544.428 52.9652 551.293 57.0204 546.148C61.0755 540.96 60.5608 544.041 60.9787 543.782C62.4069 542.882 66.7511 537.276 67.5903 536.755C80.3136 529.011 83.2842 533.904 64.3153 541.791C60.1508 549.027 75.1368 537.463 69.162 545.74C61.9251 555.86 53.5429 560.244 52.3681 561.186C37.8526 572.623 56.4308 561.425 38.474 575.251C38.2755 575.396 38.0889 575.53 37.9139 575.654C36.1912 576.944 35.7577 577.385 35.7466 577.042C35.7562 576.724 36.3183 575.724 37.1754 574.749C38.9358 572.639 41.0441 570.247 36.4483 573.857C34.525 575.335 32.2851 578.081 30.3416 582.256C21.8831 605.838 28.1814 593.493 30.3972 596.082C31.0015 596.708 28.3177 609.392 32.8919 592.371C32.2644 591.654 31.5315 590.425 31.203 589.1C33.1542 584.905 40.2239 580.851 41.2189 580.602C41.3837 580.473 41.536 580.363 41.6761 580.269C50.229 573.813 48.5937 572.53 55.1698 569.791C49.7129 571.127 56.6936 566.912 58.4191 564.371C64.7241 554.979 54.1471 564.942 73.1259 548.891C70.003 550.35 67.0902 551.616 64.022 552.977C66.0291 550.812 68.0169 548.627 69.9943 546.448C75.0599 545.101 85.4609 533.766 77.8698 545.814C89.978 533.992 94.3838 530.579 96.1943 526.875C96.4374 526.382 97.4999 525.546 99.0113 524.725C99.6829 524.364 100.408 523.991 101.184 523.605C100.398 523.297 98.9194 521.888 99.2432 521.472C102.169 517.786 109.629 518.092 108.216 520.297C110.138 519.429 111.672 518.755 112.211 518.526C115.662 517.054 109.628 521.408 112.535 520.442C113.494 520.135 122.814 515.166 123.215 515.508C125.78 517.731 109.304 523.785 141.182 509.281C140.571 506.337 126.499 514.401 128.766 509.724C131.187 504.742 141.298 504.433 141.115 499.889C142.084 500.13 142.631 500.471 143.556 500.84C143.797 500.668 144.033 500.501 144.264 500.339C155.105 492.682 156.891 495.494 160.914 494.222C168.707 491.427 203.217 476.037 170.999 487.31C175.377 484.895 179.967 482.673 184.43 480.489C187.892 485.781 184.007 484.15 206.504 476.808C211.496 475.267 213.922 477.279 217.794 472.687C218.085 475.802 232.192 469.6 233.723 469.658C243.061 469.495 211.718 482.151 205.907 478.818C201.244 482.806 200.295 480.117 194.435 482.827C186.042 486.83 185.105 487.79 174.23 490.521C165.533 497.36 213.557 475.004 185.567 491.103C179.366 494.721 166.99 501.342 150.264 511.444C137.17 519.137 121.484 527.721 104.556 536.304C90.7527 543.917 71.3569 572.594 49.4688 589.827C50.1969 589.245 50.0789 589.248 49.8468 589.685C49.5972 590.118 49.1879 590.927 48.7803 591.908C47.948 593.892 47.1051 596.513 46.3325 599.308C45.5521 602.117 44.8299 605.124 44.0183 608.386C43.6058 610.031 43.1803 611.728 42.5994 613.716C42.3022 614.721 41.9853 615.758 41.4901 617.107C40.926 618.51 40.5722 619.832 38.6222 622.915C31.7664 631.523 40.2378 648.977 44.5678 658.717C46.4158 662.741 48.345 666.776 50.2496 670.828C58.6257 687.485 82.3292 697.335 104.144 707.124C125.209 715.33 154.916 721.07 186.409 728.563C190.798 729.571 195.449 730.63 200.124 731.69C207.084 733.302 260.276 744.715 248.519 745.623C246.803 745.747 223.7 741.988 242.713 748.92C239.066 746.497 250.832 748.036 251.817 748.082C274.859 749.298 262.18 745.517 297.173 753.274ZM393.483 807.194C348.539 795.262 381.163 805.682 370.561 808.376C376.363 809.802 382.093 811.229 387.877 812.693C386.442 812 384.999 811.308 383.576 810.621C383.569 810.619 383.563 810.618 383.556 810.616C386.845 809.465 390.199 808.335 393.483 807.194ZM739.74 1242.83C739.877 1242.36 740.006 1241.88 740.129 1241.4C740.659 1240.04 741.224 1238.67 741.863 1237.25C746.492 1232.33 751.133 1227.92 755.697 1223.63C755.497 1224.48 755.314 1225.33 755.116 1226.18C750.278 1231.04 745.36 1236.06 740.612 1241.8C740.325 1242.15 740.035 1242.49 739.74 1242.83ZM109.094 508.238C117.701 506.043 115.498 503.413 126.426 499.491C124.031 497.938 121.521 496.5 119.086 494.988C111.507 499.281 110.158 501.02 101.387 504.665C102.732 504.895 104.099 505.117 105.422 505.359C106.767 504.503 108.179 503.584 109.484 502.762C112.675 503.68 99.1901 510.727 109.069 508.256C109.077 508.25 109.085 508.244 109.094 508.238ZM189.395 467.375C193.941 465.778 212.23 460.679 214.416 459.031C221.676 452.627 171.479 472.692 207.992 456.513C207.664 456.107 207.686 455.594 207.534 455.134C200.558 457.268 193.621 459.63 186.736 462.216C187.815 463.864 188.274 465.732 189.395 467.375ZM229.188 769.636C222.165 767.829 188.199 761.957 198.67 766.549C201.793 767.913 217.452 768.145 223.148 769.539C226.808 770.436 222.294 771.216 229.738 772.204C229.582 771.387 229.569 770.517 229.167 769.637C229.174 769.637 229.181 769.636 229.188 769.636ZM244.569 762.7C237.225 761.398 229.723 760.148 222.325 758.851C227.252 761.961 238.067 763.044 238.097 765.894C236.048 765.659 233.994 765.421 231.955 765.188C230.569 764.26 229.161 763.328 227.78 762.401C221.188 762.492 224.801 764.06 213.173 761.042C219.375 766.714 220.219 769.211 241.197 769.48C236.91 770.869 238.896 778.906 251.163 776.178C253.464 775.677 244.889 773.113 244.837 772.941C243.922 770.743 249.004 770.589 247.968 768.475C247.504 767.52 242.201 766.365 241.649 765.06C241.398 764.427 246.819 763.973 244.569 762.7ZM256.966 775.555C254.456 776.21 261.561 780.646 268.36 781.571C278.998 783.027 263.1 776.771 256.966 775.555ZM739.721 1242.86C739.727 1242.85 739.734 1242.84 739.74 1242.83C739.739 1242.84 739.737 1242.84 739.735 1242.85C739.731 1242.85 739.726 1242.86 739.721 1242.86ZM166.107 476.013C170.808 472.635 178.58 469.418 177.398 468.2C180.06 467.393 182.78 466.59 185.466 465.841C185.262 465.406 185.033 464.98 184.83 464.549C176.952 467.42 169.189 470.55 161.512 473.945C163.026 474.636 164.451 475.38 166.107 476.013ZM251.135 447.84C260.946 445.215 252.157 445.46 254.016 443.841C255.849 442.23 264.799 440.545 263.352 439.396C257.582 440.995 251.612 442.645 245.777 444.231C247.777 445.368 249.252 446.683 251.155 447.834C251.148 447.836 251.142 447.838 251.135 447.84ZM572.648 867.838C566.66 865.068 569.07 864.529 558.498 861.61C557.721 861.396 556.862 861.167 555.906 860.919C555.915 860.923 555.924 860.927 555.934 860.931C556.701 861.35 557.474 861.773 558.251 862.197C569.672 868.392 584.415 874.696 597.723 877.636C589.791 873.242 582.862 872.441 572.648 867.838ZM83.9424 515.964C82.6274 518.021 87.8243 514.877 93.1457 512.476C95.3683 511.465 97.383 510.33 98.1226 509.5C100.241 507.124 96.1652 508.089 91.9678 510.016C88.3905 511.658 85.1766 514.127 83.9424 515.964ZM814.819 995.379C824.347 1002.55 816.851 979.967 796.467 969.398C794.891 968.367 805.494 977.796 801.642 975.921C801.288 975.669 795.132 971.097 793.239 970.591C791.367 970.038 792.285 972.189 789.448 971.013C784.492 968.936 775.161 961.452 771.22 960.405C770.673 960.286 776.038 965.621 776.418 965.908C782.384 970.67 789.726 972.572 790.715 973.241C795.784 976.528 793.95 977.534 794.935 978.739C796.77 981.003 801.071 983.512 801.288 983.807C807.016 990.736 791.82 977.366 788.832 976.746C781.563 974.181 786.847 979.27 770.709 970.723C769.184 969.967 751.018 958.433 772.849 974.337C761.199 968.669 756.265 965.711 756.2 966.193C756.072 966.61 760.692 970.108 766.862 973.811C779.651 981.04 795.373 991.111 797.916 993.647C800.614 995.653 798.132 990.896 800.145 991.759C804.928 993.684 810.269 1000.17 811.785 998.152C815.13 993.6 804.82 986.571 798.958 981.17C800.328 980.816 801.287 980.161 803.245 980.357C800.749 979.607 814.658 994.531 814.81 995.386C814.813 995.383 814.816 995.381 814.819 995.379ZM708.344 922.28C699.905 914.327 698.668 917.49 691.165 909.906C681.875 906.992 696.949 917.335 698.573 918.709C706.077 924.954 704.019 927.428 712.63 932.415C710.995 928.889 709.841 925.695 708.344 922.28ZM789.151 981.27C782.203 978.569 792.95 985.841 793.003 986.482C796.059 992.157 763.847 970.486 789.151 981.27ZM186.86 753.442C183.041 752.46 185.108 754.565 181.656 754.262C181.35 754.236 180.983 754.181 180.572 754.103C176.244 753.286 166.978 750.065 167.031 751.003C167.156 752.06 187.64 759.424 166.314 755.079C166.904 755.789 166.569 756.138 166.803 756.71C170.983 757.69 175.082 758.648 179.31 759.628C180.964 760.011 182.647 760.4 184.357 760.792C182.837 759.584 181.332 758.355 179.877 757.145C178.492 756.03 177.15 754.932 175.874 753.88C178.155 753.551 179.613 754.297 180.397 754.869C180.801 755.173 181.018 755.429 181.078 755.442C181.078 755.441 181.079 755.439 181.079 755.437C187.248 756.714 195.323 755.609 186.86 753.442ZM483.723 831.367C486.063 827.921 475.967 829.369 472.246 828.741C468.502 828.089 464.022 825.183 465.369 827.389C470.825 830.272 483.476 831.743 483.725 831.362C483.724 831.364 483.724 831.366 483.723 831.367ZM656.987 889.562C647.886 887.122 649.039 888.642 638.349 883.923C638.481 884.977 638.619 886.056 638.758 887.098C647.419 889.969 647.837 887.024 657.109 891.841C658.576 892.671 654.533 893.304 661.578 895.621C660.148 893.65 658.586 891.549 656.987 889.562ZM610.953 878.459C621.657 881.55 632.282 876.596 611.733 874.06C608.675 873.675 602.898 876.104 610.953 878.459ZM286.585 775.344C268.258 771.033 288.869 776.909 293.378 779.154C250.408 770.559 298.285 779.894 301.663 784.77C307.128 784.835 317.477 784.517 306.774 781.38C302.314 780.076 303.701 781.608 303.431 781.542C295.153 779.377 296.59 777.705 286.585 775.344ZM724.594 933.798C723.988 933.427 724.073 935.159 722.11 934.058C720.126 932.937 716.565 929.189 715.67 929.564C714.772 929.935 722.663 936.464 725.538 937.839C728.401 939.191 730.069 937.172 724.594 933.798ZM667.445 890.335C658.831 887.295 670.049 898.109 671.114 899.124C671.951 899.63 672.647 900.059 673.22 900.403C677.859 903.254 676.878 901.447 674.52 898.526C672.149 895.233 666.882 890.929 667.445 890.335ZM331.106 776.77C308.396 774.162 323.635 782.123 336.875 787.888C338.824 787.793 340.82 787.708 342.739 787.613C333.7 788.848 318.449 788.564 351.423 793.372C333.9 788.473 348.924 791.102 349.075 790.951C352.403 785.595 325.502 782.188 331.126 776.775C331.119 776.773 331.112 776.772 331.106 776.77ZM747.949 953.223C749.5 954.447 751.613 956.078 753.773 957.772C763.523 965.429 776.63 971.251 769.433 964.603C764.412 962.435 759.365 960.05 754.437 956.983C752.332 955.724 750.144 954.462 747.949 953.223ZM22.2319 631.496C23.5981 625.887 25.1393 621.397 28.5262 616.199C30.4254 613.02 30.634 611.378 31.3026 609.267C28.9441 613.581 27.3718 614.762 27.5779 613.556C27.6961 612.438 28.297 610.07 28.4676 608.495C28.7723 604.684 27.4179 610.95 25.3736 614.102C25.0388 614.571 24.8291 614.872 24.8026 614.862C24.3831 614.542 24.2919 613.916 24.2709 613.369C24.2871 612.441 24.2862 611.854 23.5174 612.867C22.8083 613.787 20.9734 615.993 19.0918 621.56C19.5367 618.259 20.4997 614.97 21.9057 611.795C22.0519 611.351 22.1892 610.753 22.3054 610.122C22.0622 610.729 21.7956 611.269 21.5739 611.574C15.6231 620.941 14.1372 624.259 12.2329 632.43C16.7049 624.127 12.7914 635.428 17.2061 644.098C19.1565 648.207 20.885 634.692 22.2325 631.47C22.2323 631.479 22.2321 631.488 22.2319 631.496ZM308.391 770.77C305.958 770.959 303.647 771.437 301.264 771.744C298.848 771.281 296.418 770.807 293.998 770.345C293.84 769.657 293.737 768.952 293.525 768.277C290.4 767.388 291.444 768.53 290.482 768.4C290.482 768.397 290.483 768.394 290.484 768.39C276.713 766.521 271.226 765.175 261.066 760.914C260.646 762.819 260.225 764.723 259.804 766.628C262.208 766.969 264.65 767.322 267.079 767.674C268.568 766.93 270.057 766.185 271.548 765.442C274.18 766.617 276.78 767.782 279.404 768.958C281.695 769.081 284.428 769.283 286.414 769.349C296.204 777.118 272.075 767.947 271.346 770.11C270.901 771.495 296.013 777.021 299.853 776.866C300.406 776.84 295.867 771.656 304.593 775.789C305.96 776.44 304.52 785.114 315.993 780.426C317.628 779.763 313.911 773.319 308.391 770.77ZM217.725 747.764C230.631 756.394 179.816 738.989 201.296 748.521C194.303 749.601 195.527 749.842 201.473 753.519C201.99 753.845 197.405 753.548 197.745 753.716C203.496 756.299 210.94 757.262 210.514 759.521C212.157 759.76 213.713 759.993 215.384 760.237C209.036 756.615 220.17 757.589 224.783 756.734C226.874 756.348 222.522 755.126 224.292 754.775C224.969 754.654 230.931 756.509 231.37 755.829C232.245 754.266 228.936 751.165 222.658 748.484C222.658 748.482 222.658 748.481 222.659 748.479C221.007 748.23 219.402 748.015 217.725 747.764ZM516.613 829.172C517.935 832.95 526.899 837.038 508.534 832.182C509.223 833.069 509.903 833.948 510.604 834.842C513.641 835.848 516.562 836.83 519.623 837.883C531.939 832.553 544.94 848.682 536.594 838.513C535.712 837.417 528.26 835.453 535.997 836.325C535.989 836.32 535.98 836.315 535.971 836.309C525.92 833.151 524.327 833.759 516.613 829.172ZM449.104 809.909C424.177 809.478 480.039 822.81 471.319 818.52C470.562 818.062 446.473 812.392 449.104 809.909ZM633.672 867.408C623.307 864.156 621.641 867.347 622.307 868.872C622.979 870.404 630.533 871.333 631.395 871.807C634.233 873.36 627.682 871.829 631.35 873.889C632.588 874.509 650.141 881.409 650.953 881.661C655.775 882.477 650.096 877.376 651.504 877.524C656.158 877.959 661.378 881.639 663.203 880.749C667.154 878.763 654.949 877.618 653.148 877.142C647.574 875.366 648.636 873.788 644.591 872.076C640.537 870.385 637.631 870.158 634.014 868.916C632.81 868.504 634.197 867.58 633.672 867.408ZM597.346 864.002C608.846 864.977 583.805 853.663 580.693 852.977C571.076 851.412 591.711 863.66 597.346 864.002ZM251.281 763.845C261.791 764.18 238.633 757.474 231.743 756.754C232.784 757.807 247.677 763.733 251.281 763.845ZM337.243 778.198C327.851 776.647 339.148 783.722 346.873 785.466C352.049 783.738 347.665 783.288 342.643 781.997C337.63 780.709 344.578 779.418 337.243 778.198ZM735.096 928.879C733.497 927.549 705.304 910.148 720.126 922.043C721.295 922.928 740.147 936.258 741.805 937.028C745.141 938.428 739.312 932.139 735.096 928.879ZM382.624 784.644C377.151 785.852 372.322 784.65 376.143 788.572C376.15 788.574 376.156 788.576 376.163 788.577C363.579 786.442 364.418 780.542 361.705 780.023C352.256 778.239 360.134 784.462 353.952 784.429C367.876 786.387 363.31 788.238 373.606 790.91C375.926 791.509 385.609 792.13 387.224 791.44C388.837 790.744 384.854 786.471 382.624 784.644ZM772.345 956.299C763.92 949.81 753.898 946.459 765.5 956.194C771.504 960.692 777.695 960.287 772.345 956.299ZM209.406 475.044C207.503 474.587 205.485 474.187 203.45 473.813C207.194 472.189 210.964 470.622 214.782 469.111C211.801 470.428 208.857 471.772 205.904 473.164C213.279 470.979 217.133 471.757 209.425 475.038C209.418 475.04 209.412 475.042 209.406 475.044ZM474.821 410.782C478.361 411.334 484.708 407.327 483.818 407.196C477.113 406.243 469.909 410.02 474.821 410.782ZM238.424 751.246C226.005 748.06 233.49 754.938 241.115 756.976C236.647 754.992 245.491 753.058 238.424 751.246ZM380.462 427.526C379.236 427.374 378.037 427.22 376.682 427.108C380.71 426.727 381.514 426.965 380.462 427.526ZM733.525 922.126C732.179 920.632 720.544 911.811 718.667 911.08C714.746 909.524 722.36 918.438 728.232 921.653C728.903 922.023 734.872 923.598 733.5 922.107C733.508 922.113 733.517 922.12 733.525 922.126ZM226.226 471.718C226.191 471.677 226.189 471.629 226.215 471.577C226.214 471.624 226.232 471.668 226.226 471.718ZM751.233 317.582C751.118 317.567 751.036 317.529 751 317.462C751.07 317.503 751.169 317.529 751.233 317.582ZM644.848 864.948C641.579 858.791 630.052 858.017 637.848 862.901C638.293 863.166 643.72 864.573 644.848 864.948Z" fill="var(--stroke-0, white)"/>
</svg>
