<svg preserveAspectRatio="none" width="100%" height="100%" overflow="visible" style="display: block;" viewBox="0 0 4 354" fill="none" xmlns="http://www.w3.org/2000/svg">
<path id="Vector 102" d="M3.97966 3.37187C4.03177 5.35559 3.97605 7.95592 3.89958 9.93214C3.87587 10.5515 3.76985 10.2379 3.7487 10.6654C3.70748 11.5016 3.75948 12.2806 3.71037 13.1069C3.69358 13.3808 3.52565 13.0399 3.51189 13.3271C3.43767 14.9006 3.48045 16.3892 3.44475 17.9833C3.26863 25.8349 3.20559 33.5529 3.12908 41.5006C3.10399 44.1211 2.95159 47.3068 3.01824 50.0135C3.02617 50.3295 3.17357 50.1411 3.18572 50.2012C3.3717 51.1442 3.07413 50.8307 3.0346 51.4463C2.87849 53.8898 2.86492 56.607 2.9218 58.9586C2.94644 59.9591 3.23921 58.956 3.07488 59.9633C3.06378 60.0333 2.90725 59.7794 2.89055 60.0538C2.853 60.676 2.88098 61.8564 2.86858 62.3387C2.84389 63.268 2.84546 63.4218 2.84368 64.3008C2.83988 65.5025 2.76207 66.9317 2.79754 68.221C2.80557 68.4962 2.96603 68.1319 2.99334 68.5708C3.0206 69.0101 3.00699 70.1722 2.96917 70.564C2.93132 70.9559 2.8052 70.789 2.7763 70.8584C2.5323 71.4289 2.87023 72.7732 2.87859 72.9461C3.02099 76.0997 2.82848 78.8041 2.82903 81.7643C2.82985 84.0115 2.89341 86.4145 2.88469 88.5527C2.87369 91.1003 2.78674 93.2594 2.80169 95.7342C2.80308 95.9954 2.99174 95.6893 2.99382 96.0083C3.01578 99.3975 2.99521 102.763 2.86785 106.138C2.85491 106.476 2.68926 106.04 2.66643 106.378C2.5303 108.448 2.20329 111.724 2.92449 112.953C2.89633 114.355 2.86723 116.058 2.72185 117.312C2.62828 118.121 2.44783 117.336 2.52483 118.329C2.54199 118.553 2.70002 118.262 2.7138 118.598C2.77165 120.013 2.72028 121.559 2.80193 122.958C2.81891 123.243 2.96051 123.165 2.98601 123.246C3.19252 123.924 2.85115 125.053 2.82634 125.299C2.64137 127.172 2.71416 128.54 2.70964 130.286C2.70852 130.691 2.89872 130.212 2.90447 130.602C2.93173 132.623 2.91538 134.717 2.83098 136.696C2.81175 137.136 2.64973 136.731 2.63225 136.942C2.55715 137.869 2.86317 138.075 2.79705 138.965C2.7835 139.152 2.6448 139.047 2.62957 139.081C2.39044 139.616 2.72926 140.082 2.73674 140.219C2.83895 141.961 2.48524 143.075 2.53533 144.758C2.54168 144.959 2.71718 144.505 2.72429 145.071C2.77274 148.842 2.72453 152.83 2.58416 156.562C2.56257 157.142 2.43073 156.728 2.41448 156.764C2.16054 157.36 2.50079 157.745 2.5136 157.934C2.60584 159.427 2.3205 160.821 2.72576 161.835C2.58512 168.157 2.81269 174.45 2.44964 180.719C2.44543 180.799 2.27786 180.656 2.27019 180.815C2.1761 182.73 2.43654 182.362 2.75505 183.629C2.83504 183.949 2.45048 184.92 2.42229 185.005C2.31842 185.318 2.06912 184.994 2.049 185.099C1.89104 185.966 2.71548 185.825 2.71575 186.995C2.71437 187.031 2.56262 186.878 2.54754 186.976C2.50017 187.281 2.56047 187.583 2.50823 187.882C2.38736 188.565 1.98675 188.808 2.2199 189.852C2.25016 189.984 2.71782 189.782 2.69573 190.827C2.68652 191.244 2.69454 193.087 2.66423 193.604C2.63396 194.12 2.48326 193.765 2.47674 193.802C2.27746 195.192 2.19486 194.665 1.89983 195.362C1.60591 196.058 2.30694 195.865 2.38518 196.149C2.46321 196.433 2.29879 197.453 2.24163 197.703C2.18445 197.954 2.08868 197.641 2.05633 197.864C1.84491 199.34 2.40429 198.512 2.51555 198.998C2.77901 200.145 2.25912 201.038 2.20818 202.088C2.19442 202.372 2.31283 202.14 2.3239 202.393C2.36619 203.395 2.20397 203.998 2.35271 205.137C2.37695 205.324 2.68952 206.245 2.46013 206.842C2.42706 206.926 2.2975 206.686 2.26848 207.113C2.22493 207.751 2.19662 208.9 2.23992 209.586C2.27196 210.092 2.48543 209.512 2.41912 210.149C2.38951 210.432 2.26462 209.907 2.21941 210.439C2.17421 210.968 2.1797 212.321 2.18401 212.836C2.18842 213.35 2.35035 213.069 2.36126 213.11C2.42375 213.361 2.50183 214.348 2.50164 214.435C2.52141 218.831 2.24846 222.885 2.3388 227.165C2.34565 227.501 2.51641 227.277 2.51922 227.329C2.59076 228.478 2.13676 227.572 1.98479 228.375C2.33131 228.259 2.26857 228.733 2.30657 229.543C2.32516 229.934 2.45934 229.721 2.47307 229.757C2.67687 230.335 2.41364 230.738 2.35979 230.842C2.16171 231.226 2.39576 231.643 2.26336 231.904C2.13195 232.164 1.93713 231.564 1.93963 232.341C2.06367 232.559 2.38782 231.982 2.44036 232.572C2.63908 234.798 2.38475 238.951 2.35833 240.741C2.33193 242.526 2.35482 243.103 2.30999 244.144C2.22893 246.023 2.46943 245.335 2.57952 246.502C2.68959 247.672 2.09784 247.103 1.97063 247.271C1.84348 247.436 1.97437 247.617 1.90447 247.822C1.83459 248.027 1.7481 247.584 1.72186 248.065C1.69564 248.547 1.92185 249.865 2.05486 250.036C2.33666 250.397 2.63241 249.803 2.52849 251.078C2.52233 251.151 2.36673 250.914 2.351 251.194C2.23122 253.425 2.22379 255.742 2.11785 257.969C2.10304 258.275 1.92994 258.002 1.91936 258.18C1.80865 260.037 2.10051 259.373 2.42473 260.391C1.99326 260.162 1.72929 260.725 1.72674 262.134C1.72506 262.981 1.9135 262.835 2.04632 263.383C2.08635 263.547 1.95696 264.147 2.04558 264.255C2.33528 264.613 2.65958 264.049 2.53045 265.502C2.52431 265.566 2.36573 265.363 2.35613 265.583C2.29327 267.007 2.59629 267.177 2.63298 268.716C2.66178 269.922 2.477 272.067 2.44695 273.441C1.96185 273.412 2.07293 274.709 2.4074 275.236C2.39371 276.127 2.41261 277.09 2.36638 277.951C2.35062 278.248 2.21017 278.053 2.195 278.09C1.95694 278.664 2.28234 279.051 2.2951 279.244C2.4191 281.329 2.17248 283.028 2.4135 285.018C2.42218 285.089 2.75915 285.203 2.51311 285.735C2.49615 285.769 2.34284 285.112 2.33098 286.048C2.3191 286.984 2.13846 288.75 2.29461 290.049C2.3322 290.364 2.60574 291.16 2.39202 291.798C2.363 291.883 2.26635 291.79 2.21258 291.913C2.04122 292.31 2.38181 292.527 2.09246 292.993C1.80313 293.46 1.58644 294.431 1.78606 295.741C1.79187 295.783 2.06182 296.094 2.05755 296.506C2.0505 297.164 1.99427 298.098 1.99602 298.785C1.99696 299.114 2.16459 298.904 2.16765 298.961C2.26159 301.173 2.11215 302.747 2.04729 305.117C2.03507 305.552 2.26365 306.8 2.08294 307.641C1.88511 308.565 1.06217 307.616 1.25823 309.738C1.33665 310.595 2.38069 311.678 1.83977 313.217C1.97381 316.201 1.69697 318.961 1.88836 321.953C1.89684 322.087 2.18822 322.513 2.18426 322.829C2.1778 323.299 2.04162 323.557 2.03265 323.892C1.99162 325.297 2.10814 326.583 2.09002 327.938C2.08343 328.452 1.94262 328.272 1.93474 328.886C1.92701 329.499 2.11244 329.908 2.02288 330.739C1.95462 331.366 1.5756 331.993 1.53143 332.826C1.90528 332.858 1.89758 333.43 1.99627 334.447C2.01542 334.642 2.14554 334.433 2.16131 334.525C2.22837 334.901 2.12053 335.25 2.19353 335.607C2.21107 335.694 2.33874 335.698 2.36028 335.769C2.5483 336.373 2.26112 337.368 2.21111 337.539C2.02121 338.194 2.18726 338.501 2.11248 339.003C2.03771 339.505 1.94423 338.755 1.89886 339.341C1.805 340.555 1.82562 342.116 1.81976 343.35C1.8182 343.842 1.98863 343.506 1.99236 343.577C2.03559 344.595 1.8543 345.624 2.19378 346.189C1.31602 346.894 2.27891 346.802 2.1032 348.257C2.08899 348.372 1.67391 348.518 1.61297 348.078C1.55209 347.638 1.68184 346.971 1.58685 346.36C1.56455 346.215 1.17559 345.387 1.15203 345.274C0.967893 344.389 1.58818 344.264 1.62225 344.217C1.98991 343.686 1.57088 342.674 1.54192 342.407C1.40925 341.188 1.49649 340.152 1.40179 339.133C1.34058 338.466 0.934273 338.4 0.946711 337.877C0.987818 336.136 1.55462 335.528 1.06317 333.888C0.958348 333.536 0.514263 333.885 0.863459 332.625C0.885473 332.546 1.20492 331.61 1.00286 331.069C0.977386 331.001 0.847965 331.004 0.837092 330.914C0.766766 330.314 0.869872 329.914 0.820491 329.26C0.771109 328.606 0.697493 327.82 0.741389 327.074C0.767638 326.624 1.00877 326.047 1.0678 325.831C1.23787 325.223 0.959035 324.571 1.16497 324.194C1.37195 323.815 1.68627 324.557 1.82 323.561C1.48375 323.524 1.13863 323.44 0.800471 323.38C0.81231 321.197 0.921039 319.049 0.906184 316.859C0.904006 316.588 0.723238 316.865 0.716243 316.574C0.687525 315.346 0.816389 314.273 0.765071 313C0.724657 312.014 0.533262 310.933 0.485043 309.902C0.869805 309.272 0.739187 307.742 0.774348 306.631C0.786498 306.242 0.88926 306.268 0.922785 305.991C1.04678 304.947 0.706764 305.436 0.653255 305.15C0.424888 303.921 1.19449 303.816 1.17547 302.368C1.17472 302.291 0.764494 301.353 0.738948 301.224C0.572366 300.403 0.881733 301.088 0.912043 300.575C0.967434 299.637 1.0654 298.985 0.945246 297.885C0.909656 297.564 0.653965 296.794 0.851741 296.171C0.877638 296.089 1.01323 296.134 1.02117 296.068C1.15354 294.874 0.727482 294.843 0.583187 294.16C0.438923 293.478 0.733037 292.423 0.817805 292.209C1.03709 291.648 0.911521 292.639 0.933039 292.669C1.18913 293.026 1.14504 292.258 1.16668 291.67C1.58444 291.585 1.55936 290.763 1.18743 291.061C1.14681 291.095 1.18577 291.552 1.16668 291.67C0.756806 291.154 0.704313 290.251 1.08734 289.254C1.26685 288.787 1.47616 289.229 1.39959 287.811C1.36503 287.167 1.07738 287.416 0.998957 286.848C0.820028 285.55 1.08835 283.864 1.04608 282.526C1.03073 282.041 0.873272 282.514 0.857356 282.182C0.814626 281.301 0.932768 280.525 0.872248 279.641C0.866565 279.56 0.701742 279.756 0.699641 279.481C0.6805 277.396 0.78607 275.581 0.788997 273.404C0.790336 272.353 0.699431 270.472 0.717708 269.383C0.748411 267.495 0.98809 265.172 0.929865 263.559C0.892595 262.506 0.727737 262.737 0.615413 262.286C0.397683 261.417 0.787688 259.877 0.848078 259.669C0.850077 259.663 0.888941 260.568 0.973566 260.085C1.1499 259.805 0.848843 259.68 0.848078 259.669C0.887091 259.533 0.924515 257.725 0.893 257.366C0.875778 257.17 0.719585 257.28 0.713557 257.178C0.57378 254.76 0.534081 252.337 0.607113 249.884C0.610268 249.841 0.78498 249.906 0.790217 249.805C0.867898 248.385 0.654172 247.476 0.527279 246.304C0.400442 245.134 0.442924 244.205 0.742854 243.512C0.705091 242.628 0.837689 241.361 0.918147 240.631C0.998603 239.902 0.658513 239.8 0.65179 239.736C0.436599 237.734 0.63126 236.577 0.661556 234.501C0.676542 233.513 0.627212 231.555 0.590023 230.486C0.560063 229.641 0.639764 229.132 0.588802 228.354C0.581996 228.248 0.43057 228.355 0.42474 228.322C0.243568 227.454 0.613752 227.871 0.679866 227.692C0.920291 227.042 1.04834 226.64 0.935236 225.527C0.909335 225.27 0.376322 224.523 0.34515 224.055C0.3056 223.447 0.496654 223.676 0.450375 223.04C0.446589 222.985 0.328723 222.997 0.33392 222.603C0.356493 220.779 0.425078 218.79 0.413265 216.894C0.412104 216.635 0.22515 216.967 0.220395 216.593C0.198234 214.837 0.205153 212.913 0.29266 211.202C0.314788 210.781 0.445688 211.045 0.484554 210.954C0.719724 210.392 0.378028 209.597 0.371518 209.465C0.207315 206.334 0.516545 203.937 0.36932 200.744C0.360677 200.571 -0.00562763 199.233 0.308529 198.636C0.329431 198.596 0.650846 198.005 0.431088 197.483C0.41734 197.451 0.25187 197.819 0.268735 197.177C0.285563 196.535 0.175063 195.501 0.356869 194.619C0.414141 194.34 0.734763 193.679 0.479183 192.846C0.461341 192.792 -0.116561 191.505 0.282162 191.046C0.347796 190.971 0.769736 191.049 0.553402 190.055C0.511461 189.865 0.417346 190.21 0.358578 189.709C0.268003 188.942 0.381013 187.925 0.193051 186.982C0.159776 186.818 -0.126612 186.118 0.0907567 185.556C0.1248 185.469 0.265666 185.636 0.28143 185.339C0.357049 183.929 0.262824 182.452 0.360287 181.02C0.394534 180.513 0.622258 180.773 0.683284 180.244C0.744289 179.715 0.802974 178.65 0.698909 178.097C0.594799 177.543 0.23186 178.148 0.202817 177.319C0.0766817 173.715 0.289592 170.145 0.320736 166.547C0.325388 166.013 0.195517 166.456 0.193051 165.669C0.183389 162.769 0.0616215 157.763 0.337582 155.247C0.558611 153.23 0.726884 155.768 0.816829 154.227C0.859735 153.484 0.43778 152.679 0.424496 152.5C0.289556 150.747 0.476473 149.528 0.419125 147.95C0.407225 147.624 0.236202 147.944 0.227963 147.667C0.198304 146.719 0.274641 145.724 0.260678 144.819C0.25402 144.413 0.1234 144.488 0.133481 144.114C0.156099 143.22 0.211006 142.429 0.333432 141.558C0.344588 141.478 0.507075 142.014 0.513119 141.352C0.522438 140.282 0.64321 138.953 0.51849 137.721C0.480971 137.356 0.18244 137.341 0.388607 136.556C0.431667 136.391 0.790138 136.601 0.480404 135.686C0.428933 135.532 0.0111588 133.995 0.280453 133.24C0.351329 133.041 0.644667 132.533 0.598568 132.094C0.591212 132.034 0.430859 132.273 0.415219 131.909C0.362885 130.625 0.379994 129.28 0.32977 127.962C0.316041 127.61 0.150109 128.134 0.134946 127.609C0.0930052 126.166 0.135255 124.364 0.187192 122.953C0.206655 122.433 0.344108 122.792 0.359066 122.754C0.602366 122.146 0.273967 121.786 0.254819 121.584C0.140158 120.327 0.29442 119.37 0.253598 118.212C0.242748 117.892 0.0861644 118.119 0.0722021 118.055C-0.064219 117.395 0.216986 117.887 0.247983 117.469C0.335752 116.299 0.323167 114.994 0.303158 113.811C0.295579 113.376 0.114016 113.865 0.109311 113.474C0.078025 111.166 0.0953984 108.765 0.195493 106.512C0.214669 106.088 0.354478 106.354 0.38641 106.266C0.60982 105.657 0.305087 104.763 0.276059 104.558C0.143517 103.623 0.267153 103.26 0.244076 102.435C0.12918 98.4033 0.211066 93.4252 0.261655 89.6196C0.326762 84.6604 0.459765 80.8122 0.425228 76.0831C0.423208 75.7825 0.237219 76.0856 0.23309 75.8265C0.188254 72.4814 0.260931 69.1881 0.207211 65.8362C0.203133 65.5612 0.026814 65.9577 0.014341 65.5162C-0.0124793 64.6107 -0.00289607 63.4636 0.0534033 62.548C0.0805296 62.1014 0.231827 62.7004 0.256039 62.2509C0.312764 61.2043 0.325321 60.0823 0.297055 59.0072C0.284642 58.5497 0.104312 59.24 0.102231 58.6453C0.0843412 54.5945 0.0532838 50.6162 0.286801 46.5227C0.302839 46.2421 0.66934 45.9959 0.599056 45.3992C0.497342 45.3543 0.377695 45.3567 0.268979 45.3371C0.210415 39.4402 0.337469 33.6034 0.357113 27.69C0.3579 27.4406 0.16371 27.8715 0.164243 27.3888C0.167114 24.5951 0.113317 21.8821 0.306332 19.0244C0.325208 18.7409 0.666837 18.8864 0.615169 18.0508C0.605741 17.9034 0.56018 16.6449 0.486019 16.3196C0.474833 16.2754 0.315374 16.505 0.310727 16.0994C0.286512 13.7428 0.322916 11.2732 0.420346 8.92069C0.436375 8.541 0.606185 8.94534 0.619075 8.67491C0.709218 6.75664 0.580131 4.67011 0.734309 2.83711C0.838122 1.61016 1.13165 2.06441 1.42059 1.41243C1.46135 1.32021 1.46781 0.560453 1.63592 0.521163C2.05864 0.420295 2.52152 0.7883 2.9721 0.637298C3.06915 0.605396 2.96462 -0.412122 3.19915 0.190314C3.21484 0.2324 3.29268 0.970105 3.37224 1.1518C3.42725 1.27831 3.59821 1.05034 3.66863 1.30845C3.73897 1.56654 3.59566 1.85014 3.67839 2.27804C3.76215 2.70575 3.95664 2.51768 3.97966 3.37187ZM1.27776 237.347C1.44109 236.672 0.842899 236.572 0.986018 237.303C0.993645 237.338 1.26975 237.382 1.27776 237.347ZM1.37225 319.062C1.63609 318.179 1.24814 317.574 1.04437 318.197C0.840818 318.82 1.29227 319.331 1.37225 319.062ZM1.56487 328.217C1.7729 327.185 0.924645 327.023 1.09612 328.128C1.10581 328.193 1.55279 328.278 1.56487 328.217ZM1.50286 4.43599C1.51081 4.42667 1.51855 3.88052 1.51067 3.86747C1.32069 3.57666 1.30534 4.66872 1.50286 4.43599ZM1.77459 337.303C1.88933 336.981 1.75687 336.053 1.61419 336.453C1.4994 336.776 1.63185 337.704 1.77459 337.303ZM1.91619 202.116C1.9251 202.106 1.93313 201.714 1.88274 201.722C1.72046 201.749 1.76626 202.294 1.91619 202.116ZM1.78435 352.745C1.81628 350.463 2.51698 349.08 2.43792 351.565C2.42361 352.014 2.21447 350.595 2.1513 351.168C2.03621 352.215 2.47616 352.911 2.24041 353.98C2.19726 354.174 1.78098 352.875 1.78338 352.741C1.7837 352.742 1.78403 352.743 1.78435 352.745ZM1.99627 236.958C2.00418 236.945 2.01168 236.403 2.00384 236.39C1.81393 236.096 1.79871 237.188 1.99627 236.958ZM2.28606 179.269C2.30292 179.239 2.31868 177.981 2.30315 177.94C1.9926 177.284 1.95981 179.827 2.28606 179.269ZM2.43401 273.462C2.62506 274.054 2.64755 274.761 2.40764 275.233C2.42038 274.645 2.42226 274.053 2.43401 273.462Z" fill="var(--stroke-0, #CEBD9D)"/>
</svg>
