<svg preserveAspectRatio="none" width="100%" height="100%" overflow="visible" style="display: block;" viewBox="0 0 4 348" fill="none" xmlns="http://www.w3.org/2000/svg">
<path id="Vector 102" d="M3.97966 3.31472C4.03177 5.26482 3.97605 7.82107 3.89958 9.7638C3.87587 10.3726 3.76985 10.0643 3.7487 10.4846C3.70748 11.3067 3.75948 12.0725 3.71037 12.8848C3.69358 13.154 3.52565 12.8189 3.51189 13.1012C3.43767 14.6481 3.48045 16.1115 3.44475 17.6785C3.26863 25.397 3.20559 32.9842 3.12908 40.7972C3.10399 43.3733 2.95159 46.505 3.01824 49.1658C3.02617 49.4765 3.17357 49.2913 3.18572 49.3504C3.3717 50.2773 3.07413 49.9691 3.0346 50.5743C2.87849 52.9765 2.86492 55.6476 2.9218 57.9593C2.94644 58.9428 3.23921 57.9567 3.07488 58.947C3.06378 59.0158 2.90725 58.7662 2.89055 59.0359C2.853 59.6476 2.88098 60.808 2.86858 61.2821C2.84389 62.1957 2.84546 62.3468 2.84368 63.211C2.83988 64.3923 2.76207 65.7973 2.79754 67.0648C2.80557 67.3353 2.96603 66.9771 2.99334 67.4086C3.0206 67.8404 3.00699 68.9828 2.96917 69.368C2.93132 69.7533 2.8052 69.5892 2.7763 69.6574C2.5323 70.2183 2.87023 71.5398 2.87859 71.7097C3.02099 74.8099 2.82848 77.4684 2.82903 80.3784C2.82985 82.5876 2.89341 84.9498 2.88469 87.0519C2.87369 89.5562 2.78674 91.6787 2.80169 94.1116C2.80308 94.3683 2.99174 94.0675 2.99382 94.3811C3.01578 97.7128 2.99521 101.021 2.86785 104.339C2.85491 104.671 2.68926 104.243 2.66643 104.575C2.5303 106.61 2.20329 109.83 2.92449 111.039C2.89633 112.417 2.86723 114.091 2.72185 115.324C2.62828 116.119 2.44783 115.347 2.52483 116.324C2.54199 116.544 2.70002 116.257 2.7138 116.588C2.77165 117.979 2.72028 119.498 2.80193 120.874C2.81891 121.154 2.96051 121.078 2.98601 121.157C3.19252 121.824 2.85115 122.933 2.82634 123.175C2.64137 125.017 2.71416 126.362 2.70964 128.077C2.70852 128.476 2.89872 128.005 2.90447 128.388C2.93173 130.375 2.91538 132.434 2.83098 134.379C2.81175 134.812 2.64973 134.414 2.63225 134.621C2.55715 135.533 2.86317 135.735 2.79705 136.609C2.7835 136.794 2.6448 136.69 2.62957 136.724C2.39044 137.25 2.72926 137.707 2.73674 137.843C2.83895 139.555 2.48524 140.65 2.53533 142.304C2.54168 142.502 2.71718 142.056 2.72429 142.612C2.77274 146.319 2.72453 150.239 2.58416 153.908C2.56257 154.479 2.43073 154.072 2.41448 154.107C2.16054 154.692 2.50079 155.071 2.5136 155.257C2.60584 156.724 2.3205 158.095 2.72576 159.092C2.58512 165.307 2.81269 171.493 2.44964 177.656C2.44543 177.735 2.27786 177.594 2.27019 177.751C2.1761 179.633 2.43654 179.271 2.75505 180.517C2.83504 180.831 2.45048 181.785 2.42229 181.87C2.31842 182.177 2.06912 181.858 2.049 181.961C1.89104 182.814 2.71548 182.675 2.71575 183.825C2.71437 183.861 2.56262 183.71 2.54754 183.807C2.50017 184.107 2.56047 184.404 2.50823 184.697C2.38736 185.369 1.98675 185.608 2.2199 186.634C2.25016 186.764 2.71782 186.566 2.69573 187.593C2.68652 188.002 2.69454 189.814 2.66423 190.322C2.63396 190.829 2.48326 190.481 2.47674 190.517C2.27746 191.884 2.19486 191.366 1.89983 192.051C1.60591 192.735 2.30694 192.545 2.38518 192.824C2.46321 193.104 2.29879 194.106 2.24163 194.352C2.18445 194.599 2.08868 194.292 2.05633 194.51C1.84491 195.962 2.40429 195.147 2.51555 195.626C2.77901 196.753 2.25912 197.631 2.20818 198.663C2.19442 198.942 2.31283 198.714 2.3239 198.963C2.36619 199.948 2.20397 200.54 2.35271 201.66C2.37695 201.844 2.68952 202.749 2.46013 203.336C2.42706 203.419 2.2975 203.183 2.26848 203.603C2.22493 204.23 2.19662 205.359 2.23992 206.033C2.27196 206.531 2.48543 205.961 2.41912 206.587C2.38951 206.865 2.26462 206.349 2.21941 206.872C2.17421 207.392 2.1797 208.722 2.18401 209.229C2.18842 209.734 2.35035 209.457 2.36126 209.498C2.42375 209.745 2.50183 210.715 2.50164 210.8C2.52141 215.122 2.24846 219.107 2.3388 223.315C2.34565 223.645 2.51641 223.425 2.51922 223.476C2.59076 224.606 2.13676 223.715 1.98479 224.504C2.33131 224.39 2.26857 224.856 2.30657 225.653C2.32516 226.036 2.45934 225.827 2.47307 225.862C2.67687 226.431 2.41364 226.828 2.35979 226.93C2.16171 227.307 2.39576 227.717 2.26336 227.973C2.13195 228.229 1.93713 227.64 1.93963 228.403C2.06367 228.617 2.38782 228.05 2.44036 228.63C2.63908 230.818 2.38475 234.901 2.35833 236.66C2.33193 238.416 2.35482 238.983 2.30999 240.006C2.22893 241.853 2.46943 241.176 2.57952 242.324C2.68959 243.474 2.09784 242.915 1.97063 243.08C1.84348 243.243 1.97437 243.42 1.90447 243.622C1.83459 243.823 1.7481 243.387 1.72186 243.861C1.69564 244.335 1.92185 245.63 2.05486 245.798C2.33666 246.153 2.63241 245.569 2.52849 246.823C2.52233 246.895 2.36673 246.661 2.351 246.937C2.23122 249.129 2.22379 251.407 2.11785 253.597C2.10304 253.898 1.92994 253.629 1.91936 253.804C1.80865 255.629 2.10051 254.977 2.42473 255.977C1.99326 255.753 1.72929 256.306 1.72674 257.691C1.72506 258.524 1.9135 258.38 2.04632 258.919C2.08635 259.081 1.95696 259.67 2.04558 259.776C2.33528 260.129 2.65958 259.574 2.53045 261.002C2.52431 261.064 2.36573 260.865 2.35613 261.081C2.29327 262.481 2.59629 262.648 2.63298 264.161C2.66178 265.347 2.477 267.456 2.44695 268.806C1.96185 268.778 2.07293 270.053 2.4074 270.571C2.39371 271.447 2.41261 272.393 2.36638 273.24C2.35062 273.532 2.21017 273.34 2.195 273.377C1.95694 273.941 2.28234 274.321 2.2951 274.511C2.4191 276.561 2.17248 278.231 2.4135 280.187C2.42218 280.256 2.75915 280.369 2.51311 280.892C2.49615 280.926 2.34284 280.28 2.33098 281.2C2.3191 282.12 2.13846 283.856 2.29461 285.133C2.3322 285.443 2.60574 286.225 2.39202 286.853C2.363 286.936 2.26635 286.845 2.21258 286.965C2.04122 287.356 2.38181 287.569 2.09246 288.027C1.80313 288.486 1.58644 289.44 1.78606 290.729C1.79187 290.77 2.06182 291.075 2.05755 291.48C2.0505 292.127 1.99427 293.046 1.99602 293.721C1.99696 294.045 2.16459 293.837 2.16765 293.894C2.26159 296.068 2.11215 297.616 2.04729 299.946C2.03507 300.373 2.26365 301.6 2.08294 302.427C1.88511 303.335 1.06217 302.402 1.25823 304.489C1.33665 305.33 2.38069 306.396 1.83977 307.908C1.97381 310.842 1.69697 313.554 1.88836 316.496C1.89684 316.628 2.18822 317.047 2.18426 317.358C2.1778 317.819 2.04162 318.073 2.03265 318.402C1.99162 319.784 2.10814 321.048 2.09002 322.38C2.08343 322.885 1.94262 322.708 1.93474 323.311C1.92701 323.914 2.11244 324.316 2.02288 325.133C1.95462 325.75 1.5756 326.366 1.53143 327.185C1.90528 327.216 1.89758 327.779 1.99627 328.778C2.01542 328.97 2.14554 328.764 2.16131 328.855C2.22837 329.225 2.12053 329.567 2.19353 329.919C2.21107 330.004 2.33874 330.008 2.36028 330.078C2.5483 330.672 2.26112 331.65 2.21111 331.818C2.02121 332.462 2.18726 332.763 2.11248 333.257C2.03771 333.75 1.94423 333.013 1.89886 333.589C1.805 334.783 1.82562 336.318 1.81976 337.53C1.8182 338.014 1.98863 337.684 1.99236 337.754C2.03559 338.754 1.8543 339.766 2.19378 340.321C1.31602 341.015 2.27891 340.924 2.1032 342.355C2.08899 342.467 1.67391 342.611 1.61297 342.178C1.55209 341.746 1.68184 341.09 1.58685 340.49C1.56455 340.347 1.17559 339.533 1.15203 339.422C0.967893 338.552 1.58818 338.429 1.62225 338.383C1.98991 337.861 1.57088 336.866 1.54192 336.604C1.40925 335.405 1.49649 334.387 1.40179 333.385C1.34058 332.729 0.934273 332.665 0.946711 332.15C0.987818 330.439 1.55462 329.841 1.06317 328.229C0.958348 327.883 0.514263 328.226 0.863459 326.987C0.885473 326.909 1.20492 325.99 1.00286 325.458C0.977386 325.391 0.847965 325.393 0.837092 325.305C0.766766 324.715 0.869872 324.322 0.820491 323.679C0.771109 323.037 0.697493 322.264 0.741389 321.53C0.767638 321.088 1.00877 320.52 1.0678 320.309C1.23787 319.711 0.959035 319.07 1.16497 318.7C1.37195 318.326 1.68627 319.056 1.82 318.077C1.48375 318.041 1.13863 317.958 0.800471 317.899C0.81231 315.753 0.921039 313.642 0.906184 311.489C0.904006 311.222 0.723238 311.495 0.716243 311.208C0.687525 310.001 0.816389 308.947 0.765071 307.695C0.724657 306.725 0.533262 305.663 0.485043 304.649C0.869805 304.03 0.739187 302.526 0.774348 301.434C0.786498 301.051 0.88926 301.077 0.922785 300.805C1.04678 299.778 0.706764 300.259 0.653255 299.978C0.424888 298.77 1.19449 298.667 1.17547 297.243C1.17472 297.168 0.764494 296.246 0.738948 296.119C0.572366 295.312 0.881733 295.985 0.912043 295.48C0.967434 294.558 1.0654 293.917 0.945246 292.836C0.909656 292.52 0.653965 291.764 0.851741 291.151C0.877638 291.07 1.01323 291.115 1.02117 291.05C1.15354 289.876 0.727482 289.845 0.583187 289.174C0.438923 288.503 0.733037 287.467 0.817805 287.256C1.03709 286.704 0.911521 287.679 0.933039 287.709C1.18913 288.06 1.14504 287.304 1.16668 286.726C1.58444 286.643 1.55936 285.835 1.18743 286.128C1.14681 286.161 1.18577 286.611 1.16668 286.726C0.756806 286.219 0.704313 285.332 1.08734 284.351C1.26685 283.893 1.47616 284.326 1.39959 282.932C1.36503 282.3 1.07738 282.544 0.998957 281.986C0.820028 280.71 1.08835 279.053 1.04608 277.738C1.03073 277.261 0.873272 277.725 0.857356 277.399C0.814626 276.534 0.932768 275.77 0.872248 274.901C0.866565 274.822 0.701742 275.015 0.699641 274.744C0.6805 272.695 0.78607 270.91 0.788997 268.77C0.790336 267.736 0.699431 265.888 0.717708 264.817C0.748411 262.961 0.98809 260.677 0.929865 259.091C0.892595 258.057 0.727737 258.284 0.615413 257.841C0.397683 256.986 0.787688 255.472 0.848078 255.268C0.850077 255.262 0.888941 256.152 0.973566 255.677C1.1499 255.401 0.848843 255.278 0.848078 255.268C0.887091 255.134 0.924515 253.356 0.893 253.003C0.875778 252.812 0.719585 252.919 0.713557 252.819C0.57378 250.442 0.534081 248.06 0.607113 245.649C0.610268 245.607 0.78498 245.671 0.790217 245.571C0.867898 244.175 0.654172 243.281 0.527279 242.13C0.400442 240.979 0.442924 240.066 0.742854 239.384C0.705091 238.516 0.837689 237.27 0.918147 236.553C0.998603 235.836 0.658513 235.736 0.65179 235.673C0.436599 233.705 0.63126 232.567 0.661556 230.526C0.676542 229.555 0.627212 227.63 0.590023 226.579C0.560063 225.749 0.639764 225.248 0.588802 224.483C0.581996 224.38 0.43057 224.484 0.42474 224.453C0.243568 223.599 0.613752 224.009 0.679866 223.833C0.920291 223.193 1.04834 222.798 0.935236 221.705C0.909335 221.452 0.376322 220.717 0.34515 220.258C0.3056 219.66 0.496654 219.885 0.450375 219.259C0.446589 219.206 0.328723 219.217 0.33392 218.831C0.356493 217.037 0.425078 215.082 0.413265 213.218C0.412104 212.963 0.22515 213.29 0.220395 212.922C0.198234 211.196 0.205153 209.304 0.29266 207.622C0.314788 207.208 0.445688 207.468 0.484554 207.378C0.719724 206.826 0.378028 206.044 0.371518 205.915C0.207315 202.836 0.516545 200.48 0.36932 197.342C0.360677 197.171 -0.00562763 195.856 0.308529 195.27C0.329431 195.23 0.650846 194.649 0.431088 194.136C0.41734 194.104 0.25187 194.466 0.268735 193.835C0.285563 193.204 0.175063 192.188 0.356869 191.32C0.414141 191.046 0.734763 190.397 0.479183 189.577C0.461341 189.524 -0.116561 188.259 0.282162 187.808C0.347796 187.735 0.769736 187.811 0.553402 186.833C0.511461 186.647 0.417346 186.986 0.358578 186.494C0.268003 185.739 0.381013 184.74 0.193051 183.813C0.159776 183.652 -0.126612 182.963 0.0907567 182.411C0.1248 182.325 0.265666 182.489 0.28143 182.198C0.357049 180.811 0.262824 179.36 0.360287 177.952C0.394534 177.454 0.622258 177.709 0.683284 177.189C0.744289 176.669 0.802974 175.622 0.698909 175.078C0.594799 174.534 0.23186 175.128 0.202817 174.314C0.0766817 170.771 0.289592 167.261 0.320736 163.724C0.325388 163.199 0.195517 163.634 0.193051 162.861C0.183389 160.01 0.0616215 155.089 0.337582 152.615C0.558611 150.633 0.726884 153.127 0.816829 151.613C0.859735 150.882 0.43778 150.092 0.424496 149.915C0.289556 148.192 0.476473 146.994 0.419125 145.443C0.407225 145.122 0.236202 145.437 0.227963 145.164C0.198304 144.233 0.274641 143.254 0.260678 142.364C0.25402 141.965 0.1234 142.039 0.133481 141.671C0.156099 140.792 0.211006 140.015 0.333432 139.158C0.344588 139.08 0.507075 139.607 0.513119 138.956C0.522438 137.904 0.64321 136.598 0.51849 135.387C0.480971 135.027 0.18244 135.013 0.388607 134.241C0.431667 134.079 0.790138 134.286 0.480404 133.386C0.428933 133.235 0.0111588 131.724 0.280453 130.982C0.351329 130.786 0.644667 130.287 0.598568 129.855C0.591212 129.796 0.430859 130.031 0.415219 129.673C0.362885 128.411 0.379994 127.089 0.32977 125.793C0.316041 125.447 0.150109 125.962 0.134946 125.446C0.0930052 124.028 0.135255 122.256 0.187192 120.869C0.206655 120.358 0.344108 120.711 0.359066 120.674C0.602366 120.075 0.273967 119.722 0.254819 119.523C0.140158 118.288 0.29442 117.347 0.253598 116.208C0.242748 115.894 0.0861644 116.117 0.0722021 116.054C-0.064219 115.405 0.216986 115.889 0.247983 115.478C0.335752 114.328 0.323167 113.045 0.303158 111.882C0.295579 111.454 0.114016 111.935 0.109311 111.551C0.078025 109.281 0.0953984 106.922 0.195493 104.707C0.214669 104.289 0.354478 104.552 0.38641 104.465C0.60982 103.866 0.305087 102.988 0.276059 102.786C0.143517 101.867 0.267153 101.51 0.244076 100.699C0.12918 96.7354 0.211066 91.8418 0.261655 88.1006C0.326762 83.2255 0.459765 79.4425 0.425228 74.7936C0.423208 74.4981 0.237219 74.796 0.23309 74.5413C0.188254 71.2529 0.260931 68.0154 0.207211 64.7204C0.203133 64.45 0.026814 64.8397 0.014341 64.4057C-0.0124793 63.5156 -0.00289607 62.3879 0.0534033 61.4879C0.0805296 61.0489 0.231827 61.6377 0.256039 61.1958C0.312764 60.1669 0.325321 59.064 0.297055 58.0071C0.284642 57.5573 0.104312 58.2359 0.102231 57.6513C0.0843412 53.6692 0.0532838 49.7583 0.286801 45.7342C0.302839 45.4583 0.66934 45.2163 0.599056 44.6297C0.497342 44.5855 0.377695 44.5879 0.268979 44.5686C0.210415 38.7717 0.337469 33.0339 0.357113 27.2207C0.3579 26.9755 0.16371 27.3991 0.164243 26.9246C0.167114 24.1782 0.113317 21.5112 0.306332 18.702C0.325208 18.4232 0.666837 18.5662 0.615169 17.7448C0.605741 17.6 0.56018 16.3628 0.486019 16.043C0.474833 15.9995 0.315374 16.2252 0.310727 15.8266C0.286512 13.5099 0.322916 11.0822 0.420346 8.76949C0.436375 8.39624 0.606185 8.79372 0.619075 8.52788C0.709218 6.64212 0.580131 4.59095 0.734309 2.78902C0.838122 1.58287 1.13165 2.02942 1.42059 1.38849C1.46135 1.29784 1.46781 0.550954 1.63592 0.51233C2.05864 0.413171 2.52152 0.774938 2.9721 0.626496C3.06915 0.595135 2.96462 -0.405137 3.19915 0.187088C3.21484 0.228461 3.29268 0.953663 3.37224 1.13228C3.42725 1.25664 3.59821 1.03254 3.66863 1.28627C3.73897 1.53998 3.59566 1.81878 3.67839 2.23943C3.76215 2.65989 3.95664 2.47501 3.97966 3.31472ZM1.27776 233.324C1.44109 232.66 0.842899 232.562 0.986018 233.281C0.993645 233.315 1.26975 233.359 1.27776 233.324ZM1.37225 313.654C1.63609 312.786 1.24814 312.192 1.04437 312.804C0.840818 313.416 1.29227 313.918 1.37225 313.654ZM1.56487 322.654C1.7729 321.64 0.924645 321.48 1.09612 322.567C1.10581 322.63 1.55279 322.714 1.56487 322.654ZM1.50286 4.3608C1.51081 4.35164 1.51855 3.81475 1.51067 3.80192C1.32069 3.51603 1.30534 4.58959 1.50286 4.3608ZM1.77459 331.586C1.88933 331.269 1.75687 330.357 1.61419 330.751C1.4994 331.068 1.63185 331.98 1.77459 331.586ZM1.91619 198.691C1.9251 198.68 1.93313 198.295 1.88274 198.303C1.72046 198.329 1.76626 198.865 1.91619 198.691ZM1.78435 346.766C1.81628 344.523 2.51698 343.163 2.43792 345.606C2.42361 346.048 2.21447 344.653 2.1513 345.215C2.03621 346.246 2.47616 346.93 2.24041 347.981C2.19726 348.171 1.78098 346.894 1.78338 346.762C1.7837 346.763 1.78403 346.765 1.78435 346.766ZM1.99627 232.942C2.00418 232.929 2.01168 232.396 2.00384 232.383C1.81393 232.095 1.79871 233.168 1.99627 232.942ZM2.28606 176.23C2.30292 176.201 2.31868 174.965 2.30315 174.924C1.9926 174.279 1.95981 176.779 2.28606 176.23ZM2.43401 268.827C2.62506 269.409 2.64755 270.104 2.40764 270.568C2.42038 269.99 2.42226 269.409 2.43401 268.827Z" fill="var(--stroke-0, #CEBD9D)"/>
</svg>
