<svg preserveAspectRatio="none" width="100%" height="100%" overflow="visible" style="display: block;" viewBox="0 0 4 380" fill="none" xmlns="http://www.w3.org/2000/svg">
<path id="Vector 102" d="M3.97966 3.61952C4.03177 5.74894 3.97605 8.54025 3.89958 10.6616C3.87587 11.3265 3.76985 10.9898 3.7487 11.4487C3.70748 12.3463 3.75948 13.1826 3.71037 14.0696C3.69358 14.3636 3.52565 13.9976 3.51189 14.3059C3.43767 15.995 3.48045 17.593 3.44475 19.3041C3.26863 27.7324 3.20559 36.0172 3.12908 44.5486C3.10399 47.3617 2.95159 50.7813 3.01824 53.6868C3.02617 54.026 3.17357 53.8238 3.18572 53.8883C3.3717 54.9005 3.07413 54.564 3.0346 55.2248C2.87849 57.8478 2.86492 60.7646 2.9218 63.2889C2.94644 64.3628 3.23921 63.2861 3.07488 64.3674C3.06378 64.4425 2.90725 64.17 2.89055 64.4645C2.853 65.1324 2.88098 66.3996 2.86858 66.9172C2.84389 67.9148 2.84546 68.0799 2.84368 69.0235C2.83988 70.3134 2.76207 71.8476 2.79754 73.2316C2.80557 73.527 2.96603 73.1359 2.99334 73.6071C3.0206 74.0786 3.00699 75.3261 2.96917 75.7467C2.93132 76.1673 2.8052 75.9882 2.7763 76.0627C2.5323 76.6751 2.87023 78.1182 2.87859 78.3037C3.02099 81.6889 2.82848 84.5919 2.82903 87.7695C2.82985 90.1819 2.89341 92.7613 2.88469 95.0566C2.87369 97.7912 2.78674 100.109 2.80169 102.766C2.80308 103.046 2.99174 102.717 2.99382 103.06C3.01578 106.698 2.99521 110.311 2.86785 113.933C2.85491 114.296 2.68926 113.828 2.66643 114.191C2.5303 116.413 2.20329 119.929 2.92449 121.249C2.89633 122.754 2.86723 124.582 2.72185 125.928C2.62828 126.797 2.44783 125.953 2.52483 127.02C2.54199 127.261 2.70002 126.948 2.7138 127.308C2.77165 128.827 2.72028 130.487 2.80193 131.989C2.81891 132.295 2.96051 132.211 2.98601 132.298C3.19252 133.026 2.85115 134.237 2.82634 134.501C2.64137 136.512 2.71416 137.981 2.70964 139.855C2.70852 140.289 2.89872 139.776 2.90447 140.194C2.93173 142.364 2.91538 144.611 2.83098 146.736C2.81175 147.208 2.64973 146.774 2.63225 147C2.55715 147.995 2.86317 148.216 2.79705 149.171C2.7835 149.373 2.6448 149.259 2.62957 149.296C2.39044 149.871 2.72926 150.37 2.73674 150.518C2.83895 152.388 2.48524 153.583 2.53533 155.39C2.54168 155.606 2.71718 155.119 2.72429 155.726C2.77274 159.774 2.72453 164.054 2.58416 168.061C2.56257 168.684 2.43073 168.239 2.41448 168.278C2.16054 168.917 2.50079 169.33 2.5136 169.534C2.60584 171.136 2.3205 172.633 2.72576 173.721C2.58512 180.508 2.81269 187.262 2.44964 193.992C2.44543 194.078 2.27786 193.925 2.27019 194.095C2.1761 196.151 2.43654 195.756 2.75505 197.116C2.83504 197.459 2.45048 198.501 2.42229 198.593C2.31842 198.929 2.06912 198.581 2.049 198.693C1.89104 199.624 2.71548 199.473 2.71575 200.729C2.71437 200.768 2.56262 200.603 2.54754 200.708C2.50017 201.036 2.56047 201.361 2.50823 201.681C2.38736 202.415 1.98675 202.676 2.2199 203.796C2.25016 203.938 2.71782 203.721 2.69573 204.843C2.68652 205.29 2.69454 207.268 2.66423 207.823C2.63396 208.377 2.48326 207.997 2.47674 208.036C2.27746 209.528 2.19486 208.963 1.89983 209.71C1.60591 210.458 2.30694 210.251 2.38518 210.555C2.46321 210.861 2.29879 211.955 2.24163 212.224C2.18445 212.493 2.08868 212.157 2.05633 212.396C1.84491 213.981 2.40429 213.092 2.51555 213.614C2.77901 214.845 2.25912 215.804 2.20818 216.931C2.19442 217.236 2.31283 216.987 2.3239 217.258C2.36619 218.334 2.20397 218.981 2.35271 220.204C2.37695 220.404 2.68952 221.393 2.46013 222.033C2.42706 222.124 2.2975 221.866 2.26848 222.325C2.22493 223.009 2.19662 224.243 2.23992 224.979C2.27196 225.522 2.48543 224.899 2.41912 225.583C2.38951 225.887 2.26462 225.324 2.21941 225.895C2.17421 226.463 2.1797 227.915 2.18401 228.468C2.18842 229.02 2.35035 228.718 2.36126 228.762C2.42375 229.032 2.50183 230.091 2.50164 230.184C2.52141 234.903 2.24846 239.255 2.3388 243.85C2.34565 244.21 2.51641 243.97 2.51922 244.025C2.59076 245.259 2.13676 244.286 1.98479 245.148C2.33131 245.024 2.26857 245.533 2.30657 246.402C2.32516 246.821 2.45934 246.593 2.47307 246.631C2.67687 247.253 2.41364 247.685 2.35979 247.797C2.16171 248.208 2.39576 248.656 2.26336 248.936C2.13195 249.216 1.93713 248.572 1.93963 249.406C2.06367 249.64 2.38782 249.021 2.44036 249.654C2.63908 252.043 2.38475 256.502 2.35833 258.422C2.33193 260.339 2.35482 260.958 2.30999 262.075C2.22893 264.093 2.46943 263.353 2.57952 264.606C2.68959 265.863 2.09784 265.252 1.97063 265.432C1.84348 265.61 1.97437 265.803 1.90447 266.024C1.83459 266.244 1.7481 265.768 1.72186 266.285C1.69564 266.802 1.92185 268.216 2.05486 268.4C2.33666 268.787 2.63241 268.15 2.52849 269.519C2.52233 269.598 2.36673 269.342 2.351 269.644C2.23122 272.038 2.22379 274.525 2.11785 276.916C2.10304 277.245 1.92994 276.951 1.91936 277.142C1.80865 279.135 2.10051 278.423 2.42473 279.515C1.99326 279.27 1.72929 279.874 1.72674 281.387C1.72506 282.296 1.9135 282.139 2.04632 282.728C2.08635 282.904 1.95696 283.547 2.04558 283.664C2.33528 284.048 2.65958 283.442 2.53045 285.002C2.52431 285.07 2.36573 284.853 2.35613 285.089C2.29327 286.617 2.59629 286.8 2.63298 288.452C2.66178 289.747 2.477 292.05 2.44695 293.524C1.96185 293.493 2.07293 294.886 2.4074 295.451C2.39371 296.407 2.41261 297.441 2.36638 298.366C2.35062 298.684 2.21017 298.475 2.195 298.515C1.95694 299.13 2.28234 299.546 2.2951 299.753C2.4191 301.991 2.17248 303.815 2.4135 305.951C2.42218 306.027 2.75915 306.15 2.51311 306.721C2.49615 306.758 2.34284 306.052 2.33098 307.057C2.3191 308.063 2.13846 309.957 2.29461 311.353C2.3322 311.69 2.60574 312.544 2.39202 313.23C2.363 313.321 2.26635 313.221 2.21258 313.353C2.04122 313.779 2.38181 314.012 2.09246 314.513C1.80313 315.014 1.58644 316.055 1.78606 317.463C1.79187 317.507 2.06182 317.84 2.05755 318.283C2.0505 318.989 1.99427 319.992 1.99602 320.73C1.99696 321.083 2.16459 320.857 2.16765 320.918C2.26159 323.293 2.11215 324.983 2.04729 327.527C2.03507 327.993 2.26365 329.333 2.08294 330.236C1.88511 331.228 1.06217 330.209 1.25823 332.488C1.33665 333.407 2.38069 334.57 1.83977 336.222C1.97381 339.425 1.69697 342.387 1.88836 345.599C1.89684 345.743 2.18822 346.2 2.18426 346.54C2.1778 347.044 2.04162 347.321 2.03265 347.681C1.99162 349.189 2.10814 350.569 2.09002 352.024C2.08343 352.576 1.94262 352.383 1.93474 353.041C1.92701 353.699 2.11244 354.138 2.02288 355.03C1.95462 355.704 1.5756 356.377 1.53143 357.271C1.90528 357.305 1.89758 357.919 1.99627 359.011C2.01542 359.22 2.14554 358.995 2.16131 359.095C2.22837 359.499 2.12053 359.872 2.19353 360.256C2.21107 360.349 2.33874 360.353 2.36028 360.43C2.5483 361.078 2.26112 362.147 2.21111 362.33C2.02121 363.033 2.18726 363.362 2.11248 363.902C2.03771 364.44 1.94423 363.635 1.89886 364.264C1.805 365.568 1.82562 367.243 1.81976 368.568C1.8182 369.096 1.98863 368.736 1.99236 368.811C2.03559 369.904 1.8543 371.009 2.19378 371.615C1.31602 372.372 2.27891 372.274 2.1032 373.836C2.08899 373.959 1.67391 374.115 1.61297 373.643C1.55209 373.17 1.68184 372.454 1.58685 371.799C1.56455 371.644 1.17559 370.755 1.15203 370.633C0.967893 369.683 1.58818 369.549 1.62225 369.498C1.98991 368.928 1.57088 367.842 1.54192 367.556C1.40925 366.247 1.49649 365.135 1.40179 364.041C1.34058 363.325 0.934273 363.255 0.946711 362.693C0.987818 360.824 1.55462 360.171 1.06317 358.41C0.958348 358.033 0.514263 358.408 0.863459 357.055C0.885473 356.97 1.20492 355.966 1.00286 355.385C0.977386 355.312 0.847965 355.315 0.837092 355.219C0.766766 354.574 0.869872 354.145 0.820491 353.443C0.771109 352.741 0.697493 351.897 0.741389 351.096C0.767638 350.613 1.00877 349.993 1.0678 349.762C1.23787 349.11 0.959035 348.41 1.16497 348.005C1.37195 347.598 1.68627 348.395 1.82 347.326C1.48375 347.286 1.13863 347.195 0.800471 347.131C0.81231 344.788 0.921039 342.482 0.906184 340.131C0.904006 339.84 0.723238 340.138 0.716243 339.825C0.687525 338.507 0.816389 337.355 0.765071 335.988C0.724657 334.93 0.533262 333.77 0.485043 332.663C0.869805 331.987 0.739187 330.345 0.774348 329.152C0.786498 328.734 0.88926 328.762 0.922785 328.465C1.04678 327.344 0.706764 327.869 0.653255 327.562C0.424888 326.243 1.19449 326.13 1.17547 324.576C1.17472 324.493 0.764494 323.487 0.738948 323.348C0.572366 322.467 0.881733 323.202 0.912043 322.651C0.967434 321.644 1.0654 320.944 0.945246 319.763C0.909656 319.419 0.653965 318.592 0.851741 317.923C0.877638 317.836 1.01323 317.884 1.02117 317.813C1.15354 316.531 0.727482 316.498 0.583187 315.765C0.438923 315.032 0.733037 313.901 0.817805 313.67C1.03709 313.068 0.911521 314.132 0.933039 314.165C1.18913 314.548 1.14504 313.723 1.16668 313.092C1.58444 313.001 1.55936 312.119 1.18743 312.438C1.14681 312.475 1.18577 312.965 1.16668 313.092C0.756806 312.539 0.704313 311.569 1.08734 310.499C1.26685 309.998 1.47616 310.471 1.39959 308.949C1.36503 308.258 1.07738 308.525 0.998957 307.916C0.820028 306.523 1.08835 304.713 1.04608 303.277C1.03073 302.756 0.873272 303.263 0.857356 302.907C0.814626 301.962 0.932768 301.128 0.872248 300.179C0.866565 300.093 0.701742 300.303 0.699641 300.008C0.6805 297.77 0.78607 295.822 0.788997 293.485C0.790336 292.356 0.699431 290.338 0.717708 289.168C0.748411 287.141 0.98809 284.648 0.929865 282.916C0.892595 281.787 0.727737 282.034 0.615413 281.55C0.397683 280.617 0.787688 278.964 0.848078 278.741C0.850077 278.734 0.888941 279.706 0.973566 279.188C1.1499 278.886 0.848843 278.752 0.848078 278.741C0.887091 278.595 0.924515 276.654 0.893 276.268C0.875778 276.059 0.719585 276.176 0.713557 276.067C0.57378 273.471 0.534081 270.87 0.607113 268.237C0.610268 268.191 0.78498 268.261 0.790217 268.152C0.867898 266.628 0.654172 265.652 0.527279 264.395C0.400442 263.138 0.442924 262.141 0.742854 261.397C0.705091 260.448 0.837689 259.088 0.918147 258.305C0.998603 257.522 0.658513 257.413 0.65179 257.344C0.436599 255.195 0.63126 253.953 0.661556 251.724C0.676542 250.664 0.627212 248.562 0.590023 247.414C0.560063 246.507 0.639764 245.961 0.588802 245.125C0.581996 245.012 0.43057 245.126 0.42474 245.092C0.243568 244.159 0.613752 244.607 0.679866 244.415C0.920291 243.717 1.04834 243.285 0.935236 242.091C0.909335 241.816 0.376322 241.013 0.34515 240.511C0.3056 239.858 0.496654 240.105 0.450375 239.421C0.446589 239.363 0.328723 239.375 0.33392 238.953C0.356493 236.994 0.425078 234.859 0.413265 232.824C0.412104 232.546 0.22515 232.902 0.220395 232.501C0.198234 230.616 0.205153 228.55 0.29266 226.714C0.314788 226.262 0.445688 226.545 0.484554 226.447C0.719724 225.845 0.378028 224.991 0.371518 224.85C0.207315 221.488 0.516545 218.915 0.36932 215.488C0.360677 215.302 -0.00562763 213.866 0.308529 213.226C0.329431 213.182 0.650846 212.548 0.431088 211.988C0.41734 211.953 0.25187 212.348 0.268735 211.659C0.285563 210.969 0.175063 209.86 0.356869 208.913C0.414141 208.613 0.734763 207.904 0.479183 207.01C0.461341 206.951 -0.116561 205.57 0.282162 205.077C0.347796 204.998 0.769736 205.081 0.553402 204.013C0.511461 203.809 0.417346 204.18 0.358578 203.642C0.268003 202.819 0.381013 201.728 0.193051 200.716C0.159776 200.539 -0.126612 199.788 0.0907567 199.185C0.1248 199.09 0.265666 199.27 0.28143 198.951C0.357049 197.438 0.262824 195.853 0.360287 194.316C0.394534 193.771 0.622258 194.05 0.683284 193.482C0.744289 192.915 0.802974 191.771 0.698909 191.177C0.594799 190.583 0.23186 191.232 0.202817 190.342C0.0766817 186.474 0.289592 182.642 0.320736 178.779C0.325388 178.206 0.195517 178.681 0.193051 177.837C0.183389 174.724 0.0616215 169.35 0.337582 166.649C0.558611 164.485 0.726884 167.208 0.816829 165.554C0.859735 164.756 0.43778 163.893 0.424496 163.7C0.289556 161.818 0.476473 160.511 0.419125 158.817C0.407225 158.467 0.236202 158.81 0.227963 158.512C0.198304 157.495 0.274641 156.427 0.260678 155.455C0.25402 155.019 0.1234 155.1 0.133481 154.698C0.156099 153.739 0.211006 152.89 0.333432 151.954C0.344588 151.869 0.507075 152.444 0.513119 151.734C0.522438 150.585 0.64321 149.158 0.51849 147.836C0.480971 147.444 0.18244 147.428 0.388607 146.585C0.431667 146.408 0.790138 146.634 0.480404 145.652C0.428933 145.486 0.0111588 143.836 0.280453 143.026C0.351329 142.813 0.644667 142.267 0.598568 141.796C0.591212 141.732 0.430859 141.988 0.415219 141.597C0.362885 140.219 0.379994 138.775 0.32977 137.36C0.316041 136.982 0.150109 137.545 0.134946 136.982C0.0930052 135.432 0.135255 133.498 0.187192 131.983C0.206655 131.425 0.344108 131.811 0.359066 131.77C0.602366 131.117 0.273967 130.73 0.254819 130.514C0.140158 129.165 0.29442 128.137 0.253598 126.894C0.242748 126.551 0.0861644 126.794 0.0722021 126.726C-0.064219 126.017 0.216986 126.545 0.247983 126.097C0.335752 124.84 0.323167 123.44 0.303158 122.17C0.295579 121.703 0.114016 122.228 0.109311 121.809C0.078025 119.33 0.0953984 116.754 0.195493 114.335C0.214669 113.879 0.354478 114.166 0.38641 114.071C0.60982 113.417 0.305087 112.458 0.276059 112.237C0.143517 111.234 0.267153 110.844 0.244076 109.958C0.12918 105.631 0.211066 100.287 0.261655 96.2018C0.326762 90.8784 0.459765 86.7476 0.425228 81.6711C0.423208 81.3485 0.237219 81.6738 0.23309 81.3957C0.188254 77.8049 0.260931 74.2697 0.207211 70.6717C0.203133 70.3764 0.026814 70.802 0.014341 70.3281C-0.0124793 69.356 -0.00289607 68.1247 0.0534033 67.1419C0.0805296 66.6625 0.231827 67.3055 0.256039 66.823C0.312764 65.6995 0.325321 64.4951 0.297055 63.3411C0.284642 62.85 0.104312 63.5909 0.102231 62.9526C0.0843412 58.6043 0.0532838 54.3338 0.286801 49.9397C0.302839 49.6384 0.66934 49.3741 0.599056 48.7336C0.497342 48.6854 0.377695 48.688 0.268979 48.6669C0.210415 42.3369 0.337469 36.0715 0.357113 29.7237C0.3579 29.4561 0.16371 29.9186 0.164243 29.4004C0.167114 26.4015 0.113317 23.4893 0.306332 20.4217C0.325208 20.1173 0.666837 20.2735 0.615169 19.3765C0.605741 19.2183 0.56018 17.8674 0.486019 17.5182C0.474833 17.4707 0.315374 17.7172 0.310727 17.2819C0.286512 14.7522 0.322916 12.1012 0.420346 9.57588C0.436375 9.16831 0.606185 9.60234 0.619075 9.31205C0.709218 7.25289 0.580131 5.01311 0.734309 3.04548C0.838122 1.72842 1.13165 2.21604 1.42059 1.51617C1.46135 1.41718 1.46781 0.601616 1.63592 0.55944C2.05864 0.451164 2.52152 0.846197 2.9721 0.684105C3.06915 0.64986 2.96462 -0.442391 3.19915 0.204291C3.21484 0.249469 3.29268 1.04136 3.37224 1.2364C3.42725 1.37219 3.59821 1.12749 3.66863 1.40455C3.73897 1.68159 3.59566 1.98602 3.67839 2.44535C3.76215 2.90448 3.95664 2.7026 3.97966 3.61952ZM1.27776 254.779C1.44109 254.054 0.842899 253.948 0.986018 254.732C0.993645 254.77 1.26975 254.817 1.27776 254.779ZM1.37225 342.495C1.63609 341.548 1.24814 340.899 1.04437 341.568C0.840818 342.236 1.29227 342.784 1.37225 342.495ZM1.56487 352.324C1.7729 351.216 0.924645 351.042 1.09612 352.228C1.10581 352.297 1.55279 352.388 1.56487 352.324ZM1.50286 4.7618C1.51081 4.75179 1.51855 4.16553 1.51067 4.15152C1.32069 3.83935 1.30534 5.01163 1.50286 4.7618ZM1.77459 362.077C1.88933 361.731 1.75687 360.735 1.61419 361.165C1.4994 361.511 1.63185 362.507 1.77459 362.077ZM1.91619 216.961C1.9251 216.95 1.93313 216.529 1.88274 216.538C1.72046 216.566 1.76626 217.151 1.91619 216.961ZM1.78435 378.653C1.81628 376.204 2.51698 374.719 2.43792 377.386C2.42361 377.869 2.21447 376.345 2.1513 376.959C2.03621 378.084 2.47616 378.831 2.24041 379.979C2.19726 380.187 1.78098 378.792 1.78338 378.648C1.7837 378.65 1.78403 378.651 1.78435 378.653ZM1.99627 254.362C2.00418 254.347 2.01168 253.766 2.00384 253.752C1.81393 253.437 1.79871 254.609 1.99627 254.362ZM2.28606 192.436C2.30292 192.403 2.31868 191.053 2.30315 191.009C1.9926 190.305 1.95981 193.035 2.28606 192.436ZM2.43401 293.547C2.62506 294.182 2.64755 294.942 2.40764 295.448C2.42038 294.817 2.42226 294.182 2.43401 293.547Z" fill="var(--stroke-0, #CEBD9D)"/>
</svg>
