<svg preserveAspectRatio="none" width="100%" height="100%" overflow="visible" style="display: block;" viewBox="0 0 20.3764 26.6116" fill="none" xmlns="http://www.w3.org/2000/svg">
<path id="Vector 100" d="M0.00022459 26.0939C-0.00451577 25.8232 0.0653646 25.6053 0.251715 25.4613C0.294079 25.4285 0.392241 25.5034 0.420696 25.4977C0.473139 25.4872 0.401625 25.3574 0.406869 25.35C0.438027 25.3028 0.601987 25.4452 0.613172 25.4437C0.733736 25.4248 0.518438 25.3032 0.545788 25.2232C0.581358 25.1191 0.695375 25.0335 0.778528 24.9364C0.808212 24.9026 0.931261 25.0135 0.975463 24.9267C1.00688 24.8652 0.97424 24.5859 1.19356 24.6221C1.25573 24.6652 1.31698 24.7232 1.37785 24.7723C1.19976 24.4778 1.23957 24.4452 1.41532 24.329C1.44308 24.3105 1.35411 24.212 1.42466 24.1948C1.49523 24.1776 1.65978 24.2906 1.72106 24.1993C1.7424 24.1667 1.6409 24.0663 1.67036 24.014C1.75386 23.8648 2.08318 23.7006 2.16843 23.59C2.33647 23.3722 2.22607 23.1117 2.43478 22.9601C2.45054 22.9482 2.55293 23.0708 2.57524 23.0443C2.59771 23.0177 2.4514 22.8705 2.45236 22.8607C2.46243 22.755 2.79854 22.7531 2.80098 22.6921C2.80646 22.5434 2.66207 22.5921 2.72989 22.4284C2.79449 22.2726 3.14288 22.2399 3.27932 22.1364C3.43758 22.0166 3.15659 21.7443 3.56851 21.86C3.837 21.4375 4.11413 21.0186 4.38541 20.5974C4.45038 20.6448 4.51523 20.6925 4.58003 20.7402C4.55729 20.6758 4.5345 20.6113 4.51226 20.5472C4.55778 20.5866 4.60353 20.6257 4.64856 20.6647C4.56662 20.3797 4.56451 20.1756 4.74144 20.0345C4.74487 20.0317 4.86961 20.1331 4.87501 20.1326C4.92794 20.11 4.85854 19.9942 4.90704 19.9757C5.02375 19.9308 5.41136 19.9876 5.01684 19.8051C5.22852 19.6577 5.27415 19.3416 5.47481 19.2004C5.5615 19.1392 5.78603 19.2606 5.82551 19.2299C5.86487 19.1992 5.67275 19.0937 5.67566 19.075C5.69476 18.9638 5.79866 18.8318 6.00818 18.9576C5.94035 18.8848 5.87224 18.8103 5.80407 18.7369C6.0181 18.9025 6.10804 18.5805 6.16101 18.5167C6.17068 18.5051 6.26878 18.5715 6.27435 18.5615C6.335 18.449 6.201 18.3167 6.21312 18.1923C6.21727 18.1485 6.35396 18.3171 6.33662 18.1851C6.33506 18.1735 6.17905 18.0693 6.24739 17.9743C6.35638 17.8226 6.50121 17.4875 6.70489 17.3588C6.72132 17.3481 6.8566 17.5112 6.8656 17.4156C6.86911 17.3811 6.74206 17.3094 6.78319 17.2488C6.94148 17.0134 7.25205 16.8621 7.30526 16.5458C7.43327 16.6487 7.52435 16.8389 7.5294 16.653C7.52976 16.623 7.39939 16.5538 7.40133 16.5416C7.41851 16.4437 7.54894 16.4401 7.55899 16.3281C7.56169 16.2948 7.47178 16.2228 7.47017 16.1778C7.46752 16.1112 7.61506 16.1863 7.59356 16.096C7.55938 15.9543 7.44086 15.8527 7.75877 15.9306C8.13201 15.3666 8.44909 14.7668 8.94667 14.2931C8.98753 14.0837 9.01137 13.8807 9.10101 13.6955C9.12751 13.641 9.30425 13.7514 9.30277 13.6337C9.3027 13.6075 9.20777 13.3544 9.5644 13.5782C9.55915 13.5226 9.57357 13.5 9.57624 13.4573C9.50988 13.4444 9.44245 13.4318 9.37625 13.4176C9.51967 13.3305 9.47072 13.1425 9.49167 12.9908C9.50731 12.8792 9.61381 13.0412 9.63438 12.9805C9.65543 12.9201 9.63835 12.8739 9.85921 12.9353C9.6902 12.7425 9.85619 12.8103 9.92571 12.723C9.93308 12.7136 9.89387 12.6014 9.94291 12.5653C9.97821 12.5393 10.1124 12.6186 10.1307 12.5508C10.1339 12.5398 10.0568 12.3149 10.068 12.2685C10.0851 12.1959 10.3113 12.2205 10.321 12.211C10.4616 12.0721 10.3439 11.8976 10.688 11.971C10.5468 11.8374 10.5211 11.6784 10.5899 11.613C10.6769 11.5304 11.1343 11.5639 10.8129 11.2984C11.0426 11.2936 10.9407 11.2399 11.0306 11.1058C11.1122 10.9836 11.4661 10.7569 11.5158 10.6463C11.566 10.5361 11.3436 10.4505 11.3456 10.3941C11.3482 10.3013 11.4636 10.4336 11.4921 10.3889C11.5724 10.2623 11.6206 10.137 11.642 9.97731C11.7444 10.0399 11.8476 10.1024 11.9501 10.1648C11.9217 10.1358 11.8933 10.1068 11.8649 10.0778C11.8836 10.0533 11.9014 10.0237 11.9208 10.0025C11.3526 9.89653 12.0861 9.83506 12.1786 9.72673C12.2564 9.63518 12.1671 9.32889 12.1986 9.19054C12.2061 9.15687 12.2993 9.24923 12.3006 9.24217C12.3147 9.15805 12.2492 9.09766 12.3185 9.02008C12.3555 8.97921 12.5201 9.02681 12.5532 8.98503C12.7961 8.6778 12.8801 8.27552 13.0893 7.94775C13.1248 7.89198 13.3194 7.9592 13.3548 7.91625C13.4055 7.85477 13.3019 7.72057 13.3428 7.65813C13.3836 7.59596 13.6035 7.61973 13.6083 7.56146C13.6136 7.50353 13.4105 7.46613 13.5057 7.42027C13.5494 7.39921 13.6206 7.5408 13.6542 7.50042C13.7591 7.3744 13.7504 7.08621 13.9876 7.04033C13.949 7.0226 13.9123 7.00957 13.8742 6.99428C13.9943 6.85207 14.1706 6.77593 14.2927 6.62778C14.3356 6.57615 14.3048 6.40689 14.3431 6.35342C14.3814 6.29998 14.5075 6.35207 14.5408 6.31112C14.5547 6.29447 14.4523 6.23277 14.4627 6.22229C14.593 6.09185 14.8239 6.13248 14.9136 5.96302C15.2424 5.34228 15.5936 4.71073 15.9355 4.08602C15.9493 4.06092 15.8333 3.95588 15.8385 3.90866C15.8462 3.83584 15.9603 3.91229 15.9692 3.90809C16.026 3.87985 15.909 3.82533 15.9521 3.76408C16.047 3.62923 16.2921 3.47649 16.3788 3.33654C16.5784 3.0139 16.6627 2.68386 16.8264 2.34501C16.8379 2.32032 16.9778 2.441 17.0065 2.40442C17.2106 2.14799 17.1064 1.99003 17.3814 1.68556C17.6563 1.38105 18.1898 0.816549 18.4849 0.441307C18.4852 0.441553 18.4856 0.441799 18.4859 0.442045C18.2943 0.123672 18.4752 0.0135523 18.7781 0.0296667C18.9289 1.27239 18.1119 1.78498 17.5678 2.61602C16.9955 3.4892 16.8536 4.7495 16.1773 5.56655C16.1137 5.64331 15.9324 5.56453 15.9173 5.65633C15.9148 5.67185 16.0579 5.72775 16.0452 5.77206C15.8673 6.37812 15.2222 6.70387 14.9614 7.23839C14.8911 7.3825 15.0129 7.49856 14.9679 7.63716C14.9177 7.57189 14.8596 7.51149 14.8071 7.44843C14.2405 7.82691 13.9637 8.41051 13.5644 8.9169C13.5462 8.93958 13.411 8.84896 13.3885 8.87039C13.343 8.91293 13.4559 9.06371 13.4302 9.11076C13.3967 9.17212 13.2839 9.10743 13.2539 9.16471C13.2395 9.19277 13.3466 9.25675 13.2902 9.30021C13.2854 9.30382 13.1765 9.23172 13.1643 9.27841C13.1311 9.40652 13.0749 9.6766 13.0427 9.77927C13.0014 9.9104 12.7801 9.88315 12.7411 9.91634C12.6359 10.0059 12.8022 10.1196 12.7371 10.2123C12.2739 10.8725 11.6428 11.3712 11.1691 12.0474C11.1394 12.0899 11.2124 12.3758 11.1498 12.4491C11.1283 12.4733 10.9831 12.5768 10.9646 12.5946C10.8904 12.6674 10.7287 12.6616 10.673 12.6914C10.5646 12.7488 10.6674 12.9706 10.6504 13.0314C10.6209 13.1385 10.4914 13.2742 10.4617 13.307C10.3898 13.386 10.1958 13.2067 10.202 13.304C10.204 13.3329 10.3817 13.4292 10.3362 13.4939C10.2975 13.5477 10.1584 13.4827 10.1101 13.504C10.0619 13.5255 10.2053 13.728 10.1843 13.7477C10.0726 13.8495 9.90979 13.8147 9.81092 13.9416C9.72924 14.0472 9.4621 14.613 9.47762 14.6866C9.54667 15.0159 9.67644 14.6397 9.69563 14.6269C9.80174 14.5591 9.86912 14.6274 9.78857 14.4286C10.3031 14.6636 9.80362 13.8691 10.3963 14.1727C10.0924 13.8415 10.3199 13.9029 10.4503 13.8711C10.6305 13.8271 10.36 13.7668 10.4171 13.6824C10.4399 13.6492 10.6701 13.6688 10.682 13.6035C10.694 13.5381 10.5835 13.4292 10.6231 13.3582C10.6933 13.2311 10.8186 13.1772 11.0383 13.1835C10.9848 13.1187 10.9304 13.055 10.8767 12.9905C10.9962 12.9721 11.1153 12.9532 11.2343 12.9345C11.1687 12.9047 11.1026 12.8746 11.037 12.8448C11.0427 12.8189 11.0489 12.7932 11.0551 12.7676C11.189 12.7623 11.3144 12.7554 11.4526 12.7503C11.2487 12.3286 11.5005 12.5865 11.6168 12.5138C11.733 12.441 11.5813 12.2448 11.6364 12.1642C11.7107 12.0555 11.7212 11.9891 11.8115 11.8903C11.8636 11.833 12.1257 11.858 11.7678 11.737C11.8822 11.5239 11.9886 11.197 12.2324 11.1059C12.304 11.0788 12.3487 11.2136 12.3665 11.2129C12.4524 11.2076 12.3272 11.064 12.3808 11.0339C12.47 10.9838 12.6912 10.9198 12.7607 10.8799C12.861 10.8226 12.7595 10.5503 12.7549 10.5265C12.7293 10.3936 12.9065 10.4876 12.9126 10.455C12.9461 10.2686 12.8996 10.1895 13.274 10.3869C13.1512 10.2461 13.0086 9.91801 13.2843 10.057C13.0594 9.89729 13.1864 9.7976 13.1847 9.68013C13.2602 9.71165 13.3355 9.74264 13.4114 9.77451C13.1219 9.3281 13.6427 9.21121 13.841 9.03142C13.8457 9.02676 13.6834 8.89822 13.7441 8.89288C13.7487 8.89305 13.8223 8.94982 13.8473 8.93519C13.929 8.88645 14.3095 8.74896 14.3331 8.71894C14.4204 8.60865 14.3083 8.49978 14.3456 8.42155C14.3945 8.31844 14.5177 8.38528 14.563 8.28628C14.5844 8.24008 14.4608 8.09731 14.5274 8.04774C14.5666 8.01826 14.687 8.09731 14.7177 8.07375C14.8276 7.99018 14.8089 7.85888 15.0295 7.87131C14.6726 7.58289 14.9807 7.73148 15.0421 7.70406C15.2925 7.59327 15.3025 7.24276 15.4525 7.10211C15.9214 6.66389 16.4729 6.37084 16.8781 5.90552C16.9438 5.82992 16.7697 5.67799 16.8417 5.60086C16.8742 5.56632 17.0382 5.6225 17.0844 5.56102C17.122 5.51187 17.1037 5.39078 17.1486 5.32801C17.1604 5.31124 17.2891 5.39957 17.3074 5.37558C17.4466 5.19356 17.4846 4.94694 17.5553 4.71398C17.5815 4.62757 17.7811 4.70324 17.4784 4.508C17.5695 4.53204 17.6507 4.55026 17.7396 4.57524C17.622 4.34826 17.8707 4.40557 17.915 4.24172C17.9192 4.22368 17.785 3.98201 17.9712 4.02949C17.8691 3.95174 17.774 3.89775 17.6802 3.8293C17.6789 3.74592 17.8597 3.74635 17.8983 3.7178C17.9369 3.68928 17.8182 3.5685 17.8248 3.55637C17.8513 3.51131 18.0234 3.64731 18.0287 3.64614C18.3401 3.5683 18.23 3.52204 18.0457 3.21307C17.9991 3.13534 18.3394 3.06991 18.1563 2.87938C18.2441 2.93841 18.3123 3.00338 18.3926 3.06476C18.458 3.01917 18.5243 2.97353 18.5898 2.92771C18.4975 2.88227 18.4033 2.83937 18.3113 2.79241C18.4719 2.71772 18.3494 2.47554 18.4281 2.37732C18.4733 2.32142 18.6519 2.45779 18.6361 2.39512C18.6329 2.38278 18.5008 2.30688 18.5049 2.27987C18.5392 2.05986 18.7206 2.08057 18.8604 1.93449C18.9261 1.86619 18.7478 1.64044 18.9736 1.63496C18.9945 1.6347 19.2706 1.66779 19.0306 1.39928C19.136 1.4418 19.1968 1.45658 19.2841 1.49436C18.953 1.05975 19.3443 1.39079 19.5715 1.27806C19.6894 1.21988 19.8381 0.84995 19.8648 0.715221C19.8801 0.634548 19.7119 0.517833 19.7129 0.502207C19.7202 0.409849 19.8825 0.524003 19.8983 0.444941C19.914 0.365812 19.7841 0.160435 19.8445 0.110313C19.8908 0.0719796 20.0662 0.251274 20.0452 0.13177C20.0403 0.106554 19.8399 0.0276115 19.9591 0.000921667C19.9777 -0.00341195 20.2459 0.00872505 20.303 0.0127009C20.3666 0.150444 20.3798 0.429263 20.3757 0.52768C20.3064 2.22393 18.6599 4.58036 17.6884 5.7601C17.5985 5.8699 17.3691 5.82163 17.3007 5.88628C17.2322 5.95095 17.4385 6.00071 17.377 6.05978C17.3149 6.11851 17.166 6.08826 17.111 6.14535C16.7399 6.52977 16.3625 6.91469 16.03 7.32103C15.9439 7.42655 16.0126 7.60764 15.9414 7.70872C15.9137 7.748 15.7437 7.6302 15.7255 7.65919C15.527 7.96972 15.4937 8.36281 15.2632 8.64838C15.1672 8.7668 14.9302 8.80091 14.8301 8.91469C14.7473 9.00821 14.7707 9.18203 14.7084 9.27473C14.675 9.32533 14.5278 9.26082 14.5051 9.27162C14.4275 9.31036 14.6002 9.39926 14.5778 9.43117C14.5153 9.51881 14.2945 9.42892 14.2513 9.52179C14.2345 9.55833 14.3585 9.63935 14.3443 9.69962C14.3261 9.77594 14.2299 9.6753 14.1959 9.71505C14.1937 9.71726 14.2861 9.76982 14.2737 9.79485C14.1942 9.9562 14.1347 10.1857 14.0301 10.3217C13.8142 10.6033 13.446 10.7722 13.2233 11.0193C13.1673 11.082 13.2929 11.1433 13.2831 11.1688C13.2354 11.2912 13.0742 11.2335 13.0458 11.3768C13.041 11.4006 13.1457 11.5836 13.057 11.6257C13.0091 11.6484 12.8816 11.6226 12.8362 11.6388C12.7908 11.6549 12.9307 11.761 12.9036 11.7997C12.8546 11.8704 12.7695 11.7799 12.7166 11.8931C12.695 11.9385 12.7357 12.1694 12.6519 12.2665C12.5151 12.4251 12.2423 12.549 12.0988 12.7486C12.0493 12.8168 12.1345 13.0092 12.0607 13.1171C11.9708 13.2492 11.7678 13.4663 11.6716 13.5988C11.6224 13.6666 11.4645 13.5628 11.4523 13.5665C11.3725 13.5886 11.56 13.6889 11.5284 13.7192C11.4851 13.7608 11.3262 13.7162 11.2869 13.7541C11.2619 13.7782 11.386 13.8722 11.3827 13.8789C11.2671 14.1325 11.1159 14.3222 10.9731 14.5545C10.206 15.8001 9.521 17.1205 8.60865 18.2604C8.53241 18.3561 8.36941 18.247 8.33285 18.3526C8.2958 18.4578 8.58243 18.7863 8.14919 18.5894C8.22473 18.6461 8.27991 18.6845 8.34853 18.7363C8.11204 18.8412 8.097 19.1019 7.98597 19.2891C7.90393 19.4277 7.80966 19.5355 7.71588 19.6509C7.63225 19.7529 7.50431 19.649 7.6143 19.8656C7.17881 20.2511 6.87641 20.7376 6.37098 21.068C6.58271 21.3779 6.32902 21.3535 6.18174 21.4724C6.16343 21.487 6.28219 21.5411 6.23494 21.5893C6.17583 21.6501 5.99067 21.5727 5.91845 21.6942C5.89946 21.7264 5.9181 22.0774 5.76823 22.097C5.61837 22.1165 5.47972 22.2 5.33152 22.2256C5.40897 22.2617 5.48575 22.2923 5.56319 22.3263C5.54458 22.378 5.52538 22.4296 5.50677 22.4812C5.41972 22.4294 5.33259 22.3775 5.24521 22.3251C5.30618 22.4056 5.36616 22.4854 5.42795 22.5668C4.96499 22.3229 5.14291 22.3642 5.16457 22.5615C5.17506 22.6601 5.06681 22.6564 5.06577 22.7493C5.0657 22.783 5.18052 22.8854 5.179 22.9216C5.17465 23.0097 5.02765 22.8531 5.00204 22.8914C4.97681 22.9305 5.1274 23.1179 4.99544 23.1267C4.70855 22.8187 4.67403 23.1012 4.92885 23.2952C4.91215 23.3199 4.88686 23.3328 4.87527 23.365C4.23182 22.8749 4.61086 23.3329 4.66568 23.4474C4.72038 23.5617 4.54422 23.4347 4.54279 23.4515C4.53802 23.4993 4.6293 23.5262 4.61492 23.552C4.51799 23.7212 4.30432 23.7945 4.18413 23.9443C4.16685 23.9658 4.28129 24.0165 4.25293 24.0358C4.22452 24.0552 4.10686 24.0101 4.08642 24.0539C4.08083 24.0655 4.16669 24.1308 4.15533 24.1472C3.9116 24.4851 3.60882 24.7558 3.35292 25.0953C3.3298 25.126 3.46919 25.261 3.421 25.318C3.37279 25.3749 3.16643 25.3676 3.10241 25.4353C3.08534 25.4533 3.21209 25.5506 3.18994 25.5747C3.11447 25.6567 2.95339 25.6597 2.87003 25.7414C2.72928 25.8794 2.69209 26.1015 2.50171 26.2081C2.4659 26.2285 2.36043 26.147 2.29877 26.1694C2.19241 26.2081 2.37131 26.2913 2.38177 26.3216C2.4151 26.4203 2.19292 26.2875 2.21298 26.3744C2.21614 26.3877 2.34877 26.4652 2.34604 26.4733C2.29504 26.592 1.99786 26.391 2.07783 26.6116C1.84037 26.5907 1.89781 26.387 1.82007 26.3072C1.63124 26.1131 1.29929 26.0413 1.17224 26.0474C1.06283 26.0525 1.19863 26.1475 1.1833 26.1694C1.10234 26.2855 1.00682 26.476 0.880567 26.5188C0.804445 26.545 0.815648 26.4091 0.751945 26.405C0.688472 26.4007 0.778009 26.4899 0.647227 26.4393C0.516406 26.3887 0.149026 26.2147 0.00022459 26.0939ZM7.57198 16.8836C7.9814 17.4371 7.59439 17.8684 7.36561 18.0853C7.17556 18.2649 6.63671 18.1559 7.26384 18.5325C7.42724 18.3087 7.49638 18.0833 7.68331 17.8565C7.70282 17.833 7.86278 17.7233 7.90906 17.6786C7.935 17.6533 8.03421 17.7218 8.06108 17.6815C8.06664 17.6725 7.9715 17.5341 7.98726 17.5191C8.04077 17.4673 8.36366 17.4284 8.37544 17.3996C8.40711 17.3188 8.23532 17.2375 8.22843 17.1882C8.20671 17.0235 8.44454 17.1744 8.43948 17.0228C8.43858 16.9957 8.27939 16.7959 8.35723 16.741C8.38912 16.7189 8.52836 16.741 8.53947 16.7147C8.60026 16.5715 8.56086 16.3362 8.66375 16.2383C8.74828 16.1582 8.88538 16.2922 8.9409 16.2575C8.99585 16.2223 8.85832 16.0364 8.87169 15.9953C8.89342 15.9299 9.04157 15.9359 9.05188 15.9181C9.2541 15.5666 9.34256 15.1897 9.52421 14.8412C9.30121 15.0078 9.0842 15.1782 8.85971 15.3416C8.93412 15.5765 8.82657 15.41 8.72006 15.4551C8.63575 15.4908 8.89644 15.6973 8.80755 15.7597C8.8076 15.7596 8.80765 15.7596 8.8077 15.7595C8.76155 15.7914 8.5078 15.7525 8.52189 15.8996C8.5226 15.905 8.65775 16.0123 8.61436 16.0845C8.51659 16.2466 8.42238 16.534 8.26996 16.6866C8.22517 16.7313 8.08448 16.6168 8.02373 16.6642C7.97952 16.6989 8.08049 16.8461 8.00141 16.8935C7.90152 16.9524 7.63697 16.8282 7.9222 17.1177C7.802 17.0405 7.68987 16.9579 7.57198 16.8836ZM4.49803 21.8564C4.47657 21.8594 3.99715 21.7651 4.42086 21.9912C4.74379 21.8918 4.82595 21.5965 5.0827 21.4335C4.64206 21.2407 4.70053 21.4804 4.61531 21.6614C4.61526 21.6615 4.61522 21.6616 4.61517 21.6616C4.61112 21.6702 4.53278 21.5675 4.52059 21.6236C4.51475 21.6508 4.61253 21.8398 4.49803 21.8564Z" fill="var(--stroke-0, #CEBD9D)"/>
</svg>
