<svg preserveAspectRatio="none" width="100%" height="100%" overflow="visible" style="display: block;" viewBox="0 0 304 3" fill="none" xmlns="http://www.w3.org/2000/svg">
<path id="Vector 95" d="M0.0150114 0.185519C2.02879 0.0258214 4.03992 -0.0424286 6.11139 0.0271282C6.5834 0.0428575 6.53892 0.166287 6.73297 0.186251C7.08961 0.223122 7.68813 0.0899352 7.77203 0.0899352C8.29276 0.088238 8.08927 0.304277 8.15936 0.312598C8.9407 0.400308 8.71581 0.154232 9.46283 0.130586C10.4356 0.0997343 11.6839 0.143752 12.856 0.155855C13.2676 0.160694 13.0844 0.325162 13.9728 0.311316C14.6021 0.301636 16.5327 0.114183 17.4216 0.314429C17.4269 0.390042 17.3146 0.473525 17.2674 0.551557C18.5417 0.236412 18.9978 0.250238 20.8044 0.327064C21.0902 0.339163 21.3608 0.209689 21.8643 0.257481C22.3676 0.305314 22.3888 0.504903 23.4009 0.502484C23.7598 0.501146 23.9777 0.360394 24.5281 0.354347C26.0936 0.33681 29.0751 0.511632 30.3601 0.517682C32.8904 0.529773 34.2672 0.289553 36.5144 0.373024C36.6875 0.379074 36.3073 0.533328 36.6246 0.536359C36.9445 0.539384 37.2777 0.335016 37.3563 0.330176C38.2058 0.277573 40.001 0.551357 40.4735 0.518231C41.6221 0.437165 40.4903 0.347104 42.082 0.308386C43.5976 0.271542 45.6902 0.537621 47.1926 0.589644C48.9337 0.6501 49.4951 0.263602 50.8062 0.6671C55.4107 0.643508 60.0336 0.629072 64.6433 0.608505C64.6302 0.688941 64.615 0.769408 64.5993 0.849845C64.9637 0.794188 65.3283 0.738448 65.6928 0.683397C65.6378 0.743272 65.5855 0.803209 65.5305 0.862479C67.2425 0.631441 68.7683 0.512254 70.7687 0.575728C70.8078 0.576931 70.705 0.737309 70.7374 0.741443C71.1884 0.771692 71.6924 0.648316 72.0884 0.677354C73.0455 0.746926 74.6713 1.09663 73.9555 0.668931C76.1869 0.757241 78.8089 0.612637 80.9355 0.695482C81.8557 0.731167 82.1314 0.98464 82.5718 0.999263C83.0118 1.01376 82.7878 0.795958 82.944 0.787587C83.8828 0.739192 85.4277 0.748178 85.5904 0.991938C85.7792 0.894571 85.9789 0.796018 86.1702 0.698046C86.0581 0.968319 88.9589 0.856605 89.72 0.863212C89.859 0.864422 89.8783 0.982894 89.9832 0.981684C91.1522 0.96651 91.438 0.780815 92.4394 0.719103C92.7908 0.697325 92.2459 0.90611 93.148 0.815969C93.2266 0.808052 93.1848 0.620479 94.2624 0.621689C95.9826 0.623499 99.2733 0.549104 101.321 0.641648C101.489 0.648906 100.978 0.853375 101.746 0.805715C102.024 0.788776 101.891 0.64359 102.564 0.64238C105.176 0.636333 107.961 0.803256 110.625 0.66472C110.528 0.82866 109.579 1.01256 111.006 0.909722C111.234 0.892743 111.063 0.746337 111.166 0.740894C111.994 0.698587 112.713 0.803168 113.609 0.746936C113.874 0.729997 113.94 0.615037 114.27 0.587813C114.758 0.547302 114.974 0.711216 115.54 0.641648C116.426 0.532156 116.563 0.376771 117.661 0.681566C123.886 0.662206 130.082 0.576391 136.286 0.71068C138.08 0.623568 139.735 0.526239 141.605 0.492962C142.155 0.483283 142.261 0.691348 143.139 0.622421C143.336 0.607297 144.739 0.383984 144.943 0.804433C145.334 0.76816 145.581 0.766934 145.916 0.744556C145.662 0.682849 145.399 0.620461 145.156 0.558149C146.572 0.625298 147.728 0.477076 148.981 0.4069C149.904 0.355509 149.249 0.53581 149.815 0.517682C150.382 0.500138 150.639 0.45957 151.347 0.675523C151.903 0.426385 152.272 0.601118 153.298 0.607772C153.408 0.608373 154.045 0.51176 154.577 0.531049C154.959 0.544959 155.073 0.700329 155.681 0.676256C155.78 0.672626 157.066 0.480117 157.475 0.462565C158.112 0.434737 159.125 0.633918 159.248 0.636337C161.039 0.67139 161.729 0.474754 163.001 0.79839C163.258 0.606055 164.319 0.493484 165.176 0.512188C166.259 0.535782 168.431 0.929052 168.727 0.51347C169.98 0.698566 169.844 0.584328 171.33 0.580672C172.683 0.577042 176.265 0.736011 177.362 0.713061C178.458 0.690677 177.924 0.459543 178.359 0.42869C179.072 0.377397 178.687 0.547934 179.174 0.545515C180.554 0.538253 181.752 0.505661 183.069 0.431253C183.139 0.55099 183.216 0.671329 183.289 0.791066C183.357 0.751163 183.425 0.711214 183.493 0.671312C183.776 0.672521 184.094 0.670063 184.356 0.673692C182.143 0.148065 186.493 0.71257 187.799 0.725879C188.9 0.736766 190.734 0.487476 191.942 0.433634C192.236 0.42039 192.034 0.549774 192.094 0.546796C192.802 0.509893 192.91 0.421535 193.862 0.433634C194.365 0.440295 194.879 0.60232 195.369 0.605392C198.97 0.62717 202.444 0.464371 206.021 0.446818C206.629 0.443793 207.154 0.641586 207.665 0.645859C208.397 0.651908 208.858 0.489961 209.545 0.487468C210.229 0.485049 211.216 0.678589 211.68 0.648972C212.144 0.619933 211.35 0.432384 212.199 0.483806C212.59 0.507438 211.9 0.647103 212.383 0.651353C213.888 0.664661 216.012 0.491692 217.614 0.659226C217.543 0.617496 217.447 0.579939 217.36 0.540021C219.067 0.556359 220.575 0.656793 222.337 0.671312C222.954 0.676709 224.065 0.554094 224.671 0.55467C225.276 0.555275 225.552 0.688318 226.037 0.692003C226.236 0.693818 226.158 0.57459 226.292 0.57701C227.964 0.608495 228.882 0.820731 230.634 0.796559C237.05 0.708234 243.667 0.631963 250.183 0.552107C250.445 0.548946 250.622 0.393622 251.004 0.370644C251.594 0.335075 251.623 0.472376 251.701 0.477214C252.215 0.507431 252.006 0.380349 252.695 0.380349C254.213 0.38035 256.663 0.492936 258.176 0.483257C261.663 0.460873 264.595 0.339825 268.014 0.278722C268.261 0.273883 268.094 0.457765 268.521 0.460185C271.534 0.479519 272.171 0.303461 275.921 0.353065C279.671 0.402675 286.749 0.514064 291.138 0.539472C291.138 0.539899 291.138 0.540326 291.138 0.540754C292.52 0.200794 294.308 0.28535 295.792 0.542402C287.233 1.38089 279.044 1.00774 269.902 1.04101C260.294 1.0755 250.052 1.68474 240.316 1.60188C239.4 1.59402 239.033 1.40039 238.262 1.44093C238.132 1.44778 238.469 1.597 238.068 1.61213C232.562 1.8154 226.69 1.4753 221.283 1.56965C219.825 1.59506 219.597 1.76144 218.314 1.8044C218.54 1.72578 218.687 1.64357 218.884 1.56434C213.031 1.31872 207.17 1.42822 201.241 1.39313C200.973 1.39128 200.939 1.22852 200.658 1.22247C200.097 1.2098 199.56 1.38887 199.07 1.39497C198.43 1.40283 198.319 1.27333 197.729 1.2818C197.441 1.28614 197.527 1.41059 196.901 1.38947C196.849 1.38766 196.814 1.25709 196.398 1.27393C195.257 1.32051 192.926 1.43004 191.982 1.46272C190.776 1.50445 189.808 1.30777 189.352 1.29499C188.119 1.26051 188.145 1.46191 187.102 1.46198C179.676 1.46319 172.576 1.23403 164.974 1.23584C164.497 1.23593 162.73 1.46017 161.847 1.45118C161.551 1.44755 160.002 1.38832 159.77 1.38343C158.828 1.36467 158.015 1.22912 157.496 1.20068C156.489 1.14508 155.364 1.35676 154.816 1.37794C153.853 1.41542 152.144 1.3876 151.74 1.38215C150.765 1.36884 151.087 1.10699 150.387 1.16809C150.18 1.18634 150.397 1.38709 149.668 1.38709C149.057 1.38641 148.81 1.23523 148.393 1.20801C147.977 1.18095 147.212 1.41475 146.952 1.40888C145.594 1.37621 144.992 1.22301 143.514 1.21515C142.285 1.20913 136.609 1.3163 136.137 1.37134C134.023 1.61732 137.543 1.50697 137.742 1.51527C138.814 1.56306 138.657 1.65744 139.727 1.47718C140.684 2.03314 144.02 1.16751 144.875 1.82692C145.759 1.38771 146.501 1.60914 147.432 1.69746C148.719 1.81954 147.739 1.56359 148.678 1.56178C149.048 1.5613 150.12 1.76081 150.676 1.73299C151.231 1.7051 151.465 1.55212 152.21 1.54365C153.539 1.52795 154.609 1.59935 155.726 1.78261C155.93 1.70157 156.121 1.62048 156.323 1.53944C157.094 1.62655 157.868 1.71313 158.639 1.79964C158.516 1.72886 158.392 1.65746 158.269 1.58668C158.495 1.5764 158.721 1.5667 158.946 1.55702C159.696 1.66348 160.412 1.76206 161.183 1.87215C163.278 1.46272 162.67 1.81709 163.834 1.87032C164.998 1.9235 165.672 1.68647 166.571 1.6852C167.783 1.68338 168.339 1.6538 169.561 1.67073C170.269 1.68041 171.47 1.90912 170.484 1.54676C172.695 1.51773 175.721 1.4166 177.698 1.56361C178.282 1.6065 177.504 1.72063 177.603 1.73482C178.099 1.80195 178.516 1.61694 179.027 1.64345C179.877 1.6876 181.531 1.83165 182.2 1.86556C183.162 1.91456 184.675 1.67491 184.83 1.65736C185.695 1.56001 185.927 1.75899 186.204 1.74526C187.786 1.6654 188.135 1.58184 188.633 2.00161C189.042 1.82012 190.757 1.51473 191.171 1.82015C191.182 1.54433 192.605 1.59082 193.481 1.52186C193.644 1.60172 193.809 1.68109 193.972 1.76155C195.799 1.26791 199.439 1.62649 201.844 1.6852C201.904 1.68641 202.012 1.47967 202.374 1.52626C202.397 1.53008 202.359 1.62298 202.602 1.63502C203.402 1.67376 206.454 1.90582 206.805 1.90786C208.098 1.91572 208.323 1.76142 209.11 1.7469C210.146 1.72755 210.295 1.86679 211.281 1.84688C211.742 1.83781 212.162 1.65453 212.888 1.68043C213.318 1.69555 213.361 1.83949 213.701 1.85109C214.913 1.89284 215.802 1.802 216.878 1.98953C217.158 1.53167 217.672 1.86914 218.204 1.90365C220.365 2.0446 223.058 1.85112 224.912 1.89284C230.696 2.02412 235.826 2.3065 241.476 2.37003C242.394 2.38031 242.615 2.15043 243.578 2.16495C244.01 2.17168 244.456 2.33813 245.164 2.34055C245.733 2.34293 246.548 2.25832 247.259 2.25888C247.447 2.25888 247.464 2.41496 247.742 2.41617C249.85 2.42523 251.909 2.31441 254.038 2.23819C254.827 2.20983 255.315 2.41663 255.181 2.05673C255.483 2.14504 255.776 2.22195 256.059 2.30905C257.145 2.08219 258.032 2.31861 259.5 2.26053C259.658 2.25361 260.767 2.00478 261.396 2.18436C261.441 2.05613 261.343 1.94726 261.361 1.83113C261.983 1.78214 262.937 1.93023 263.357 1.9454C263.776 1.9605 264.057 1.79394 264.183 1.79232C264.663 1.78808 264.551 2.00714 264.588 2.01077C266.824 2.22065 266.589 2.10395 267.939 1.77547C268.277 1.69261 270.573 1.93326 271.038 1.67384C271.059 1.77966 270.931 1.87279 270.894 1.97378C271.583 2.001 272.278 2.02895 272.971 2.05618C272.824 1.95454 272.648 1.85281 272.514 1.75057C273.927 1.83888 275.102 1.5994 276.258 1.60719C276.919 1.61203 276.839 1.83656 277.227 1.78755C277.303 1.77785 277.174 1.62614 277.4 1.61397C279.238 1.51536 280.043 1.67564 281.884 1.70589C282.747 1.72033 283.501 1.44458 284.739 1.62605C284.852 1.64304 286.066 1.88789 286.816 1.53706C287.055 1.64777 287.265 1.70592 287.443 1.79909C288.962 1.27821 288.542 1.78869 290.595 1.90969C291.658 1.97256 295.232 1.88129 296.388 1.82564C297.077 1.79173 297.064 1.587 297.187 1.57881C297.921 1.53163 297.922 1.73007 298.601 1.69746C299.28 1.6648 300.138 1.44032 300.835 1.46088C301.37 1.47673 300.948 1.72329 301.737 1.6374C301.901 1.61881 301.434 1.40957 302.266 1.49165C302.397 1.50435 303.727 1.73068 304 1.77968C303.3 1.91096 301.27 2.08223 300.507 2.13546C287.367 3.055 260.897 3.06457 246.865 2.94903C245.562 2.93871 244.71 2.72333 243.861 2.70457C243.011 2.68582 243.729 2.88314 242.959 2.86681C242.188 2.84987 241.626 2.71063 240.905 2.69853C236.043 2.61626 231.145 2.52918 226.323 2.49107C225.072 2.48139 224.073 2.64177 222.935 2.64177C222.492 2.64167 222.478 2.43487 222.163 2.43668C218.773 2.45303 215.637 2.65205 212.264 2.62785C210.864 2.61754 209.351 2.44332 207.964 2.42698C206.821 2.41307 205.636 2.53218 204.608 2.53465C204.05 2.53646 203.756 2.37895 203.554 2.36655C202.851 2.32541 203.097 2.5178 202.738 2.5178C201.747 2.51715 201.254 2.28487 200.326 2.30301C199.961 2.31027 200.008 2.45829 199.479 2.48136C198.808 2.51039 199.056 2.37384 198.577 2.36893C198.548 2.36833 198.642 2.47416 198.388 2.47843C196.752 2.50626 194.709 2.5897 193.13 2.58244C189.865 2.56791 186.643 2.364 183.601 2.32407C182.833 2.31439 183.037 2.45237 182.793 2.45902C181.618 2.49044 181.199 2.3254 179.969 2.38468C179.764 2.39439 178.941 2.58542 178.154 2.53703C177.729 2.51097 177.247 2.39181 176.885 2.36399C176.524 2.33617 176.465 2.51164 176.031 2.51176C175.239 2.51236 175.469 2.39074 174.336 2.41251C173.88 2.42098 172.357 2.58722 171.182 2.57456C169.263 2.554 166.884 2.40211 164.621 2.39969C163.844 2.39848 162.847 2.57879 161.644 2.58061C160.173 2.58301 157.462 2.54202 155.954 2.53959C155.183 2.53838 155.128 2.34951 155.036 2.34165C154.446 2.28911 154.685 2.50012 154.289 2.4918C153.746 2.4803 153.24 2.32465 152.747 2.31436C152.432 2.30778 152.382 2.4633 152.314 2.46451C149.792 2.51594 147.563 2.50141 145.056 2.51835C131.612 2.60788 118.039 2.80753 104.621 2.71739C103.496 2.71013 103.453 2.51405 102.465 2.5449C101.476 2.57515 100.521 2.99863 99.7082 2.53098C99.682 2.62536 99.6846 2.69264 99.6583 2.77855C97.6157 2.64549 95.5728 2.78322 93.5747 2.80016C92.0959 2.81285 90.7845 2.79781 89.4185 2.78752C88.2076 2.77781 88.3122 2.61338 87.2638 2.82799C82.0534 2.69369 76.7869 2.72639 71.621 2.50315C70.4095 2.85464 69.2483 2.63318 67.5726 2.58116C67.3658 2.57458 67.5877 2.70282 66.9743 2.69194C66.2038 2.67854 65.805 2.4826 64.5076 2.49345C64.1641 2.49647 61.6198 2.71371 60.6784 2.6024C59.737 2.4911 58.3734 2.42577 57.3954 2.31931C57.5344 2.40339 57.7104 2.48382 57.8651 2.56669C57.3773 2.58121 56.887 2.5952 56.3992 2.60972C56.3284 2.50869 56.2575 2.40758 56.1893 2.30594C55.9062 2.40213 55.6228 2.49713 55.337 2.59452C54.7208 2.07552 55.3525 2.2448 53.9813 2.37607C53.2943 2.44141 52.7489 2.35073 52.0435 2.40336C51.7894 2.4227 51.6268 2.57553 51.3466 2.59507C50.6597 2.64225 51.06 2.43191 50.6357 2.43302C50.2083 2.43483 49.5946 2.66587 48.8289 2.56303C49.6283 2.15113 47.3178 2.2855 47.2077 2.60551C46.9327 2.6061 46.7021 2.5928 46.3983 2.60185C46.6789 1.79361 45.2385 2.36717 44.6669 2.47788C44.0956 2.58843 44.1187 2.37127 43.985 2.37973C43.5998 2.40334 43.8803 2.49351 43.6104 2.49656C41.822 2.51471 40.1381 2.38213 38.3734 2.37003C38.1195 2.36831 38.3446 2.49103 38.0486 2.47898C37.7523 2.46688 37.4684 2.34471 37.0305 2.35318C36.913 2.35533 36.876 2.46313 36.693 2.46323C32.8566 2.45839 29.214 2.36655 25.3016 2.35263C24.9476 2.35142 24.6697 2.5431 23.9854 2.53648C23.3011 2.52982 22.2627 2.35684 21.4132 2.34348C21.1877 2.33985 21.1265 2.49951 20.8276 2.49528C19.8103 2.48073 18.934 2.35073 17.8774 2.32956C16.0919 2.2939 14.2224 2.3913 12.4107 2.29697C12.0672 2.27943 12.1221 2.14626 11.6268 2.10873C10.7719 2.044 11.0936 2.23818 10.9205 2.26419C10.3543 2.34822 10.1764 2.09014 9.62866 2.15652C9.54491 2.16679 9.66437 2.31984 9.58923 2.32224C8.42494 2.34886 8.36381 1.99014 7.1261 2.18252C6.02542 1.97628 7.86389 1.90602 8.05267 1.79653C8.51376 1.53038 7.29487 1.21763 6.57641 1.11719C5.9577 1.0307 5.96226 1.19639 5.71594 1.19647C4.41278 1.19708 2.47213 1.22858 1.48083 1.14996C0.88033 1.10278 1.96275 1.03375 1.65594 0.979304C1.35186 0.92493 1.15499 1.04946 0.843015 0.913384C0.530963 0.777265 -0.105613 0.37669 0.0150114 0.185519ZM109.495 1.07727C107.496 1.73061 102.197 1.66236 99.3522 1.60005C96.9921 1.54802 94.9576 1.04462 95.4453 1.77419C97.9965 1.77902 100.06 1.70585 102.758 1.72823C103.039 1.73065 104.712 1.79834 105.294 1.81044C105.622 1.81712 105.633 1.93763 106.078 1.93642C106.175 1.93581 106.713 1.77838 106.91 1.78261C107.583 1.79656 109.587 2.03825 109.867 2.03127C110.643 2.01072 110.345 1.8234 110.68 1.78939C111.805 1.67686 111.929 1.95819 113.043 1.86684C113.243 1.85051 113.903 1.60534 114.729 1.6374C115.065 1.65074 115.637 1.77731 115.894 1.77126C117.294 1.73858 118.857 1.57094 120.139 1.59877C121.19 1.62179 120.908 1.81104 121.464 1.83644C122.019 1.86116 122.691 1.64168 123.071 1.62898C123.679 1.60907 124.419 1.7337 124.607 1.73189C128.326 1.69498 131.632 1.55045 135.22 1.49842C132.783 1.41191 130.35 1.33252 127.93 1.24298C126.556 1.43899 127.24 1.2552 126.335 1.19409C125.62 1.1457 125.446 1.4777 124.505 1.44093C124.506 1.44093 124.507 1.44093 124.508 1.44093C124.023 1.42157 122.971 1.19165 121.938 1.28785C121.901 1.29151 121.809 1.46381 121.036 1.46986C119.297 1.48317 116.633 1.57156 114.677 1.53468C114.103 1.52379 114.22 1.34282 113.541 1.32044C113.045 1.30425 112.471 1.47157 111.696 1.43415C110.723 1.38636 110.256 1.09854 109.587 1.49842C109.532 1.35565 109.56 1.21641 109.495 1.07727ZM55.7591 1.42518C55.6225 1.40937 53.7924 0.963016 54.335 1.43964C56.7947 1.64654 59.454 1.54377 62.0422 1.65993C61.1585 1.18865 59.6634 1.3744 57.8488 1.40888C57.8481 1.40888 57.8473 1.40888 57.8465 1.40888C57.7608 1.41049 58.119 1.28732 57.632 1.30964C57.396 1.32052 56.4907 1.50927 55.7591 1.42518Z" fill="var(--stroke-0, #CEBD9D)"/>
</svg>
