<svg preserveAspectRatio="none" width="100%" height="100%" overflow="visible" style="display: block;" viewBox="0 0 32 32" fill="none" xmlns="http://www.w3.org/2000/svg">
<g id="menu_24dp_E8EAED_FILL0_wght400_GRAD0_opsz24 (1) 1">
<path id="Vector" d="M11.0302 4.08393C9.75336 4.14417 8.88143 4.34793 8.11918 4.64745C7.33029 4.95489 6.66165 5.36745 5.99636 6.03513C5.33107 6.70281 4.92139 7.37194 4.61611 8.16202C4.32066 8.92594 4.1205 9.79859 4.0641 11.0761C4.0077 12.3536 3.99522 12.7643 4.00146 16.023C4.0077 19.2817 4.0221 19.6902 4.08402 20.9704C4.14498 22.2469 4.34802 23.1186 4.64755 23.8811C4.95547 24.67 5.36755 25.3384 6.03548 26.0039C6.70341 26.6694 7.37205 27.0782 8.16406 27.3839C8.92727 27.6789 9.80016 27.88 11.0775 27.9359C12.3547 27.9918 12.7659 28.0048 16.0237 27.9986C19.2815 27.9923 19.6916 27.9779 20.9716 27.9172C22.2515 27.8565 23.1186 27.652 23.8813 27.3539C24.6702 27.0453 25.3391 26.6339 26.0042 25.9658C26.6692 25.2976 27.0787 24.628 27.3837 23.8374C27.6794 23.0742 27.8803 22.2013 27.9357 20.925C27.9916 19.6441 28.0048 19.2352 27.9986 15.9769C27.9923 12.7187 27.9777 12.3102 27.917 11.0305C27.8563 9.75083 27.653 8.88178 27.3537 8.11882C27.0453 7.32994 26.6337 6.66201 25.966 5.99601C25.2983 5.33001 24.6282 4.92081 23.8379 4.61649C23.0742 4.32105 22.2018 4.11969 20.9245 4.06449C19.6472 4.00929 19.2361 3.99513 15.9771 4.00137C12.7181 4.00761 12.3101 4.02153 11.0302 4.08393ZM11.1703 25.7771C10.0003 25.7262 9.36503 25.5318 8.94167 25.3691C8.38102 25.1531 7.98166 24.892 7.55974 24.4742C7.13781 24.0563 6.87861 23.6555 6.65973 23.0961C6.49532 22.6727 6.29732 22.0381 6.2426 20.8681C6.18308 19.6036 6.1706 19.2239 6.16364 16.0201C6.15668 12.8164 6.16892 12.4372 6.22436 11.1721C6.27428 10.0031 6.46988 9.36706 6.63237 8.94394C6.84837 8.38258 7.10853 7.98394 7.52734 7.56226C7.94614 7.14058 8.34574 6.8809 8.90567 6.66201C9.32855 6.49689 9.96312 6.30057 11.1327 6.24489C12.3982 6.18489 12.7774 6.17289 15.9807 6.16593C19.184 6.15897 19.5642 6.17097 20.8302 6.22665C21.9992 6.27753 22.6355 6.47121 23.0581 6.63465C23.619 6.85066 24.0181 7.1101 24.4398 7.52962C24.8615 7.94914 25.1214 8.3473 25.3403 8.90842C25.5057 9.3301 25.702 9.96443 25.7572 11.1347C25.8174 12.4002 25.8311 12.7796 25.8369 15.9827C25.8426 19.1857 25.8314 19.5661 25.7759 20.8307C25.7248 22.0007 25.5309 22.6362 25.3679 23.0601C25.1519 23.6205 24.8915 24.0201 24.4725 24.4415C24.0534 24.863 23.6543 25.1226 23.0941 25.3415C22.6717 25.5064 22.0364 25.7032 20.8679 25.7589C19.6023 25.8184 19.2231 25.8309 16.0186 25.8378C12.8141 25.8448 12.4361 25.8318 11.1706 25.7771M20.9531 9.58642C20.9535 9.87125 21.0385 10.1495 21.1971 10.3861C21.3558 10.6226 21.581 10.8068 21.8443 10.9154C22.1077 11.0239 22.3973 11.0519 22.6765 10.9959C22.9558 10.9398 23.2122 10.8022 23.4132 10.6004C23.6142 10.3986 23.7509 10.1418 23.806 9.8623C23.861 9.58285 23.8319 9.29334 23.7224 9.03041C23.6129 8.76747 23.4279 8.54292 23.1908 8.38514C22.9536 8.22736 22.675 8.14345 22.3902 8.14402C22.0084 8.14478 21.6425 8.29716 21.373 8.56765C21.1035 8.83814 20.9524 9.20459 20.9531 9.58642ZM9.83856 16.012C9.84528 19.4152 12.6091 22.1677 16.0117 22.1613C19.4142 22.1548 22.1687 19.3912 22.1622 15.988C22.1557 12.5848 19.3911 9.83147 15.9881 9.83819C12.5851 9.84491 9.83208 12.6092 9.83856 16.012ZM12 16.0076C11.9985 15.2165 12.2315 14.4427 12.6698 13.784C13.108 13.1253 13.7317 12.6114 14.462 12.3072C15.1924 12.003 15.9965 11.9222 16.7727 12.075C17.549 12.2278 18.2625 12.6073 18.823 13.1656C19.3836 13.724 19.766 14.436 19.9218 15.2116C20.0777 15.9872 20.0001 16.7917 19.6988 17.5232C19.3975 18.2547 18.886 18.8804 18.2291 19.3213C17.5721 19.7621 16.7992 19.9983 16.0081 19.9998C15.4827 20.0009 14.9623 19.8985 14.4766 19.6985C13.9909 19.4985 13.5493 19.2047 13.1771 18.834C12.8049 18.4632 12.5094 18.0228 12.3074 17.5379C12.1054 17.0529 12.001 16.533 12 16.0076Z" fill="var(--fill-0, white)"/>
</g>
</svg>
