<svg preserveAspectRatio="none" width="100%" height="100%" overflow="visible" style="display: block;" viewBox="0 0 24 24" fill="none" xmlns="http://www.w3.org/2000/svg">
<g id="menu_24dp_E8EAED_FILL0_wght200_GRAD0_opsz24 1">
<path id="Vector" d="M4.5 17.269C4.35833 17.269 4.23958 17.221 4.14375 17.125C4.04792 17.029 4 16.9101 4 16.7682C4 16.6264 4.04792 16.5077 4.14375 16.4122C4.23958 16.3167 4.35833 16.269 4.5 16.269H19.5C19.6417 16.269 19.7604 16.317 19.8563 16.413C19.9521 16.5088 20 16.6277 20 16.7697C20 16.9116 19.9521 17.0302 19.8563 17.1257C19.7604 17.2212 19.6417 17.269 19.5 17.269H4.5ZM4.5 12.4997C4.35833 12.4997 4.23958 12.4517 4.14375 12.3557C4.04792 12.2597 4 12.1408 4 11.999C4 11.8571 4.04792 11.7385 4.14375 11.643C4.23958 11.5475 4.35833 11.4997 4.5 11.4997H19.5C19.6417 11.4997 19.7604 11.5477 19.8563 11.6437C19.9521 11.7397 20 11.8586 20 12.0005C20 12.1423 19.9521 12.261 19.8563 12.3565C19.7604 12.452 19.6417 12.4997 19.5 12.4997H4.5ZM4.5 7.73047C4.35833 7.73047 4.23958 7.68247 4.14375 7.58647C4.04792 7.49064 4 7.37172 4 7.22972C4 7.08789 4.04792 6.96922 4.14375 6.87372C4.23958 6.77822 4.35833 6.73047 4.5 6.73047H19.5C19.6417 6.73047 19.7604 6.77847 19.8563 6.87447C19.9521 6.97047 20 7.08939 20 7.23122C20 7.37305 19.9521 7.49172 19.8563 7.58722C19.7604 7.68272 19.6417 7.73047 19.5 7.73047H4.5Z" fill="var(--fill-0, #333333)"/>
</g>
</svg>
