<svg preserveAspectRatio="none" width="100%" height="100%" overflow="visible" style="display: block;" viewBox="0 0 450 3" fill="none" xmlns="http://www.w3.org/2000/svg">
<path id="Vector 95" d="M0.0222208 0.185519C3.00315 0.0258214 5.98015 -0.0424286 9.04646 0.0271282C9.74516 0.0428575 9.67932 0.166287 9.96657 0.186251C10.4945 0.223122 11.3805 0.0899352 11.5047 0.0899352C12.2755 0.088238 11.9743 0.304277 12.078 0.312598C13.2346 0.400308 12.9017 0.154232 14.0075 0.130586C15.4475 0.0997343 17.2953 0.143752 19.0303 0.155855C19.6396 0.160694 19.3683 0.325162 20.6834 0.311316C21.615 0.301636 24.4727 0.114183 25.7886 0.314429C25.7963 0.390042 25.6302 0.473525 25.5603 0.551557C27.4466 0.236412 28.1217 0.250238 30.796 0.327064C31.2191 0.339163 31.6197 0.209689 32.3649 0.257481C33.1099 0.305314 33.1414 0.504903 34.6395 0.502484C35.1708 0.501146 35.4932 0.360394 36.308 0.354347C38.6254 0.33681 43.0389 0.511632 44.9409 0.517682C48.6865 0.529773 50.7245 0.289553 54.0509 0.373024C54.3071 0.379074 53.7444 0.533328 54.214 0.536359C54.6876 0.539384 55.1807 0.335016 55.2972 0.330176C56.5546 0.277573 59.2121 0.551357 59.9115 0.518231C61.6116 0.437165 59.9362 0.347104 62.2924 0.308386C64.536 0.271542 67.6335 0.537621 69.8575 0.589644C72.4347 0.6501 73.2658 0.263602 75.2065 0.6671C82.0224 0.643508 88.8655 0.629072 95.6891 0.608505C95.6697 0.688941 95.6472 0.769408 95.6239 0.849845C96.1634 0.794188 96.7031 0.738448 97.2427 0.683397C97.1612 0.743272 97.0838 0.803209 97.0023 0.862479C99.5366 0.631441 101.795 0.512254 104.756 0.575728C104.814 0.576931 104.662 0.737309 104.71 0.741443C105.378 0.771692 106.124 0.648316 106.71 0.677354C108.127 0.746926 110.533 1.09663 109.474 0.668931C112.777 0.757241 116.658 0.612637 119.806 0.695482C121.168 0.731167 121.576 0.98464 122.228 0.999263C122.879 1.01376 122.548 0.795958 122.779 0.787587C124.169 0.739192 126.455 0.748178 126.696 0.991938C126.976 0.894571 127.271 0.796018 127.555 0.698046C127.389 0.968319 131.683 0.856605 132.809 0.863212C133.015 0.864422 133.044 0.982894 133.199 0.981684C134.929 0.96651 135.352 0.780815 136.835 0.719103C137.355 0.697325 136.548 0.90611 137.884 0.815969C138 0.808052 137.938 0.620479 139.533 0.621689C142.08 0.623499 146.951 0.549104 149.982 0.641648C150.231 0.648906 149.474 0.853375 150.61 0.805715C151.022 0.788776 150.825 0.64359 151.822 0.64238C155.689 0.636333 159.811 0.803256 163.755 0.66472C163.611 0.82866 162.206 1.01256 164.318 0.909722C164.655 0.892743 164.403 0.746337 164.555 0.740894C165.781 0.698587 166.844 0.803168 168.171 0.746936C168.563 0.729997 168.661 0.615037 169.15 0.587813C169.872 0.547302 170.191 0.711216 171.03 0.641648C172.341 0.532156 172.543 0.376771 174.169 0.681566C183.384 0.662206 192.556 0.576391 201.74 0.71068C204.395 0.623568 206.845 0.526239 209.612 0.492962C210.427 0.483283 210.583 0.691348 211.883 0.622421C212.174 0.607297 214.252 0.383984 214.554 0.804433C215.132 0.76816 215.498 0.766934 215.995 0.744556C215.618 0.682849 215.229 0.620461 214.868 0.558149C216.965 0.625298 218.676 0.477076 220.532 0.4069C221.898 0.355509 220.928 0.53581 221.766 0.517682C222.604 0.500138 222.986 0.45957 224.034 0.675523C224.856 0.426385 225.403 0.601118 226.921 0.607772C227.084 0.608373 228.026 0.51176 228.814 0.531049C229.381 0.544959 229.549 0.700329 230.448 0.676256C230.596 0.672626 232.498 0.480117 233.104 0.462565C234.047 0.434737 235.546 0.633918 235.729 0.636337C238.38 0.67139 239.401 0.474754 241.284 0.79839C241.664 0.606055 243.235 0.493484 244.504 0.512188C246.107 0.535782 249.322 0.929052 249.76 0.51347C251.616 0.698566 251.414 0.584328 253.614 0.580672C255.617 0.577042 260.919 0.736011 262.542 0.713061C264.165 0.690677 263.374 0.459543 264.019 0.42869C265.073 0.377397 264.504 0.547934 265.225 0.545515C267.267 0.538253 269.041 0.505661 270.99 0.431253C271.095 0.55099 271.207 0.671329 271.316 0.791066C271.417 0.751163 271.517 0.711214 271.618 0.671312C272.037 0.672521 272.507 0.670063 272.895 0.673692C269.62 0.148065 276.059 0.71257 277.992 0.725879C279.622 0.736766 282.336 0.487476 284.125 0.433634C284.56 0.42039 284.261 0.549774 284.35 0.546796C285.398 0.509893 285.557 0.421535 286.966 0.433634C287.711 0.440295 288.472 0.60232 289.198 0.605392C294.527 0.62717 299.671 0.464371 304.965 0.446818C305.865 0.443793 306.642 0.641586 307.399 0.645859C308.482 0.651908 309.165 0.489961 310.182 0.487468C311.195 0.485049 312.655 0.678589 313.342 0.648972C314.029 0.619933 312.853 0.432384 314.111 0.483806C314.689 0.507438 313.668 0.647103 314.382 0.651353C316.61 0.664661 319.754 0.491692 322.126 0.659226C322.021 0.617496 321.878 0.579939 321.75 0.540021C324.277 0.556359 326.509 0.656793 329.118 0.671312C330.03 0.676709 331.675 0.554094 332.572 0.55467C333.468 0.555275 333.876 0.688318 334.594 0.692003C334.889 0.693818 334.773 0.57459 334.971 0.57701C337.447 0.608495 338.806 0.820731 341.398 0.796559C350.897 0.708234 360.691 0.631963 370.337 0.552107C370.725 0.548946 370.986 0.393622 371.552 0.370644C372.425 0.335075 372.468 0.472376 372.584 0.477214C373.345 0.507431 373.034 0.380349 374.055 0.380349C376.303 0.38035 379.928 0.492936 382.168 0.483257C387.331 0.460873 391.67 0.339825 396.732 0.278722C397.097 0.273883 396.849 0.457765 397.482 0.460185C401.941 0.479519 402.885 0.303461 408.436 0.353065C413.986 0.402675 424.463 0.514064 430.961 0.539472C430.961 0.539899 430.961 0.540326 430.961 0.540754C433.006 0.200794 435.653 0.28535 437.85 0.542402C425.18 1.38089 413.058 1.00774 399.526 1.04101C385.304 1.0755 370.143 1.68474 355.73 1.60188C354.376 1.59402 353.831 1.40039 352.69 1.44093C352.497 1.44778 352.997 1.597 352.404 1.61213C344.252 1.8154 335.561 1.4753 327.557 1.56965C325.399 1.59506 325.061 1.76144 323.163 1.8044C323.496 1.72578 323.715 1.64357 324.006 1.56434C315.342 1.31872 306.665 1.42822 297.889 1.39313C297.493 1.39128 297.443 1.22852 297.027 1.22247C296.197 1.2098 295.401 1.38887 294.676 1.39497C293.728 1.40283 293.565 1.27333 292.691 1.2818C292.265 1.28614 292.392 1.41059 291.466 1.38947C291.388 1.38766 291.337 1.25709 290.721 1.27393C289.032 1.32051 285.581 1.43004 284.184 1.46272C282.398 1.50445 280.966 1.30777 280.29 1.29499C278.466 1.26051 278.504 1.46191 276.96 1.46198C265.967 1.46319 255.458 1.23403 244.205 1.23584C243.498 1.23593 240.884 1.46017 239.576 1.45118C239.137 1.44755 236.845 1.38832 236.501 1.38343C235.108 1.36467 233.904 1.22912 233.135 1.20068C231.645 1.14508 229.979 1.35676 229.168 1.37794C227.743 1.41542 225.214 1.3876 224.615 1.38215C223.171 1.36884 223.649 1.10699 222.612 1.16809C222.306 1.18634 222.627 1.38709 221.548 1.38709C220.644 1.38641 220.278 1.23523 219.661 1.20801C219.044 1.18095 217.912 1.41475 217.528 1.40888C215.517 1.37621 214.627 1.22301 212.438 1.21515C210.62 1.20913 202.217 1.3163 201.518 1.37134C198.39 1.61732 203.6 1.50697 203.894 1.51527C205.482 1.56306 205.249 1.65744 206.833 1.47718C208.25 2.03314 213.188 1.16751 214.453 1.82692C215.761 1.38771 216.86 1.60914 218.238 1.69746C220.143 1.81954 218.692 1.56359 220.082 1.56178C220.63 1.5613 222.217 1.76081 223.04 1.73299C223.862 1.7051 224.209 1.55212 225.311 1.54365C227.278 1.52795 228.862 1.59935 230.515 1.78261C230.818 1.70157 231.101 1.62048 231.399 1.53944C232.541 1.62655 233.686 1.71313 234.828 1.79964C234.645 1.72886 234.462 1.65746 234.28 1.58668C234.614 1.5764 234.949 1.5667 235.282 1.55702C236.393 1.66348 237.453 1.76206 238.594 1.87215C241.695 1.46272 240.795 1.81709 242.518 1.87032C244.241 1.9235 245.238 1.68647 246.569 1.6852C248.362 1.68338 249.186 1.6538 250.995 1.67073C252.043 1.68041 253.821 1.90912 252.361 1.54676C255.633 1.51773 260.113 1.4166 263.04 1.56361C263.904 1.6065 262.752 1.72063 262.899 1.73482C263.633 1.80195 264.251 1.61694 265.007 1.64345C266.265 1.6876 268.714 1.83165 269.704 1.86556C271.129 1.91456 273.368 1.67491 273.597 1.65736C274.878 1.56001 275.22 1.75899 275.631 1.74526C277.972 1.6654 278.489 1.58184 279.226 2.00161C279.832 1.82012 282.37 1.51473 282.984 1.82015C282.999 1.54433 285.107 1.59082 286.403 1.52186C286.644 1.60172 286.889 1.68109 287.129 1.76155C289.835 1.26791 295.222 1.62649 298.782 1.6852C298.871 1.68641 299.031 1.47967 299.566 1.52626C299.6 1.53008 299.545 1.62298 299.904 1.63502C301.088 1.67376 305.606 1.90582 306.125 1.90786C308.039 1.91572 308.374 1.76142 309.538 1.7469C311.071 1.72755 311.293 1.86679 312.752 1.84688C313.435 1.83781 314.056 1.65453 315.131 1.68043C315.767 1.69555 315.83 1.83949 316.334 1.85109C318.127 1.89284 319.444 1.802 321.036 1.98953C321.451 1.53167 322.212 1.86914 323 1.90365C326.198 2.0446 330.184 1.85112 332.929 1.89284C341.491 2.02412 349.084 2.3065 357.449 2.37003C358.807 2.38031 359.135 2.15043 360.559 2.16495C361.2 2.17168 361.86 2.33813 362.908 2.34055C363.75 2.34293 364.956 2.25832 366.008 2.25888C366.287 2.25888 366.312 2.41496 366.724 2.41617C369.844 2.42523 372.891 2.31441 376.043 2.23819C377.211 2.20983 377.934 2.41663 377.736 2.05673C378.182 2.14504 378.616 2.22195 379.035 2.30905C380.642 2.08219 381.955 2.31861 384.128 2.26053C384.363 2.25361 386.004 2.00478 386.935 2.18436C387.001 2.05613 386.856 1.94726 386.884 1.83113C387.803 1.78214 389.217 1.93023 389.838 1.9454C390.458 1.9605 390.873 1.79394 391.06 1.79232C391.77 1.78808 391.605 2.00714 391.659 2.01077C394.97 2.22065 394.621 2.10395 396.62 1.77547C397.121 1.69261 400.52 1.93326 401.207 1.67384C401.238 1.77966 401.048 1.87279 400.994 1.97378C402.015 2.001 403.044 2.02895 404.069 2.05618C403.851 1.95454 403.59 1.85281 403.392 1.75057C405.484 1.83888 407.224 1.5994 408.935 1.60719C409.913 1.61203 409.794 1.83656 410.369 1.78755C410.481 1.77785 410.291 1.62614 410.624 1.61397C413.345 1.51536 414.538 1.67564 417.262 1.70589C418.539 1.72033 419.657 1.44458 421.489 1.62605C421.656 1.64304 423.453 1.88789 424.563 1.53706C424.917 1.64777 425.228 1.70592 425.492 1.79909C427.739 1.27821 427.118 1.78869 430.158 1.90969C431.73 1.97256 437.021 1.88129 438.732 1.82564C439.752 1.79173 439.733 1.587 439.915 1.57881C441.002 1.53163 441.003 1.73007 442.007 1.69746C443.013 1.6648 444.283 1.44032 445.315 1.46088C446.106 1.47673 445.483 1.72329 446.651 1.6374C446.893 1.61881 446.202 1.40957 447.434 1.49165C447.628 1.50435 449.596 1.73068 450 1.77968C448.963 1.91096 445.959 2.08223 444.83 2.13546C425.378 3.055 386.197 3.06457 365.426 2.94903C363.497 2.93871 362.236 2.72333 360.978 2.70457C359.72 2.68582 360.784 2.88314 359.643 2.86681C358.501 2.84987 357.67 2.71063 356.602 2.69853C349.406 2.61626 342.156 2.52918 335.018 2.49107C333.166 2.48139 331.686 2.64177 330.002 2.64177C329.346 2.64167 329.326 2.43487 328.86 2.43668C323.842 2.45303 319.199 2.65205 314.207 2.62785C312.135 2.61754 309.895 2.44332 307.842 2.42698C306.15 2.41307 304.396 2.53218 302.874 2.53465C302.048 2.53646 301.613 2.37895 301.314 2.36655C300.273 2.32541 300.637 2.5178 300.105 2.5178C298.638 2.51715 297.909 2.28487 296.535 2.30301C295.995 2.31027 296.065 2.45829 295.282 2.48136C294.288 2.51039 294.656 2.37384 293.946 2.36893C293.903 2.36833 294.043 2.47416 293.666 2.47843C291.244 2.50626 288.22 2.5897 285.883 2.58244C281.051 2.56791 276.28 2.364 271.778 2.32407C270.64 2.31439 270.942 2.45237 270.581 2.45902C268.843 2.49044 268.222 2.3254 266.401 2.38468C266.098 2.39439 264.879 2.58542 263.715 2.53703C263.086 2.51097 262.372 2.39181 261.837 2.36399C261.301 2.33617 261.215 2.51164 260.572 2.51176C259.399 2.51236 259.74 2.39074 258.064 2.41251C257.388 2.42098 255.133 2.58722 253.394 2.57456C250.553 2.554 247.032 2.40211 243.682 2.39969C242.533 2.39848 241.057 2.57879 239.275 2.58061C237.098 2.58301 233.085 2.54202 230.854 2.53959C229.712 2.53838 229.63 2.34951 229.494 2.34165C228.621 2.28911 228.974 2.50012 228.389 2.4918C227.585 2.4803 226.835 2.32465 226.105 2.31436C225.64 2.30778 225.566 2.4633 225.465 2.46451C221.731 2.51594 218.432 2.50141 214.721 2.51835C194.82 2.60788 174.728 2.80753 154.866 2.71739C153.201 2.71013 153.138 2.51405 151.675 2.5449C150.211 2.57515 148.798 2.99863 147.594 2.53098C147.556 2.62536 147.559 2.69264 147.521 2.77855C144.497 2.64549 141.473 2.78322 138.515 2.80016C136.326 2.81285 134.385 2.79781 132.363 2.78752C130.57 2.77781 130.725 2.61338 129.173 2.82799C121.461 2.69369 113.665 2.72639 106.018 2.50315C104.225 2.85464 102.506 2.63318 100.025 2.58116C99.7191 2.57458 100.048 2.70282 99.1395 2.69194C97.999 2.67854 97.4087 2.4826 95.4883 2.49345C94.9798 2.49647 91.2135 2.71371 89.82 2.6024C88.4265 2.4911 86.408 2.42577 84.9603 2.31931C85.166 2.40339 85.4265 2.48382 85.6555 2.56669C84.9335 2.58121 84.2077 2.5952 83.4857 2.60972C83.3809 2.50869 83.2759 2.40758 83.175 2.30594C82.7558 2.40213 82.3364 2.49713 81.9133 2.59452C81.0012 2.07552 81.9363 2.2448 79.9066 2.37607C78.8896 2.44141 78.0823 2.35073 77.0381 2.40336C76.6619 2.4227 76.4212 2.57553 76.0064 2.59507C74.9897 2.64225 75.5823 2.43191 74.9541 2.43302C74.3214 2.43483 73.4131 2.66587 72.2797 2.56303C73.463 2.15113 70.0428 2.2855 69.8798 2.60551C69.4727 2.6061 69.1314 2.5928 68.6816 2.60185C69.097 1.79361 66.9649 2.36717 66.1187 2.47788C65.2731 2.58843 65.3073 2.37127 65.1094 2.37973C64.5392 2.40334 64.9544 2.49351 64.5549 2.49656C61.9076 2.51471 59.415 2.38213 56.8027 2.37003C56.4269 2.36831 56.7601 2.49103 56.322 2.47898C55.8834 2.46688 55.4631 2.34471 54.8148 2.35318C54.6409 2.35533 54.5863 2.46313 54.3153 2.46323C48.6364 2.45839 43.2444 2.36655 37.453 2.35263C36.929 2.35142 36.5176 2.5431 35.5046 2.53648C34.4917 2.52982 32.9547 2.35684 31.6972 2.34348C31.3634 2.33985 31.2728 2.49951 30.8303 2.49528C29.3245 2.48073 28.0273 2.35073 26.4632 2.32956C23.8202 2.2939 21.0529 2.3913 18.3711 2.29697C17.8627 2.27943 17.9439 2.14626 17.2107 2.10873C15.9453 2.044 16.4215 2.23818 16.1653 2.26419C15.3271 2.34822 15.0637 2.09014 14.253 2.15652C14.129 2.16679 14.3058 2.31984 14.1946 2.32224C12.4711 2.34886 12.3806 1.99014 10.5485 2.18252C8.91921 1.97628 11.6406 1.90602 11.9201 1.79653C12.6026 1.53038 10.7983 1.21763 9.73482 1.11719C8.81897 1.0307 8.82571 1.19639 8.4611 1.19647C6.53207 1.19708 3.6594 1.22858 2.19202 1.14996C1.30312 1.10278 2.90538 1.03375 2.45123 0.979304C2.0011 0.92493 1.7097 1.04946 1.24788 0.913384C0.785965 0.777265 -0.156336 0.37669 0.0222208 0.185519ZM162.081 1.07727C159.123 1.73061 151.279 1.66236 147.067 1.60005C143.574 1.54802 140.562 1.04462 141.284 1.77419C145.061 1.77902 148.115 1.70585 152.109 1.72823C152.524 1.73065 155.002 1.79834 155.863 1.81044C156.348 1.81712 156.364 1.93763 157.024 1.93642C157.167 1.93581 157.963 1.77838 158.255 1.78261C159.252 1.79656 162.218 2.03825 162.632 2.03127C163.78 2.01072 163.34 1.8234 163.835 1.78939C165.5 1.67686 165.684 1.95819 167.334 1.86684C167.629 1.85051 168.607 1.60534 169.83 1.6374C170.327 1.65074 171.173 1.77731 171.553 1.77126C173.626 1.73858 175.94 1.57094 177.838 1.59877C179.394 1.62179 178.975 1.81104 179.798 1.83644C180.621 1.86116 181.615 1.64168 182.177 1.62898C183.078 1.60907 184.172 1.7337 184.452 1.73189C189.956 1.69498 194.851 1.55045 200.161 1.49842C196.555 1.41191 192.953 1.33252 189.37 1.24298C187.336 1.43899 188.348 1.2552 187.01 1.19409C185.95 1.1457 185.694 1.4777 184.301 1.44093C184.302 1.44093 184.303 1.44093 184.304 1.44093C183.586 1.42157 182.03 1.19165 180.5 1.28785C180.446 1.29151 180.31 1.46381 179.165 1.46986C176.591 1.48317 172.648 1.57156 169.752 1.53468C168.902 1.52379 169.076 1.34282 168.07 1.32044C167.337 1.30425 166.487 1.47157 165.339 1.43415C163.899 1.38636 163.208 1.09854 162.218 1.49842C162.137 1.35565 162.178 1.21641 162.081 1.07727ZM82.5381 1.42518C82.3359 1.40937 79.6269 0.963016 80.4301 1.43964C84.0711 1.64654 88.0076 1.54377 91.8388 1.65993C90.5306 1.18865 88.3176 1.3744 85.6315 1.40888C85.6303 1.40888 85.6292 1.40888 85.6281 1.40888C85.5012 1.41049 86.0314 1.28732 85.3105 1.30964C84.9611 1.32052 83.6211 1.50927 82.5381 1.42518Z" fill="var(--stroke-0, #CEBD9D)"/>
</svg>
