<svg preserveAspectRatio="none" width="100%" height="100%" overflow="visible" style="display: block;" viewBox="0 0 220 3" fill="none" xmlns="http://www.w3.org/2000/svg">
<path id="Vector 95" d="M0.0108635 0.185519C1.46821 0.0258214 2.92363 -0.0424286 4.42271 0.0271282C4.7643 0.0428575 4.73211 0.166287 4.87254 0.186251C5.13064 0.223122 5.56378 0.0899352 5.6245 0.0899352C6.00134 0.088238 5.85408 0.304277 5.9048 0.312598C6.47025 0.400308 6.3075 0.154232 6.8481 0.130586C7.5521 0.0997343 8.45547 0.143752 9.3037 0.155855C9.60158 0.160694 9.46896 0.325162 10.1119 0.311316C10.5673 0.301636 11.9644 0.114183 12.6078 0.314429C12.6115 0.390042 12.5303 0.473525 12.4961 0.551557C13.4183 0.236412 13.7484 0.250238 15.0558 0.327064C15.2627 0.339163 15.4585 0.209689 15.8229 0.257481C16.1871 0.305314 16.2025 0.504903 16.9348 0.502484C17.1946 0.501146 17.3522 0.360394 17.7506 0.354347C18.8835 0.33681 21.0412 0.511632 21.9711 0.517682C23.8023 0.529773 24.7987 0.289553 26.4249 0.373024C26.5501 0.379074 26.275 0.533328 26.5046 0.536359C26.7362 0.539384 26.9773 0.335016 27.0342 0.330176C27.6489 0.277573 28.9481 0.551357 29.29 0.518231C30.1212 0.437165 29.3022 0.347104 30.4541 0.308386C31.5509 0.271542 33.0653 0.537621 34.1526 0.589644C35.4125 0.6501 35.8188 0.263602 36.7676 0.6671C40.0998 0.643508 43.4453 0.629072 46.7814 0.608505C46.7719 0.688941 46.7608 0.769408 46.7495 0.849845C47.0132 0.794188 47.2771 0.738448 47.5409 0.683397C47.501 0.743272 47.4632 0.803209 47.4234 0.862479C48.6623 0.631441 49.7666 0.512254 51.2142 0.575728C51.2425 0.576931 51.1681 0.737309 51.1915 0.741443C51.5179 0.771692 51.8827 0.648316 52.1692 0.677354C52.8619 0.746926 54.0385 1.09663 53.5204 0.668931C55.1352 0.757241 57.0328 0.612637 58.5717 0.695482C59.2377 0.731167 59.4372 0.98464 59.7559 0.999263C60.0743 1.01376 59.9123 0.795958 60.0253 0.787587C60.7046 0.739192 61.8227 0.748178 61.9404 0.991938C62.077 0.894571 62.2216 0.796018 62.36 0.698046C62.2789 0.968319 64.3782 0.856605 64.9289 0.863212C65.0295 0.864422 65.0435 0.982894 65.1194 0.981684C65.9654 0.96651 66.1723 0.780815 66.8969 0.719103C67.1512 0.697325 66.7569 0.90611 67.4097 0.815969C67.4666 0.808052 67.4364 0.620479 68.2162 0.621689C69.4611 0.623499 71.8426 0.549104 73.3246 0.641648C73.4461 0.648906 73.0764 0.853375 73.6318 0.805715C73.8329 0.788776 73.7366 0.64359 74.2243 0.64238C76.1144 0.636333 78.1298 0.803256 80.0578 0.66472C79.9875 0.82866 79.3008 1.01256 80.3331 0.909722C80.4981 0.892743 80.3749 0.746337 80.4489 0.740894C81.0484 0.698587 81.5683 0.803168 82.2172 0.746936C82.4088 0.729997 82.4564 0.615037 82.6955 0.587813C83.0484 0.547302 83.2046 0.711216 83.6145 0.641648C84.2555 0.532156 84.3545 0.376771 85.1494 0.681566C89.6544 0.662206 94.1386 0.576391 98.6284 0.71068C99.9264 0.623568 101.124 0.526239 102.477 0.492962C102.876 0.483283 102.952 0.691348 103.587 0.622421C103.73 0.607297 104.745 0.383984 104.893 0.804433C105.176 0.76816 105.355 0.766934 105.597 0.744556C105.413 0.682849 105.223 0.620461 105.047 0.558149C106.072 0.625298 106.908 0.477076 107.815 0.4069C108.483 0.355509 108.009 0.53581 108.419 0.517682C108.829 0.500138 109.015 0.45957 109.527 0.675523C109.93 0.426385 110.197 0.601118 110.939 0.607772C111.019 0.608373 111.48 0.51176 111.865 0.531049C112.142 0.544959 112.224 0.700329 112.664 0.676256C112.736 0.672626 113.666 0.480117 113.962 0.462565C114.423 0.434737 115.156 0.633918 115.245 0.636337C116.541 0.67139 117.041 0.474754 117.961 0.79839C118.147 0.606055 118.915 0.493484 119.535 0.512188C120.319 0.535782 121.891 0.929052 122.105 0.51347C123.012 0.698566 122.914 0.584328 123.989 0.580672C124.968 0.577042 127.56 0.736011 128.354 0.713061C129.147 0.690677 128.761 0.459543 129.076 0.42869C129.591 0.377397 129.313 0.547934 129.666 0.545515C130.664 0.538253 131.531 0.505661 132.484 0.431253C132.535 0.55099 132.59 0.671329 132.643 0.791066C132.693 0.751163 132.742 0.711214 132.791 0.671312C132.996 0.672521 133.226 0.670063 133.415 0.673692C131.814 0.148065 134.962 0.71257 135.907 0.725879C136.704 0.736766 138.031 0.487476 138.906 0.433634C139.118 0.42039 138.972 0.549774 139.016 0.546796C139.528 0.509893 139.606 0.421535 140.295 0.433634C140.659 0.440295 141.031 0.60232 141.386 0.605392C143.991 0.62717 146.506 0.464371 149.094 0.446818C149.534 0.443793 149.914 0.641586 150.284 0.645859C150.813 0.651908 151.147 0.489961 151.644 0.487468C152.14 0.485049 152.854 0.678589 153.189 0.648972C153.525 0.619933 152.951 0.432384 153.565 0.483806C153.848 0.507438 153.349 0.647103 153.698 0.651353C154.787 0.664661 156.324 0.491692 157.484 0.659226C157.433 0.617496 157.363 0.579939 157.3 0.540021C158.535 0.556359 159.627 0.656793 160.902 0.671312C161.348 0.676709 162.152 0.554094 162.591 0.55467C163.029 0.555275 163.228 0.688318 163.579 0.692003C163.723 0.693818 163.667 0.57459 163.764 0.57701C164.974 0.608495 165.638 0.820731 166.906 0.796559C171.55 0.708234 176.338 0.631963 181.054 0.552107C181.243 0.548946 181.371 0.393622 181.648 0.370644C182.074 0.335075 182.095 0.472376 182.152 0.477214C182.524 0.507431 182.372 0.380349 182.871 0.380349C183.97 0.38035 185.743 0.492936 186.838 0.483257C189.362 0.460873 191.483 0.339825 193.958 0.278722C194.136 0.273883 194.015 0.457765 194.324 0.460185C196.505 0.479519 196.966 0.303461 199.68 0.353065C202.393 0.402675 207.515 0.514064 210.692 0.539472C210.692 0.539899 210.692 0.540326 210.692 0.540754C211.692 0.200794 212.986 0.28535 214.06 0.542402C207.866 1.38089 201.939 1.00774 195.324 1.04101C188.371 1.0755 180.959 1.68474 173.913 1.60188C173.25 1.59402 172.984 1.40039 172.426 1.44093C172.332 1.44778 172.576 1.597 172.286 1.61213C168.301 1.8154 164.052 1.4753 160.139 1.56965C159.084 1.59506 158.919 1.76144 157.991 1.8044C158.154 1.72578 158.26 1.64357 158.403 1.56434C154.167 1.31872 149.925 1.42822 145.635 1.39313C145.441 1.39128 145.416 1.22852 145.213 1.22247C144.807 1.2098 144.418 1.38887 144.064 1.39497C143.601 1.40283 143.52 1.27333 143.093 1.2818C142.885 1.28614 142.947 1.41059 142.494 1.38947C142.456 1.38766 142.432 1.25709 142.13 1.27393C141.305 1.32051 139.618 1.43004 138.934 1.46272C138.061 1.50445 137.361 1.30777 137.031 1.29499C136.139 1.26051 136.158 1.46191 135.403 1.46198C130.028 1.46319 124.891 1.23403 119.389 1.23584C119.044 1.23593 117.765 1.46017 117.126 1.45118C116.912 1.44755 115.791 1.38832 115.623 1.38343C114.942 1.36467 114.353 1.22912 113.977 1.20068C113.248 1.14508 112.434 1.35676 112.038 1.37794C111.341 1.41542 110.104 1.3876 109.812 1.38215C109.106 1.36884 109.339 1.10699 108.833 1.16809C108.683 1.18634 108.84 1.38709 108.312 1.38709C107.87 1.38641 107.692 1.23523 107.39 1.20801C107.088 1.18095 106.535 1.41475 106.347 1.40888C105.364 1.37621 104.929 1.22301 103.858 1.21515C102.97 1.20913 98.8616 1.3163 98.5201 1.37134C96.9905 1.61732 99.538 1.50697 99.6816 1.51527C100.458 1.56306 100.344 1.65744 101.118 1.47718C101.811 2.03314 104.225 1.16751 104.844 1.82692C105.483 1.38771 106.021 1.60914 106.694 1.69746C107.625 1.81954 106.916 1.56359 107.596 1.56178C107.863 1.5613 108.639 1.76081 109.042 1.73299C109.444 1.7051 109.613 1.55212 110.152 1.54365C111.114 1.52795 111.888 1.59935 112.696 1.78261C112.844 1.70157 112.983 1.62048 113.129 1.53944C113.687 1.62655 114.247 1.71313 114.805 1.79964C114.715 1.72886 114.626 1.65746 114.537 1.58668C114.7 1.5764 114.864 1.5667 115.027 1.55702C115.57 1.66348 116.088 1.76206 116.646 1.87215C118.162 1.46272 117.722 1.81709 118.564 1.87032C119.407 1.9235 119.894 1.68647 120.545 1.6852C121.422 1.68338 121.824 1.6538 122.708 1.67073C123.221 1.68041 124.09 1.90912 123.377 1.54676C124.976 1.51773 127.167 1.4166 128.597 1.56361C129.02 1.6065 128.457 1.72063 128.529 1.73482C128.887 1.80195 129.189 1.61694 129.559 1.64345C130.174 1.6876 131.371 1.83165 131.855 1.86556C132.552 1.91456 133.647 1.67491 133.759 1.65736C134.385 1.56001 134.552 1.75899 134.753 1.74526C135.897 1.6654 136.15 1.58184 136.511 2.00161C136.807 1.82012 138.048 1.51473 138.348 1.82015C138.355 1.54433 139.386 1.59082 140.019 1.52186C140.137 1.60172 140.257 1.68109 140.374 1.76155C141.697 1.26791 144.331 1.62649 146.071 1.6852C146.115 1.68641 146.193 1.47967 146.455 1.52626C146.471 1.53008 146.444 1.62298 146.62 1.63502C147.199 1.67376 149.407 1.90582 149.661 1.90786C150.597 1.91572 150.76 1.76142 151.33 1.7469C152.079 1.72755 152.188 1.86679 152.901 1.84688C153.235 1.83781 153.538 1.65453 154.064 1.68043C154.375 1.69555 154.406 1.83949 154.652 1.85109C155.529 1.89284 156.173 1.802 156.951 1.98953C157.154 1.53167 157.526 1.86914 157.911 1.90365C159.475 2.0446 161.423 1.85112 162.765 1.89284C166.951 2.02412 170.663 2.3065 174.753 2.37003C175.417 2.38031 175.577 2.15043 176.273 2.16495C176.586 2.17168 176.909 2.33813 177.421 2.34055C177.833 2.34293 178.423 2.25832 178.937 2.25888C179.074 2.25888 179.086 2.41496 179.287 2.41617C180.813 2.42523 182.303 2.31441 183.843 2.23819C184.414 2.20983 184.768 2.41663 184.671 2.05673C184.889 2.14504 185.101 2.22195 185.306 2.30905C186.092 2.08219 186.733 2.31861 187.796 2.26053C187.911 2.25361 188.713 2.00478 189.168 2.18436C189.2 2.05613 189.13 1.94726 189.143 1.83113C189.593 1.78214 190.284 1.93023 190.587 1.9454C190.891 1.9605 191.094 1.79394 191.185 1.79232C191.532 1.78808 191.451 2.00714 191.478 2.01077C193.096 2.22065 192.926 2.10395 193.903 1.77547C194.148 1.69261 195.81 1.93326 196.146 1.67384C196.161 1.77966 196.068 1.87279 196.042 1.97378C196.541 2.001 197.044 2.02895 197.545 2.05618C197.438 1.95454 197.311 1.85281 197.214 1.75057C198.237 1.83888 199.087 1.5994 199.924 1.60719C200.402 1.61203 200.344 1.83656 200.625 1.78755C200.68 1.77785 200.587 1.62614 200.75 1.61397C202.08 1.51536 202.663 1.67564 203.995 1.70589C204.619 1.72033 205.166 1.44458 206.061 1.62605C206.143 1.64304 207.022 1.88789 207.564 1.53706C207.737 1.64777 207.889 1.70592 208.018 1.79909C209.117 1.27821 208.813 1.78869 210.299 1.90969C211.068 1.97256 213.655 1.88129 214.491 1.82564C214.99 1.79173 214.981 1.587 215.07 1.57881C215.601 1.53163 215.601 1.73007 216.093 1.69746C216.584 1.6648 217.205 1.44032 217.71 1.46088C218.096 1.47673 217.792 1.72329 218.363 1.6374C218.481 1.61881 218.143 1.40957 218.745 1.49165C218.84 1.50435 219.803 1.73068 220 1.77968C219.493 1.91096 218.024 2.08223 217.472 2.13546C207.963 3.055 188.807 3.06457 178.653 2.94903C177.71 2.93871 177.093 2.72333 176.478 2.70457C175.863 2.68582 176.383 2.88314 175.825 2.86681C175.267 2.84987 174.861 2.71063 174.339 2.69853C170.821 2.61626 167.276 2.52918 163.786 2.49107C162.881 2.48139 162.158 2.64177 161.334 2.64177C161.014 2.64167 161.004 2.43487 160.776 2.43668C158.323 2.45303 156.053 2.65205 153.612 2.62785C152.599 2.61754 151.504 2.44332 150.501 2.42698C149.673 2.41307 148.816 2.53218 148.072 2.53465C147.668 2.53646 147.455 2.37895 147.309 2.36655C146.8 2.32541 146.978 2.5178 146.718 2.5178C146.001 2.51715 145.644 2.28487 144.973 2.30301C144.709 2.31027 144.743 2.45829 144.36 2.48136C143.874 2.51039 144.054 2.37384 143.707 2.36893C143.686 2.36833 143.754 2.47416 143.57 2.47843C142.386 2.50626 140.907 2.5897 139.765 2.58244C137.403 2.56791 135.07 2.364 132.869 2.32407C132.313 2.31439 132.461 2.45237 132.284 2.45902C131.434 2.49044 131.131 2.3254 130.241 2.38468C130.092 2.39439 129.496 2.58542 128.927 2.53703C128.62 2.51097 128.271 2.39181 128.009 2.36399C127.747 2.33617 127.705 2.51164 127.391 2.51176C126.818 2.51236 126.984 2.39074 126.164 2.41251C125.834 2.42098 124.732 2.58722 123.882 2.57456C122.493 2.554 120.771 2.40211 119.133 2.39969C118.572 2.39848 117.85 2.57879 116.979 2.58061C115.914 2.58301 113.953 2.54202 112.862 2.53959C112.304 2.53838 112.264 2.34951 112.197 2.34165C111.77 2.28911 111.943 2.50012 111.657 2.4918C111.264 2.4803 110.897 2.32465 110.54 2.31436C110.313 2.30778 110.277 2.4633 110.227 2.46451C108.402 2.51594 106.789 2.50141 104.975 2.51835C95.2452 2.60788 85.4227 2.80753 75.7122 2.71739C74.8981 2.71013 74.8675 2.51405 74.1521 2.5449C73.4367 2.57515 72.7456 2.99863 72.1573 2.53098C72.1383 2.62536 72.1402 2.69264 72.1212 2.77855C70.6429 2.64549 69.1645 2.78322 67.7186 2.80016C66.6484 2.81285 65.6993 2.79781 64.7107 2.78752C63.8344 2.77781 63.9101 2.61338 63.1514 2.82799C59.3807 2.69369 55.5695 2.72639 51.831 2.50315C50.9543 2.85464 50.1139 2.63318 48.9013 2.58116C48.7515 2.57458 48.9122 2.70282 48.4682 2.69194C47.9106 2.67854 47.6221 2.4826 46.6832 2.49345C46.4346 2.49647 44.5933 2.71371 43.912 2.6024C43.2307 2.4911 42.2439 2.42577 41.5361 2.31931C41.6367 2.40339 41.7641 2.48382 41.876 2.56669C41.5231 2.58121 41.1682 2.5952 40.8152 2.60972C40.764 2.50869 40.7127 2.40758 40.6633 2.30594C40.4584 2.40213 40.2534 2.49713 40.0465 2.59452C39.6006 2.07552 40.0578 2.2448 39.0654 2.37607C38.5683 2.44141 38.1735 2.35073 37.6631 2.40336C37.4791 2.4227 37.3615 2.57553 37.1587 2.59507C36.6616 2.64225 36.9513 2.43191 36.6442 2.43302C36.3349 2.43483 35.8909 2.66587 35.3367 2.56303C35.9152 2.15113 34.2432 2.2855 34.1635 2.60551C33.9644 2.6061 33.7976 2.5928 33.5777 2.60185C33.7807 1.79361 32.7384 2.36717 32.3247 2.47788C31.9113 2.58843 31.928 2.37127 31.8312 2.37973C31.5525 2.40334 31.7555 2.49351 31.5602 2.49656C30.2659 2.51471 29.0473 2.38213 27.7702 2.37003C27.5865 2.36831 27.7494 2.49103 27.5352 2.47898C27.3208 2.46688 27.1153 2.34471 26.7984 2.35318C26.7133 2.35533 26.6866 2.46313 26.5541 2.46323C23.7778 2.45839 21.1417 2.36655 18.3104 2.35263C18.0542 2.35142 17.853 2.5431 17.3578 2.53648C16.8626 2.52982 16.1112 2.35684 15.4964 2.34348C15.3332 2.33985 15.2889 2.49951 15.0726 2.49528C14.3364 2.48073 13.7023 2.35073 12.9376 2.32956C11.6454 2.2939 10.2925 2.3913 8.98143 2.29697C8.73287 2.27943 8.77259 2.14626 8.41411 2.10873C7.79546 2.044 8.02826 2.23818 7.90302 2.26419C7.49326 2.34822 7.3645 2.09014 6.96811 2.15652C6.9075 2.16679 6.99395 2.31984 6.93958 2.32224C6.097 2.34886 6.05276 1.99014 5.15704 2.18252C4.3605 1.97628 5.69097 1.90602 5.82759 1.79653C6.16127 1.53038 5.27919 1.21763 4.75925 1.11719C4.3115 1.0307 4.31479 1.19639 4.13654 1.19647C3.19346 1.19708 1.78904 1.22858 1.07165 1.14996C0.637081 1.10278 1.42041 1.03375 1.19838 0.979304C0.978318 0.92493 0.835851 1.04946 0.610076 0.913384C0.38425 0.777265 -0.0764308 0.37669 0.0108635 0.185519ZM79.2395 1.07727C77.7935 1.73061 73.9586 1.66236 71.8996 1.60005C70.1917 1.54802 68.7193 1.04462 69.0722 1.77419C70.9185 1.77902 72.4119 1.70585 74.3644 1.72823C74.5675 1.73065 75.7786 1.79834 76.1998 1.81044C76.437 1.81712 76.4446 1.93763 76.7672 1.93642C76.8374 1.93581 77.2266 1.77838 77.3689 1.78261C77.8565 1.79656 79.3065 2.03825 79.5089 2.03127C80.0704 2.01072 79.8549 1.8234 80.0972 1.78939C80.9114 1.67686 81.0011 1.95819 81.8076 1.86684C81.9518 1.85051 82.4301 1.60534 83.0279 1.6374C83.2708 1.65074 83.6845 1.77731 83.8705 1.77126C84.8838 1.73858 86.0149 1.57094 86.9429 1.59877C87.7036 1.62179 87.499 1.81104 87.9013 1.83644C88.3036 1.86116 88.7893 1.64168 89.0645 1.62898C89.5047 1.60907 90.0398 1.7337 90.1765 1.73189C92.8673 1.69498 95.2603 1.55045 97.8563 1.49842C96.0933 1.41191 94.3324 1.33252 92.5809 1.24298C91.5865 1.43899 92.0815 1.2552 91.4269 1.19409C90.9089 1.1457 90.7836 1.4777 90.1026 1.44093C90.1032 1.44093 90.1037 1.44093 90.1043 1.44093C89.7532 1.42157 88.9922 1.19165 88.2445 1.28785C88.218 1.29151 88.1514 1.46381 87.5916 1.46986C86.3335 1.48317 84.4057 1.57156 82.9901 1.53468C82.5745 1.52379 82.6591 1.34282 82.1676 1.32044C81.8091 1.30425 81.3938 1.47157 80.8324 1.43415C80.1283 1.38636 79.7906 1.09854 79.3067 1.49842C79.2668 1.35565 79.287 1.21641 79.2395 1.07727ZM40.352 1.42518C40.2531 1.40937 38.9287 0.963016 39.3214 1.43964C41.1014 1.64654 43.0259 1.54377 44.899 1.65993C44.2594 1.18865 43.1775 1.3744 41.8643 1.40888C41.8637 1.40888 41.8632 1.40888 41.8626 1.40888C41.8006 1.41049 42.0598 1.28732 41.7074 1.30964C41.5365 1.32052 40.8815 1.50927 40.352 1.42518Z" fill="var(--stroke-0, #CEBD9D)"/>
</svg>
