<svg preserveAspectRatio="none" width="100%" height="100%" overflow="visible" style="display: block;" viewBox="0 0 256.979 1557.24" fill="none" xmlns="http://www.w3.org/2000/svg">
<path id="Vector 13" opacity="0.5" d="M127.781 938.054C131.964 942.534 136.15 947.149 140.295 951.956C156.929 971.193 171.962 993.031 184.212 1016.12C191.178 1031.71 206.978 1042.72 216.667 1070.32C223.513 1091.73 230.101 1112.89 235.95 1134.12C237.297 1139.07 237.344 1141.18 237.245 1142.52C237.121 1143.33 236.937 1143.79 237.099 1144.64C238.176 1150.17 241.036 1152.91 242.596 1157.48C251.61 1181.25 254.498 1206.67 255.439 1230.07C255.442 1230.13 255.444 1230.19 255.447 1230.25C256.709 1253.03 251.505 1242.81 251.034 1251.07C249.955 1267.46 254.815 1253.24 256.478 1259.63C257.182 1278.42 257.049 1297.28 256.656 1315.87C256.067 1311.37 255.47 1306.75 254.884 1302.23C254.933 1310.33 254.191 1321.95 252.503 1308.4C252.14 1311.36 251.699 1314.22 251.333 1317.28C253.438 1318.15 253.713 1332.42 254.94 1333.75C256.182 1335.09 255.859 1326.96 255.964 1327.04C256.792 1327.28 256.633 1337.01 256.202 1346.25C255.846 1354.49 255.049 1362.38 254.92 1363.51C254.179 1369.98 251.868 1364.18 251.755 1369.67C251.443 1379.08 257.184 1373.29 249.126 1385.42C250.882 1390.68 249.675 1391.04 248.732 1397.4C248.605 1398.23 249.991 1397.75 249.978 1398.12C249.639 1407.94 248.229 1400.16 248.09 1400.21C245.78 1400.77 245.229 1411.2 244.616 1413.32C240.903 1427.03 237.084 1438.5 234.022 1450.15C231.119 1461.37 228.033 1472.75 224.733 1486.04C223.756 1490.02 222.004 1499.53 220.762 1507.07C220.114 1510.97 219.328 1514.36 218.699 1516.29C216.761 1522.05 216.049 1518.47 214.423 1521.24C216.687 1527.14 215.232 1532.2 208.705 1541.27C209.455 1544.52 208.845 1544.96 207.68 1547.16C206.764 1549.66 203.496 1552.12 200.549 1553.09C199.302 1553.58 198.055 1554.03 197.034 1554.53C196.035 1554.97 195.223 1555.72 195.772 1555.64C195.587 1555.82 194.98 1556.24 194.76 1556.38C192.311 1557.74 190.36 1557.12 189.619 1556.94C189.391 1556.87 189.185 1556.8 188.995 1556.72C188.82 1556.66 188.685 1556.6 188.543 1556.54C188.273 1556.42 187.997 1556.27 187.821 1556.18C187.016 1555.74 186.541 1555.41 186.081 1555.09C185.182 1554.45 184.494 1553.9 183.828 1553.35C182.512 1552.25 181.374 1551.19 180.353 1550.17C179.339 1549.15 178.437 1548.15 177.807 1547.35C177.505 1546.95 177.237 1546.6 177.256 1546.42C177.275 1546.34 177.363 1546.31 177.752 1546.35C178.135 1546.35 179.077 1546.63 180.678 1545.98C179.32 1546.44 178.447 1546.2 178.101 1546.13C177.697 1546.02 177.613 1545.96 177.562 1545.94C177.491 1545.9 177.657 1546 177.822 1546.12C178.174 1546.38 178.607 1546.72 179.011 1547.03C179.825 1547.67 180.577 1548.21 181.378 1548.75C182.183 1549.31 183.042 1549.89 184.171 1550.74C184.736 1551.17 185.37 1551.66 186.144 1552.27C186.529 1552.57 186.964 1552.91 187.472 1553.28C188.036 1553.67 188.463 1554.09 189.832 1554.68C190.07 1554.78 190.348 1554.89 190.865 1554.99C191.158 1555.04 191.518 1555.08 191.966 1555.05C192.436 1555.02 193.099 1554.87 193.7 1554.52C193.837 1554.44 194.216 1554.17 194.331 1554.06C194.352 1553.92 195.349 1553.3 197.588 1552.69C198.688 1552.36 200.029 1552.03 201.641 1551.3C203.177 1550.62 205.418 1549.1 206.259 1546.62C209.373 1537.67 212.883 1527.25 210.668 1527.98C208.871 1528.63 206.117 1539.01 205.702 1539.29C203.275 1540.92 203.726 1534.6 206.311 1530.03C206.138 1531.36 205.854 1532.94 205.623 1534.37C211.894 1524.12 201.672 1529.02 211.089 1522.94C212.23 1522.14 212.932 1522.83 214.337 1521.32C214.099 1520.86 212.555 1522.73 212.978 1520.83C213.419 1518.91 216.069 1515.71 214.781 1514.8C212.976 1513.49 211.613 1521.5 211.231 1522.04C211.242 1522.05 211.252 1522.06 211.262 1522.07C208.528 1526.81 211.851 1516.13 211.668 1515.54C211.23 1511.89 209.729 1513.89 209.763 1508.73C209.762 1507.82 209.923 1506.54 210.143 1505.09C210.672 1501.6 211.684 1497.35 211.96 1495.38C212.347 1492.55 210.449 1496.68 210.634 1494.76C210.82 1492.83 212.069 1490.67 212.307 1488.43C212.405 1487.47 211.301 1487.28 211.363 1486.82C212.019 1481.88 213.586 1485.56 214.425 1481.15C214.974 1478.29 214.948 1468.37 212.872 1474.75C213.349 1471.56 213.855 1468.49 214.346 1465.35C213.603 1467.23 212.941 1469.21 212.139 1471.04C213.942 1465.3 212.619 1462.28 213.229 1458.61C213.833 1454.95 216.738 1452.11 216.386 1447.89C216.353 1447.49 216.316 1447.15 216.275 1446.87C216.051 1445.15 215.683 1445.37 215.248 1446.68C214.125 1450.05 212.368 1461.03 211.665 1462.81C211.287 1463.8 210.35 1459.5 210.421 1458.89C210.754 1456.16 212.648 1453.25 212.99 1451.17C213.272 1449.45 213.438 1447.87 213.541 1446.36C213.943 1441.05 213.741 1436.74 214.608 1431.14C218.788 1406.56 221.532 1377.76 221.415 1354.92C221.433 1351.53 221.735 1348.68 222.087 1346.19C222.609 1342.33 223.273 1339.66 223.236 1337.22C223.082 1328.05 221.406 1326.87 221.238 1318.9C220.988 1306.97 222.058 1290.19 221.984 1280.27C221.949 1273.44 220.03 1267.31 219.898 1265.54C219.142 1255.1 218.19 1244.84 217.138 1232.67C216.099 1217.47 214.349 1203.16 211.936 1192.8C210.007 1184.52 210.276 1180.18 209.657 1178.43C206.777 1170.95 206.019 1173.63 203.646 1166.7C202.321 1162.79 203.476 1161.47 203.351 1160.93C202.345 1156.46 200.515 1155.62 199.33 1152.58C199.227 1152.34 199.131 1152.07 199.041 1151.76C193.565 1133.27 188.87 1114.2 183.074 1095.29C182.652 1093.91 183.511 1093.78 183.185 1092.9C181.764 1089.15 181.038 1091.32 179.669 1087.37C179.132 1085.83 178.622 1084.32 178.102 1082.75C176.475 1077.9 174.514 1073.83 170.78 1068.32C170.325 1067.65 171.028 1066.72 169.868 1065.13C168.69 1063.53 166.922 1062.92 164.94 1060.14C159.67 1052.8 155.214 1043.92 150.544 1035.02C150.408 1034.76 150.231 1034.51 150.024 1034.26C149.149 1033.27 147.618 1032.34 146.779 1030.78C143.61 1024.83 139.536 1015.65 136.419 1010.78C128.56 998.39 119.884 987.602 110.769 977.282C108.044 974.2 105.252 971.125 102.417 968.027C99.5213 964.858 97.7855 961.22 96.2484 959.558C92.7735 955.823 94.5959 959.41 91.0041 955.687C77.9262 942.146 64.2696 929.036 50.3601 914.78C41.7712 905.279 32.9053 898.557 23.9356 881.843C18.8186 871.553 12.7829 857.856 9.67734 844.732C7.70903 836.88 6.05631 828.349 4.96487 819.77C3.54028 808.859 2.03346 797.661 1.44534 787.623C1.04588 780.457 2.58815 779.025 2.35292 773.892C2.03696 764.672 -0.121035 763.002 0.00533485 752.815C0.128138 747.419 1.49549 741.484 2.93289 735.667C2.99816 735.74 3.13173 735.18 3.23276 734.702C3.3392 734.186 3.43748 733.601 3.52277 733.008C3.69366 731.815 3.8177 730.531 3.87342 729.282C4.20853 721.763 2.3518 718.085 2.79315 708.926C3.19817 703.592 3.47348 698.685 5.9567 688.982C6.81706 686.263 7.59587 683.556 8.17082 681.047C13.055 661.876 13.0966 646.565 22.3031 620.07C26.3722 611.04 30.2371 601.975 33.938 592.799C40.3069 576.793 47.8889 558.731 61.5542 542.302C73.0673 528.254 85.7125 511.051 99.9405 495.493C103.787 491.247 108.205 486.939 113.181 483.096C117.417 479.796 121.928 477.011 123.225 475.909C136.568 466.18 138.473 467.008 142.443 462.211C148.827 454.729 154.32 447.301 160.311 438.416C162.239 435.617 164.107 433.267 165.742 431.228C167.151 429.447 167.043 433.242 170.408 427.253C171.214 425.744 171.812 423.848 172.473 421.517C173.609 418.13 175.139 414.128 177.467 409.553C183.001 398.743 188.147 388.482 192.772 377.605C200.792 358.767 206.072 337.617 207.296 316.617C208.646 291.647 209.393 266.444 208.677 242.108C208.492 236.413 208.212 230.531 207.696 225.298C205.853 205.745 203.57 187.065 198.881 169.841C191.626 142.969 184.864 116.883 175.971 93.9187C167.027 71.0485 158.963 42.8978 155.106 26.2579C152.215 19.657 149.432 12.419 148.864 9.82676C148.501 8.69785 147.843 7.54115 147.074 6.55634C146.372 5.30684 147.429 0.454772 150.106 0C151.367 1.61141 152.05 3.4657 152.481 5.31864C152.923 5.05769 153.327 4.83278 153.703 4.6459C157.944 2.63312 157.717 3.8567 162.235 11.9882C165.304 17.5701 164.826 11.8891 167.242 14.3893C167.774 14.9391 168.604 15.8597 169.596 16.9744C174.696 22.9616 180.479 35.5623 176.287 33.581C177.399 34.5331 178.439 35.3851 179.53 36.3368C185.407 50.1266 191.469 63.4573 197.764 76.7025C198.848 78.9779 200.09 78.7005 201.193 81.0217C201.631 81.9442 202.038 82.8628 202.421 83.7823C204.661 89.1717 205.82 94.1887 207.843 100.191C209.112 104.015 210.679 104.131 212.047 109.232C213.374 114.333 211.458 114.713 215.302 121.089C216.588 115.963 219.833 136.565 221.486 143.616C221.747 144.667 225.78 152.66 226.497 157.231C226.792 159.076 226.974 161.294 227.247 163.809C227.682 167.691 228.175 172.075 229.34 176.388C230.247 179.76 232.25 181.616 232.82 185.329C233.217 187.94 232.052 191.246 232.316 194.529C232.597 197.815 234.439 204.778 234.551 206.065C234.989 210.713 233.526 205.664 233.711 208.846C233.986 213.572 234.199 218.505 234.45 223.444C234.978 235.281 234.91 246.82 235.486 257.298C235.582 259.148 236.84 256.582 236.883 256.829C238.476 269.419 236.799 262.696 235.665 266.096C234.607 269.385 234.938 293.407 237.105 293.628C234.331 294.316 236.338 299.7 236.387 301.092C236.577 306.505 234.213 305.386 234.813 310.639C235.03 312.57 236.748 308.869 236.644 310.935C236.531 313.16 235.947 315.276 235.282 317.508C234.412 320.577 233.353 323.809 232.867 327.793C232.652 329.495 233.764 330.162 233.391 333.208C233.114 336.285 229.653 348.706 233.01 343.256C229.768 350.623 230.559 352.318 228.373 361.123C227.79 363.351 225.267 365.708 224.424 370.504C224.13 372.133 225.866 372.622 225.115 375.004C223.683 379.495 220.997 383.288 218.482 388.156C217.946 389.186 217.427 390.253 216.929 391.397C211.741 403.458 206.371 416.665 199.914 428.077C198.384 430.826 197.253 429.875 195.412 432.804C195.146 433.244 194.862 433.749 194.552 434.339C194.232 435.104 192.002 442.132 189.673 445.183C188.841 446.36 185.673 450.064 183.538 452.845C182.184 454.655 180.678 456.775 180.188 457.485C177.98 460.742 179.044 462.273 177.555 463.907C173.207 468.549 174.006 462.924 172.495 471.112C169.472 471.976 166.956 475.581 164.2 475.181C164.412 476.757 163.764 477.836 162.75 478.908C161.305 480.448 159.235 481.899 157.263 484.361C153.843 488.682 152.341 495.396 148.527 491.321C147.193 492.709 143.009 495.919 141.68 497.695C140.558 498.831 139.687 499.597 139.309 499.91C135.275 503.132 136.582 500.284 133.887 502.471C133.456 502.842 134.456 503.323 131.598 505.407C130.451 506.187 125.471 510.453 121.766 514.705C119.126 517.647 116.957 520.158 116.62 520.466C108.451 528.094 117.013 518.088 120.335 513.446C120.859 512.698 121.229 512.107 121.369 511.72C121.898 511.578 122.437 511.432 122.984 511.276C127.039 507.818 123.286 508.268 121.155 509.722C120.388 510.251 119.606 511.119 118.814 512.107C117.377 513.891 115.949 515.937 114.678 516.672C113.688 517.244 111.968 514.912 114.371 512.643C111.422 514.743 113.865 510.505 112.341 511.028C110.608 511.557 100.263 523.678 101.463 524.736C103.359 522.458 105.647 519.564 107.614 517.301C112.145 516.068 111.721 530.857 102.228 537.09C95.2898 541.672 101.608 530.085 91.9058 546.24C93.7597 544.022 95.4467 542.251 97.1359 540.259C98.8949 541.282 94.5525 543.262 93.717 545.391C93.3245 546.411 98.4187 542.164 95.349 546.906C90.073 548.979 90.2052 553.68 84.8796 560.253C85.9887 558.106 87.0284 555.981 88.0432 553.864C77.8069 563.384 97.0427 538.154 79.8729 557.716C79.7567 557.842 79.639 557.97 79.52 558.101C79.6271 557.963 79.7348 557.827 79.8432 557.691C81.7664 555.284 83.6808 552.895 85.4567 550.418C83.6625 550.988 82.7559 547.113 81.3818 547.8C79.0384 548.97 77.1463 551.434 75.2805 553.852C74.2091 555.232 73.2056 556.658 72.1953 557.919C70.9456 559.497 71.0125 557.999 70.908 558.131C69.2027 560.328 70.5656 560.539 69.279 562.568C67.6124 565.072 62.1953 572.02 61.6902 573.37C60.2781 576.748 65.278 572.553 65.2739 572.977C65.1745 575.534 62.1956 579.224 63.6835 579.707C67.1279 568.562 87.6463 544.391 73.0339 568.852C79.4389 563.771 80.6482 567.511 75.4746 576.789C71.3538 584.746 72.9273 578.998 69.389 582.529C68.8687 582.921 63.0079 593.957 63.8008 595.018C61.7399 593.578 58.1197 596.561 56.8711 592.998C56.6797 592.465 58.9238 587.689 56.3198 588.559C55.0061 588.994 51.9065 590.574 50.875 589.673C51.2751 591.046 51.7721 592.496 52.2165 593.891C51.2913 596.349 50.5403 598.078 49.8279 599.37C48.3656 602.03 47.0521 603.061 44.8837 605.266C45.6065 605.367 49.9006 602.855 46.6962 608.07C46.5224 608.335 45.4443 608.163 43.7378 610.765C40.2819 616.021 39.4509 617.038 38.5118 611.451C36.6774 617.907 34.5675 621.28 32.3452 624.755C29.776 629.244 28.1645 633.267 27.0836 639.832C31.0641 638.254 30.9922 635.108 34.2105 625.625C34.7747 624.145 35.3918 622.5 36.0851 620.682C37.1715 620.603 38.1322 620.776 39.2348 620.683C37.6742 623.165 36.4977 624.953 35.6144 626.28C31.5497 633.622 33.489 629.616 32.8887 637.598C32.7074 639.963 29.6757 651.601 33.1687 648.254C33.9714 647.46 35.5546 640.188 36.3519 641.254C36.4649 641.463 34.9928 650.355 34.5922 651.085C29.3936 660.191 30.9201 642.335 26.3627 669.376C26.2334 670.125 27.3225 670.621 27.16 672.102C26.8519 674.869 25.5222 674.605 25.2716 677.081C25.0213 679.548 25.996 683.327 23.4476 686.515C18.814 692.284 21.0336 676.508 24.0726 669.896C22.4014 668.052 18.959 679.582 15.1871 691.512C11.567 707.12 11.9095 719.43 11.7456 721.342C12.4205 735.331 12.9049 712.142 14.1758 710.938C14.6935 710.455 20.5697 711.211 17.2489 704.947C16.2645 703.063 14.1036 710.337 13.8621 705.859C13.6528 701.325 15.2428 703.275 15.3919 702.964C15.8986 701.926 15.8678 696.978 16.2639 696.304C17.1041 694.812 18.0088 693.557 18.9322 692.538C22.037 689.854 24.0976 690.295 22.0722 693.399C21.0651 695.049 19.399 697.4 16.7388 700.543C17.9803 706.178 22.5328 694.193 22.9644 701.011C23.614 709.097 20.63 714.704 20.417 715.711C18.218 727.653 23.0234 714.034 20.8865 728.627C19.6762 736.743 19.0225 716.314 18.0873 734.86C18.0111 736.039 17.9376 737.112 17.8561 737.885C16.7756 749.218 19.1035 742.167 21.8306 743.56C22.5351 743.923 22.5341 752.315 23.4663 740.96C22.6969 740.536 21.7094 739.784 21.0679 738.946C21.1327 738.768 21.2136 738.585 21.3085 738.398C22.6469 735.578 26.4339 731.494 26.667 730.08C27.7911 722.673 25.6378 722.925 28.4066 718.728C25.4811 721.66 27.4383 716.71 26.9952 714.785C25.4285 707.668 23.7267 716.591 28.0058 701.37C26.4872 703.198 25.0495 704.92 23.5968 706.798C23.7225 704.902 23.8665 703.002 24.0524 701.111C25.8255 699.709 27.011 695.868 28.0468 695.036C28.5162 694.513 28.8839 694.469 29.1339 695.334C29.3653 695.788 29.5592 696.699 29.8219 698.253C30.077 697.243 30.3321 696.347 30.5585 695.724C33.3181 687.291 33.4735 683.342 32.0722 680.77C31.7701 680.222 31.9909 678.555 32.3864 676.639C31.7013 676.861 29.7334 676.894 29.5736 676.542C28.1819 673.406 32.5667 670.023 33.5831 671.73C33.9417 670.403 34.2456 669.359 34.3578 668.997C35.0785 666.661 35.2721 671.577 36.1002 669.744C36.3789 669.133 37.5384 662.382 38.0483 662.367C41.3489 662.236 36.7943 672.66 43.2295 651.108C40.4848 649.954 38.9709 660.289 36.4897 657.037C33.8231 653.518 39.3988 648.74 35.6961 646.612C36.4517 646.301 37.0463 646.204 37.8809 645.971C38.1589 636.739 41.6171 637.491 43.0525 635.206C43.6766 634.269 44.5149 632.412 45.4064 630.849C49.4537 623.411 53.5411 612.732 44.2033 627.724C45.3114 624.629 46.5678 621.532 47.6545 618.453C53.4962 620.238 50.5964 621.13 57.6255 606.985C58.3991 605.41 59.5176 604.625 60.2297 603.671C60.9338 602.724 61.2308 601.634 60.4015 599.498C63.108 601.063 65.2228 591.193 65.982 590.544C69.4756 587.321 67.1134 598.488 63.123 604.868C61.8312 606.867 60.3599 608.274 58.8622 608.408C59.3336 612.808 56.7252 611.687 55.3565 615.79C53.3537 621.712 53.5039 622.754 48.52 628.6C48.2464 636.517 61.3561 603.051 56.0976 624.546C55.5291 626.825 54.4486 630.172 52.9142 634.351C50.3097 643.386 47.4078 671.561 40.8209 698.536C40.2716 701.722 39.7432 710.68 39.5052 717.558C39.1493 725.206 39.3173 731.001 38.4059 740.939C36.0686 761.037 38.7201 780.616 39.5872 789.944C40.5932 799.182 41.6882 807.795 42.6775 815.94C45.2657 836.047 49.7787 848.189 58.6374 865.307C60.2557 869.027 69.3071 878.737 78.0562 887.706C79.3015 888.987 80.6363 890.344 81.965 891.686C85.0184 894.807 110.563 919.587 102.894 916.836C101.789 916.413 90.0198 906.593 97.4447 917.718C96.6641 914.711 102.861 919.422 103.443 919.775C116.638 927.757 111.29 920.714 127.781 938.054ZM146.268 1011.62C130.953 986.547 140.809 1005.9 133.211 1003.71C135.275 1006.77 137.269 1009.84 139.22 1012.98C138.978 1011.98 138.737 1011 138.485 1010.01C138.483 1010.01 138.48 1010 138.478 1010C141.07 1010.5 143.668 1011.04 146.268 1011.62ZM208.536 1479.1C208.131 1477.8 207.722 1476.52 207.351 1475.13C208.422 1471.3 209.47 1467.5 210.494 1463.7C210.847 1464.25 211.208 1464.79 211.559 1465.35C210.563 1469.91 209.525 1474.46 208.536 1479.1ZM24.237 665.632C27.2582 660.52 23.8505 660.337 26.8947 653.277C24.2762 653.663 21.6845 654.188 19.0808 654.625C18.266 660.305 18.9404 661.739 17.0417 667.601C17.9749 667.073 18.9149 666.531 19.8467 666.022C19.8969 664.981 19.9332 663.883 19.9925 662.877C22.5115 661.806 20.7614 671.488 24.2379 665.653C24.2376 665.646 24.2373 665.639 24.237 665.632ZM40.7433 608.716C41.7366 606.978 44.6082 601.802 46.304 597.913C47.1592 595.956 47.7524 594.261 47.6474 593.603C47.2757 591.289 45.6331 593.907 44.0512 596.981C41.1443 602.59 38.1331 610.218 42.0266 596.144C42.1124 595.816 42.2144 595.444 42.3157 595.069C41.821 594.985 41.4193 594.701 40.9711 594.517C40.8176 594.854 40.6588 595.203 40.5133 595.518C38.7977 599.265 37.0716 602.994 35.3047 606.74C37.171 607.288 38.854 608.197 40.7433 608.716ZM77.1188 930.156C74.0043 926.716 56.8992 912.1 60.5352 918.809C61.6183 920.808 70.9655 925.586 73.5489 928.325C75.2359 930.114 72.0595 929.412 75.9415 932.352C76.3273 931.659 76.831 930.966 77.1058 930.15C77.1101 930.152 77.1144 930.154 77.1188 930.156ZM90.4375 929.166C86.7884 925.965 83.0261 922.8 79.3245 919.612C80.4785 923.519 86.331 927.525 84.6665 929.79C83.572 929.001 82.4928 928.227 81.3973 927.439C81.1056 926.297 80.8104 925.151 80.5265 924.017C76.4892 922.153 77.77 924.47 72.5276 918.689C72.9347 924.995 71.997 927.199 84.4135 933.536C81.0289 933.388 77.4752 940.298 86.3932 941.733C88.0601 942.01 84.4847 937.491 84.5422 937.331C85.2939 935.326 88.4305 936.703 89.0621 934.73C89.3488 933.837 86.8551 931.368 87.294 930.175C87.5198 929.603 91.0274 930.826 90.4375 929.166ZM90.2154 942.948C88.3335 942.725 89.9071 948.291 93.3536 951.028C98.7332 955.318 93.1667 945.721 90.2154 942.948ZM208.533 1479.13C208.534 1479.12 208.535 1479.11 208.536 1479.1C208.537 1479.11 208.539 1479.11 208.54 1479.11C208.538 1479.12 208.535 1479.12 208.533 1479.13ZM33.1551 622.306C33.7336 618.675 36.0041 613.966 34.3884 613.665C35.3736 612.23 36.3593 610.764 37.3341 609.32C36.888 609.142 36.4346 608.979 35.9931 608.803C33.6517 613.405 31.2623 617.963 28.8124 622.506C30.2479 622.463 31.6694 622.461 33.1551 622.306ZM57.792 570.089C61.3353 564.091 56.5847 568.114 56.4245 566.261C56.2466 564.368 60.3539 559.333 58.703 559.174C56.3391 562.774 54.0979 566.582 52.0766 570.32C54.0473 570.087 55.8788 570.199 57.7987 570.077C57.7964 570.081 57.7942 570.085 57.792 570.089ZM198.162 1119.62C197.299 1115.23 199.43 1116.48 194.959 1108.65C194.961 1108.66 194.963 1108.66 194.965 1108.67C196.164 1117.06 198.174 1127.7 202.027 1136.14C202.112 1130.26 199.51 1126.53 198.162 1119.62ZM16.0598 679.582C16.9097 681.696 19.972 673.554 19.183 671.407C17.931 667.979 14.7996 676.402 16.0598 679.582ZM240.491 1293.18C244.69 1299.86 248.976 1286.88 246.435 1273.3C246.221 1272.15 245.284 1280.97 244.393 1278.39C244.306 1278.1 244.211 1273.32 243.594 1272.14C242.979 1270.99 241.729 1272.3 241.093 1270.38C239.991 1267.05 241.35 1259.19 239.931 1256.73C239.747 1256.43 238.279 1261.31 238.224 1261.58C237.437 1266.5 239.931 1271.17 239.978 1271.89C240.226 1275.8 238.405 1275.27 238.025 1276.27C237.309 1278.17 238.219 1281.38 238.168 1281.62C236.808 1287.62 236.776 1274.1 236.028 1272.29C234.056 1267.48 232.688 1272.05 231.079 1260.44C230.928 1259.35 230.24 1246.11 229.217 1262.88C223.056 1230.47 227.873 1279.41 228.699 1284.8C229.206 1287.25 230.792 1283.47 231.609 1284.93C233.485 1288.36 233.951 1294.18 236.414 1293.58C241.597 1292.31 237.967 1284.68 238.638 1279.33C239.79 1279.84 240.901 1280.01 242.044 1281C240.513 1279.49 240.189 1292.67 240.481 1293.18C240.484 1293.18 240.487 1293.18 240.491 1293.18ZM229.175 1210.06C229.786 1202.57 226.609 1203.58 227.335 1196.76C223.368 1191.57 225.634 1202.76 225.591 1204.14C225.712 1210.29 222.494 1210.51 224.148 1216.59C225.823 1214.31 227.526 1212.26 229.175 1210.06ZM232.536 1274.32C230.661 1269.43 231.064 1278.26 230.753 1278.66C227.566 1282.64 227.04 1256.27 232.536 1274.32ZM61.1176 904.93C60.9979 904.796 60.8873 904.684 60.784 904.59C59.395 903.32 59.2763 905.216 57.4972 904.014C55.5707 902.736 51.2462 896.187 50.6578 896.987C50.0298 897.811 58.0329 909.966 47.7347 899.912C47.6588 900.649 47.243 900.814 47.0369 901.332C49.7534 904.256 52.484 907.122 55.2288 909.952C54.8668 907.283 54.5438 904.521 54.2387 901.958C56.6783 902.655 56.3583 904.677 56.4396 904.761C56.4408 904.76 56.4421 904.759 56.4433 904.758C57.1548 905.447 57.9696 906.022 58.818 906.512C61.5094 908.038 64.0468 908.178 61.1176 904.93ZM180.183 1062.78C183.887 1061.07 176.925 1059 175.053 1057.35C173.206 1055.69 172.338 1052.02 171.725 1054.08C173.249 1058.12 179.827 1062.97 180.187 1062.77C180.186 1062.77 180.184 1062.77 180.183 1062.78ZM220.482 1171.9C217.483 1166.45 216.796 1167.83 215.25 1160.04C214.442 1160.65 213.616 1161.27 212.825 1161.88C214.938 1167.78 217.487 1166.37 218.746 1173.19C218.927 1174.29 216.082 1172.84 218.336 1177.25C219.022 1175.52 219.79 1173.69 220.482 1171.9ZM207.324 1143.08C208.292 1146.23 210.739 1148.62 212.396 1149.12C213.068 1149.35 213.607 1149.24 213.866 1148.73C214.365 1147.84 213.916 1145.58 211.494 1141.53C210.453 1139.81 205.746 1137.98 207.324 1143.08ZM107.895 951.709C99.6835 942.746 108.312 953.608 109.543 956.745C89.463 936.932 112.085 958.805 110.865 963.612C113.989 965.36 120.183 968.471 115.974 962.665C114.198 960.25 114.041 961.86 113.925 961.722C110.458 957.468 112.341 956.631 107.895 951.709ZM230.662 1222.7C230.565 1222.26 229.284 1223.1 228.89 1221.66C228.5 1220.22 229.131 1216.94 228.269 1216.67C227.421 1216.45 227.393 1223.02 228.133 1224.91C228.898 1226.89 231.51 1226.71 230.662 1222.7ZM225.892 1176.9C223.137 1171.53 221.398 1182.26 221.657 1183.39C224.747 1194.04 224.496 1177.14 225.892 1176.9ZM133.088 967.395C129.95 964.672 127.917 963.596 126.733 963.589C126.01 963.59 125.603 963.998 125.438 964.699C124.91 967.043 126.985 972.598 128.996 977.493C130.16 978.098 131.347 978.743 132.494 979.356C126.511 977.06 118.276 971.564 133.405 986.524C127 976.844 133.571 984.015 133.77 983.984C139.39 981.376 126.339 969.372 133.097 967.405C133.094 967.402 133.091 967.398 133.088 967.395ZM230.764 1242.57C231.341 1248.88 233.322 1265.29 235.461 1257.47C233.942 1252.44 232.379 1247.51 230.764 1242.57ZM23.9289 767.736C25.2918 762.565 25.2481 757.92 25.4882 751.708C23.062 757.209 22.9747 753.531 22.5534 751.573C21.918 748.609 21.6067 755.685 21.4937 755.706C19.4773 755.518 19.1783 750.911 19.076 761.355C18.3675 758.771 17.7001 756.195 17.1032 753.554C16.7236 761.597 15.4893 763.482 13.9608 768.675C17.8484 763.588 15.4342 770.235 17.752 776.024C18.8988 778.881 23.2012 770.321 23.9284 767.716C23.9285 767.723 23.9287 767.729 23.9289 767.736ZM123.622 955.158C122.063 954.497 120.396 954.107 118.797 953.575C117.654 952.439 116.514 951.303 115.36 950.178C115.692 949.599 116.066 949.024 116.356 948.437C115.043 946.758 114.959 947.969 114.468 947.566C114.47 947.563 114.473 947.561 114.475 947.559C107.426 941.788 104.954 939.089 101.399 932.668C100.011 934.038 98.6224 935.409 97.2342 936.779C98.4783 937.775 99.7229 938.782 100.958 939.786C102.294 939.653 103.635 939.526 104.974 939.401C105.837 941.118 106.687 942.825 107.536 944.547C108.824 945.346 110.327 946.35 111.468 947.024C112.519 956.067 103.804 941.49 102.041 942.985C100.965 943.906 112.457 955.895 114.767 957.031C115.108 957.191 115.679 951.777 118.225 957.728C118.624 958.682 112.295 964.717 121.937 964.943C123.316 964.996 125.293 958.925 123.622 955.158ZM83.0499 909.476C85.7355 920.06 65.4366 891.528 72.7237 905.308C67.8984 904.138 68.4592 904.655 69.8867 909.313C70.0129 909.729 67.4028 908.13 67.5201 908.373C69.4756 912.114 73.3924 915.035 71.8097 916.702C72.6589 917.368 73.4776 918.023 74.3304 918.692C72.626 913.97 78.774 917.989 82.038 918.641C83.5181 918.938 81.6326 916.72 82.8962 916.949C83.3581 917.033 85.8869 920.27 86.5398 919.849C87.991 918.873 87.7965 915.422 85.5985 911.481C85.5997 911.48 85.6009 911.479 85.6021 911.478C84.7586 910.804 83.8967 910.146 83.0499 909.476ZM200.235 1074.05C199.745 1074.59 199.408 1075.29 199.126 1075.97C198.323 1077.79 198.02 1079.43 196.364 1076.86C195.713 1075.86 194.871 1074.27 193.514 1071.93C193.185 1072.72 192.847 1073.5 192.49 1074.27C192.966 1075.4 193.4 1076.52 193.811 1077.69C194.068 1078.42 194.326 1079.16 194.585 1079.9C205.237 1083.12 198.897 1097.28 202.837 1088.25C203.27 1087.28 201.011 1082.8 204.321 1086.87C204.32 1086.86 204.32 1086.86 204.32 1086.85C201.925 1081.11 200.623 1080.21 200.334 1075.58C200.297 1075.11 200.264 1074.6 200.235 1074.05ZM173.975 1036.02C159.846 1026.31 183.168 1056.07 181.164 1049.66C180.873 1049.2 170.52 1036.77 173.975 1036.02ZM227.012 1149.79C226.464 1147.89 225.81 1146.62 225.098 1145.74C223.402 1143.58 221.45 1144.02 220.73 1144.75C220.345 1145.13 220.452 1145.98 220.725 1146.91C221.184 1148.48 222.2 1150.28 222.19 1150.68C222.142 1152.79 220.489 1148.84 220.377 1151.6C220.226 1152.54 223.179 1164.46 223.558 1164.92C225.433 1167.53 226.573 1162.26 227.195 1162.98C229.239 1165.31 229.177 1169.58 230.912 1169.88C234.653 1170.53 228.853 1164.61 228.361 1163.51C226.909 1160.07 228.759 1159.73 228.175 1157.03C227.606 1154.35 226.445 1152.91 225.867 1150.63C225.677 1149.87 227.1 1150.11 227.012 1149.79ZM213.525 1129.69C218.18 1135.96 215.847 1117.99 214.605 1116.16C211.002 1110.73 211.326 1126.69 213.525 1129.69ZM93.7872 932.054C99.9022 935.444 89.9558 923.257 86.2206 920.691C86.2465 921.84 91.6975 930.889 93.7872 932.054ZM135.692 970.618C131.296 966.153 133.145 975.283 136.29 979.31C140.395 979.971 138.238 978.047 136.243 975.305C134.235 972.565 139.103 974.149 135.692 970.618ZM241.099 1225.47C241.184 1224.14 236.533 1202.84 236.878 1215.28C236.946 1216.16 238.247 1227.61 238.808 1231.3C238.892 1231.78 238.975 1232.16 239.04 1232.29C239.551 1233.32 240.065 1232.59 240.467 1231.2C240.893 1229.58 241.169 1227.27 241.099 1225.47ZM156.911 992.514C152.994 991.085 151.182 988.403 150.49 992.551C150.492 992.554 150.495 992.558 150.497 992.562C145.061 986.193 149.617 982.475 148.446 981.045C144.314 976.164 144.471 983.528 141.003 981.181C147.484 987.792 143.617 987.349 147.414 993.134C148.27 994.426 153.123 998.671 154.509 998.887C155.903 999.085 156.838 994.65 156.911 992.514ZM243.943 1255.65C244.437 1248.32 239.929 1242 240.002 1252.08C240.01 1256.95 243.632 1260.15 243.943 1255.65ZM57.8291 604.671C56.4291 605.293 55.0198 605.943 53.5956 606.633C54.1252 604.949 54.6467 603.261 55.16 601.575C55.4226 600.707 55.7009 599.79 55.9575 598.929C55.7525 599.811 55.5249 600.747 55.3119 601.638C55.0264 602.816 54.736 603.996 54.4407 605.18C55.114 603.855 55.8174 602.795 56.4349 602.102C57.6303 600.752 58.5126 600.774 58.2366 602.847C58.172 603.333 58.0415 603.935 57.8341 604.659C57.8324 604.663 57.8308 604.667 57.8291 604.671ZM169.05 470.613C171.271 469.338 171.31 463.796 170.769 464.137C166.843 466.619 166.013 472.326 169.05 470.613ZM93.4877 918.292C87.8542 912.104 88.353 919.769 91.7389 923.623C90.1985 920.719 96.6813 921.811 93.4877 918.292ZM121.369 511.72C120.643 511.925 119.929 512.125 119.152 512.405C119.07 512.435 118.988 512.465 118.905 512.496C118.971 512.449 119.036 512.403 119.1 512.359C121.067 511.014 121.617 511.032 121.369 511.72ZM245.321 1221.67C245.632 1220.31 245.004 1210.72 244.327 1209.44C242.999 1206.9 241.096 1214.65 242.329 1218.92C242.471 1219.38 245.039 1222.99 245.319 1221.65C245.32 1221.66 245.32 1221.67 245.321 1221.67ZM63.9205 595.09C63.8699 595.084 63.8301 595.059 63.8008 595.018C63.839 595.044 63.8834 595.06 63.9205 595.09ZM237.339 293.559C237.259 293.61 237.18 293.636 237.105 293.628C237.179 293.61 237.258 293.571 237.339 293.559ZM234.251 1153.63C237.825 1149.27 233.569 1144.13 232.761 1149.64C232.721 1149.95 234.008 1152.94 234.251 1153.63Z" fill="var(--stroke-0, white)"/>
</svg>
