<svg preserveAspectRatio="none" width="100%" height="100%" overflow="visible" style="display: block;" viewBox="0 0 754.557 1520.29" fill="none" xmlns="http://www.w3.org/2000/svg">
<path id="Vector 13" opacity="0.5" d="M273.813 893.412C304.647 902.732 336.397 912.498 368.428 923.602C415.081 939.834 462.093 959.305 505.644 984.147C527.708 996.903 551.484 1005.27 577.435 1016.79C590.288 1022.86 588.909 1024.14 592.465 1026.29C599.05 1030.51 604.45 1033.7 609.394 1037.71C611.279 1039.18 613.037 1040.6 614.806 1042.31C637.565 1064.51 658.768 1084.56 680.402 1108.79C682.183 1110.89 684.238 1112.98 686.573 1115.14C698.402 1125.51 702.835 1130.38 703.169 1132.51C703.785 1134.78 702.013 1134.91 706.628 1139.9C723.752 1160.94 712.217 1140.11 720.491 1147.56C732.965 1162.99 739.886 1181.86 743.217 1199.7C745.318 1208.23 748.772 1222.28 750.292 1233.63C748.585 1226.72 746.602 1219.69 744.341 1212.82C747.441 1225.34 749.512 1243.3 744.106 1222.77C744.686 1227.48 745.001 1231.82 745.369 1236.59C747.811 1237.51 750.706 1259.56 751.952 1261.46C753.393 1263.34 751.874 1250.94 751.943 1251C754.266 1251.73 755.009 1302.76 754.298 1306.25C753.878 1315.75 751.347 1307.61 751.426 1315.33C751.426 1315.43 751.427 1315.54 751.429 1315.64C751.035 1330.47 757.494 1321.47 747.548 1340.55C748.112 1348.87 746.867 1349.46 743.561 1359.07C743.1 1360.33 744.684 1359.78 744.519 1360.35C739.884 1375.24 741.92 1363.18 741.758 1363.24C739.36 1363.85 733.562 1378.99 731.554 1381.75C722.283 1396.44 712.38 1407.65 704.37 1419.1C692.289 1436.92 677.848 1452.28 664.029 1472.64C663.815 1472.97 663.585 1473.33 663.343 1473.72C658.501 1483.95 637.403 1501.64 630.357 1505.9C623.118 1510.78 625.915 1506.69 621.797 1508.82C621.179 1510.18 620.513 1511.44 619.754 1512.65C612.411 1519.24 605.086 1518.33 591.522 1517.61C587.191 1520.25 586.275 1519.36 581.806 1520.12C581.72 1520.14 581.46 1520.2 581.372 1520.22C577.892 1520.52 576.112 1519.81 573.132 1519.26C563.33 1517.25 544.937 1513.49 538.503 1510.8C539.842 1510.74 542.3 1511.16 543.842 1511.39C545.509 1511.65 546.87 1511.83 548.302 1512.01C551.174 1512.38 554.298 1512.74 561.052 1514.5C561.915 1514.73 564.278 1515.46 567.586 1516.44C571.147 1517.27 574.32 1519.11 581.142 1518.88C581.204 1518.86 581.386 1518.83 581.446 1518.81C594.819 1516.06 613.571 1514.5 610.783 1512.55C608.734 1511.62 592.928 1514.21 592.269 1514C588.481 1512.67 597.402 1510.02 605.19 1509.96C603.303 1510.49 600.971 1511.03 598.886 1511.53C607.824 1511.82 608.963 1510.02 609.618 1509.09C609.951 1508.61 610.17 1508.3 611.135 1508.37C612.092 1508.35 613.85 1509.15 616.994 1509.15C617.014 1509.15 617.035 1509.15 617.055 1509.14C618.9 1508.76 618.919 1509.84 621.638 1508.87C621.864 1508.24 618.639 1509.56 620.839 1507.67C623.099 1505.72 628.659 1503.79 628.473 1502.11C628.23 1499.64 618.814 1507.66 618.045 1508.18C618.045 1508.2 618.045 1508.21 618.045 1508.23C617.53 1508.53 617.119 1508.75 616.803 1508.91C616.395 1509.07 616.141 1509.06 616.12 1508.97C616.081 1508.88 616.27 1508.68 616.436 1508.45C618.244 1506.47 624.594 1501.61 624.965 1501.18C628.439 1496.98 624.982 1498.29 630.646 1492.74C633.947 1489.62 642.677 1482.99 645.149 1479.95C647.699 1477.02 642.79 1480.64 644.447 1478.63C646.08 1476.65 648.754 1474.76 650.346 1472.2C651.022 1471.11 650.062 1470.51 650.383 1469.99C651.488 1468.17 652.115 1467.42 652.645 1467.08C653.838 1466.22 654.275 1467.36 656.768 1463.39C659.124 1459.51 666.176 1446.2 659.602 1454.17C662.319 1449.98 665.049 1446.05 667.787 1442.08C665.702 1444.32 663.629 1446.72 661.526 1448.93C667.425 1441.82 668.336 1437.47 671.536 1432.87C674.72 1428.29 679.494 1425.59 681.968 1419.96C687.249 1408.02 670.124 1434.82 667.011 1437.85C665.932 1439.02 668.119 1433.06 668.616 1432.29C670.889 1428.83 674.744 1425.69 676.489 1423.1C680.468 1417.18 682.749 1412.34 685.169 1407.27C686.807 1403.95 688.584 1400.7 690.766 1397.22C708.463 1371.1 721.99 1343.12 720.802 1315.15C720.741 1308.25 720.591 1301.65 720.369 1295.45C719.896 1282.57 721.263 1274.9 720.775 1269.16C719.507 1255.82 717.648 1254.4 715.921 1243.14C714.2 1232.2 712.275 1222.06 708.703 1206.94C707.6 1200.19 706.05 1194.22 704.428 1189.75C701.495 1181.47 695.968 1176.16 694.722 1174.51C686.459 1162.05 669.848 1153.73 651.484 1134.35C639.305 1120.96 625.487 1107.65 614.687 1097.17C604.178 1087.04 600.348 1080.98 598.128 1078.94C588.57 1070.24 589.982 1073.68 582.536 1066.54C582.506 1066.51 582.476 1066.48 582.446 1066.45C579.792 1063.96 579.809 1062.3 579.418 1061.91C575.467 1058.58 573.381 1059.7 569.473 1057.67C545.67 1046.19 515.586 1035.57 488.095 1019.69C486.99 1019.06 486.667 1018.58 486.385 1018.16C486.186 1017.83 486.008 1017.54 485.459 1017.25C480.22 1014.56 481.954 1017.07 476.529 1014.21C465.224 1008.29 453.642 1002.19 441.401 996.261C440.205 995.683 440.105 994.412 437.314 993.124C434.506 991.834 431.931 991.808 427.541 989.79C416.026 984.512 404.926 978.529 392.373 973.533C390.293 972.708 387.244 972.951 384.109 971.737C375.765 968.495 364.225 963.341 355.664 960.05C354.188 959.48 352.793 958.96 351.519 958.513C323.301 948.627 296.577 941.079 269.421 932.802C263.043 930.86 257.733 927.969 254.409 926.938C246.932 924.625 252.241 927.436 244.649 925.166C215.456 916.427 186.149 907.832 156.644 898.691C130.464 889.897 106.751 885.101 76.9557 869.159C70.5694 865.143 63.2974 860.81 56.1428 855.807C40.8145 845.321 21.675 828.435 13.7974 805.146C10.7275 796.463 7.63941 787.783 5.21926 779.139C2.28175 768.205 3.38434 765.647 2.04706 757.16C0.586235 741.63 -2.29331 737.564 3.33096 719.161C4.09913 717.06 5.02916 714.978 6.10461 712.936C5.59884 714.048 5.68346 714.075 5.72093 714.012C5.78287 713.914 5.90383 713.611 6.03278 713.249C6.29983 712.492 6.61107 711.487 6.9311 710.408C7.5743 708.233 8.26046 705.774 8.95967 703.258C10.3668 698.19 11.804 692.867 13.2963 687.316C15.5336 680.202 15.5851 675.062 22.5099 665.668C24.6989 662.506 26.9874 659.153 30.4773 654.662C36.688 646.79 45.5299 635.608 52.443 625.442C58.5976 616.963 64.1965 607.13 77.6086 597.806C90.8365 589.072 103.758 580.071 116.397 570.702C140.758 551.756 170.265 534.336 200.933 523.526C240.493 508.819 281.638 491.936 323.874 478.175C331.55 475.648 339.323 473.335 347.215 471.272C362.53 467.139 379.463 464.222 393.456 460.944C419.67 454.993 441.653 453.541 461.754 447.035C462.493 446.804 463.226 446.575 463.953 446.348C467.408 445.248 462.9 449.06 473.642 444.51C479.405 442.013 486.887 437.317 499.94 431.344C506.608 428.286 512.708 425.3 519.902 421.729C533.987 415.055 546.711 410.498 557.179 404.229C581.672 389.892 605.195 377.848 626.761 362.436C647.181 348.117 665.576 328.129 667.756 308.371C669.23 294.998 670.053 281.509 670.256 268.171C670.425 252.628 669.99 235.027 667.161 222.883C662.281 202.483 657.067 186.247 646.575 172.899C625.32 144.982 604.975 119.76 579.535 101.05C549.786 78.9633 518.501 49.9521 496.513 33.7514C484.003 26.7233 472.935 19.1473 463.255 14.5415C456.776 11.6201 449.477 9.17807 442.236 7.10846C437.119 5.7047 440.143 1.04514 443.701 0C446.716 1.29185 449.41 2.81989 452.398 4.42665C456.731 -0.149524 456.774 0.0837653 466.437 3.19577C467.794 3.66318 469.338 4.23743 471.109 4.93967C479.773 8.60336 473.699 3.46806 478.709 4.70888C483.239 5.76623 498.56 11.5292 505.265 15.0836C508.468 16.7879 509.69 18.2189 507.435 18.3895C509.481 18.6963 511.392 19.0589 513.395 19.5288C532.725 32.0529 549.707 45.5388 567.821 58.1896C571.006 60.4591 571.787 59.4717 575.072 61.8163C583.114 67.5246 588.95 73 596.744 79.0935C597.297 79.5257 597.855 79.9607 598.421 80.3992C603.165 84.1281 604.783 83.5118 610.752 88.8642C616.641 94.337 615.184 95.5306 624.345 101.828C621.365 94.8229 641.602 119.533 648.06 128.417C649.09 129.663 658.798 138.843 662.682 144.692C664.745 147.761 667.143 151.896 669.949 156.35C672.669 160.616 675.421 165.303 678.274 170.032C681.093 174.76 684.049 177.175 686.26 182.74C687.797 186.661 687.866 191.872 689.139 196.798C690.485 201.769 694.03 211.912 694.454 213.689C694.851 215.352 694.98 216.139 694.962 216.467C694.963 216.842 694.823 216.74 694.654 216.538C694.365 216.259 693.995 215.712 694.109 216.664C694.152 216.972 694.232 217.408 694.354 218.026C698.311 243.536 696.409 269.442 695.797 292.603C695.69 295.427 697.226 291.614 697.241 291.99C697.347 311.276 696.443 300.918 694.878 305.977C694.601 306.838 694.283 308.69 693.934 311.146C693.324 325.468 679.372 349.54 680.346 350.426C677.439 349.901 673.766 358.102 672.25 359.854C666.577 366.679 666.035 363.747 660.54 370.116C658.472 372.426 663.969 369.476 661.511 371.726C656.122 376.604 649.819 379.272 642.448 383.867C641.433 384.495 640.411 385.153 639.355 385.872C637.271 387.28 637.282 388.706 633.573 391.219C629.895 393.829 613.385 402.677 621.967 400.091C611.343 404.502 609.961 406.578 598.704 413.139C595.856 414.787 591.254 415.296 585.556 419.265C583.634 420.609 584.591 422.127 581.581 423.904C578.521 425.717 575.38 427.16 572.104 428.679C567.521 430.877 562.627 432.814 557.244 435.339C548.711 439.349 540.057 443.071 532.184 447.132C523.086 452.004 512.986 457.07 503.045 461.073C497.884 463.14 498.484 460.951 491.031 463.971C489.95 464.426 481.52 469.466 476.268 471.253C475.397 471.554 473.542 472.141 471.187 472.859C464.748 474.908 454.835 477.086 452.304 477.628C446.555 478.936 445.907 480.83 442.68 481.193C433.39 482.106 440.182 478.15 429.99 483.654C426.078 482.389 419.901 483.671 417.501 481.669C414.384 484.92 409.259 483.233 402.727 485.649C401.788 486.001 400.896 486.442 400.065 486.922C394.664 489.868 390.788 493.767 388.356 489.506C385.153 490.865 371.651 494.915 369.425 495.574C362.754 497.409 365.985 495.065 360.971 496.538C360.102 496.806 361.267 497.54 355.577 498.973C353.228 499.54 341.862 502.775 333.265 505.699C327.969 507.468 323.7 508.922 323.064 509.088C307.328 513.233 324.213 507.391 332.674 503.966C334.459 503.238 335.819 502.637 336.468 502.217C337.27 502.262 338.04 502.322 338.889 502.353C347.202 500.23 341.85 499.452 337.963 500.134C336.325 500.422 334.19 501.185 332.008 502.016C329.045 503.142 326.043 504.349 324.116 504.552C322.451 504.725 322.471 501.735 327.264 500.439C321.976 501.351 328.515 498.125 326.271 498.04C323.787 497.898 301.214 505.657 301.647 507.19C305.841 505.717 311.048 503.786 315.305 502.347C321.722 502.935 308.029 517.469 291.502 519.749C279.481 521.435 297.011 512.527 271.555 524.581C275.641 523.133 279.12 522.079 282.841 520.794C283.94 522.534 277.202 522.712 274.372 524.482C273.023 525.331 282.581 523.218 274.885 526.659C267.075 526.556 262.916 531.266 251.572 535.703C254.534 534.002 257.517 532.297 260.485 530.598C240.546 536.071 284.88 518.175 247.124 531.536C251.59 529.704 256.062 527.995 260.525 526.12C257.949 525.98 260.342 521.726 258.14 521.872C252.371 522.252 245.15 526.172 238.82 528.464C236.07 529.461 237.459 528.023 237.227 528.108C233.419 529.482 234.711 530.301 231.437 531.649C227.339 533.349 214.898 536.791 213.006 537.613C208.082 539.799 217.349 538.968 216.904 539.318C214.544 541.262 209.243 542.628 208.161 543.774C207.951 543.993 207.891 544.206 208.029 544.416C208.132 544.372 208.236 544.327 208.342 544.282C224.205 537.566 269.14 521.339 229.247 539.537C241.464 537.482 239.501 541.966 223.153 548.464C209.71 553.707 217.702 549.318 210.508 550.349C210.421 550.36 210.331 550.372 210.24 550.386C209.248 550.368 191.469 556.732 191.094 558.248C190.802 555.676 184.227 556.281 186.994 552.233C187.375 551.62 194.727 548.604 191.378 547.829C189.704 547.422 185.112 547.026 185.17 545.576C184.039 547.076 182.855 548.742 181.762 550.301C171.038 555.741 169.15 555.809 162.534 557.522C163.148 557.992 169.863 557.598 161.416 561.345C160.991 561.536 160.081 560.796 155.772 562.764C147.115 566.824 145.221 567.754 149.808 561.129C137.519 570.519 131.601 572.902 122.462 579.052C119.796 580.844 116.837 582.973 113.341 585.722C116.514 586.314 119.562 584.961 124.265 581.533C127.676 579.05 132.092 575.262 138.388 570.509C139.589 570.841 140.447 571.399 141.673 571.73C125.382 581.102 127.468 579.578 124.893 582.398C124.088 583.3 122.843 584.658 120.455 586.936C118.043 589.311 103.062 599.032 109.499 597.875C111.029 597.621 120.103 591.176 119.632 592.721C119.559 593.039 108.711 601.169 107.559 601.605C94.1395 606.956 112.129 592.537 85.8735 610.643C84.0735 611.854 82.2436 613.338 80.4215 615.087C79.529 615.96 80.0116 617.083 78.5217 618.855C75.7912 622.235 74.7635 621.419 72.577 624.611C70.4152 627.824 68.833 633.107 64.2398 636.745C56.0124 643.557 67.5228 622.125 77.7513 614.679C74.7689 608.426 38.6115 662.67 28.8415 671.445C27.2539 673.245 26.5992 674.423 26.2918 674.933C24.1325 678.878 23.6823 680.942 23.3362 682.069C23.0455 683.182 23.1192 683.273 23.4288 682.651C24.1909 681.408 25.1619 677.443 29.6852 672.214C33.5209 668.173 37.5974 663.408 38.4109 663.138C39.1982 662.881 43.71 666.951 45.9526 657.728C46.5883 655.042 38.9261 662.446 42.2835 657.103C45.6034 651.732 45.4858 654.748 45.8627 654.464C47.1533 653.476 50.6021 647.635 51.3146 647.043C62.2322 638.059 66.2473 642.505 48.8599 652.228C45.7342 659.696 58.8703 646.899 54.1294 655.589C48.2935 666.239 40.4334 671.146 39.3818 672.183C36.9772 674.552 35.5742 675.968 34.7984 676.879C32.9725 679.216 34.4961 678.438 34.6786 678.986C35.0085 679.606 33.5843 680.987 30.3368 689.427C26.1744 701.245 32.9707 670.49 25.5628 698.3C21.0511 721.52 24.9876 709.242 27.7088 711.554C28.3614 712.078 26.6629 725.016 29.8146 707.628C29.1064 706.989 28.2284 705.864 27.7078 704.625C29.1139 700.474 34.723 694.56 35.486 692.642C38.5075 684.699 38.2307 683.304 40.3877 681.979C41.0908 681.496 41.9409 680.993 43.0252 680.419C37.7778 682.168 44.2408 677.464 45.6721 674.829C50.8622 665.052 41.6111 675.885 58.4343 658.254C55.5362 660.039 52.8259 661.55 49.9557 663.169C51.6908 660.857 53.3708 658.545 55.039 656.196C59.8895 654.428 68.4035 641.625 62.7178 654.638C73.0386 641.356 76.1626 635.746 76.5949 631.606C76.6733 630.812 78.002 628.77 79.7914 626.579C78.9803 626.581 77.0607 625.908 77.1703 625.407C78.2085 620.769 85.3769 618.898 84.7399 621.391C86.1719 620.113 87.3688 619.256 87.7965 618.963C90.4789 617.153 86.2909 622.009 88.58 620.718C88.8444 620.57 89.8941 619.712 91.1803 618.886C93.9612 617.096 97.4998 614.789 97.7841 614.983C100.553 616.92 85.2063 624.537 114.56 607.059C113.603 604.219 100.853 613.57 102.501 608.727C104.263 603.571 114.079 602.266 113.346 597.797C114.316 597.941 114.898 598.218 115.842 598.492C124.889 590.242 127.527 591.327 130.71 590.406C131.107 590.293 131.519 590.14 131.963 589.921C139.219 585.974 169.585 565.498 140.571 581.575C144.368 578.52 148.397 575.617 152.311 572.794C156.597 577.472 152.508 576.355 172.946 565.946C177.504 563.744 180.131 565.412 183.164 560.386C183.883 563.409 196.554 555.569 198.043 555.478C206.924 554.233 178.768 570.365 172.698 568.005C168.891 572.564 167.507 570.07 162.351 573.579C154.973 578.752 154.282 579.822 144.268 584.212C137.147 592.206 179.34 563.02 155.302 583.01C151.591 586.15 145.351 591.177 136.492 598.368C126.023 606.741 112.321 616.928 96.7502 627.537C84.9027 636.636 69.185 668.658 49.2652 690.078C49.9313 689.339 49.4995 689.839 49.1701 690.688C48.7999 691.556 48.3538 692.81 47.9384 694.193C47.0963 696.985 46.3409 700.291 45.6582 703.698C44.9718 707.118 44.354 710.672 43.6803 714.396C43.3392 716.269 42.9904 718.174 42.5366 720.303C42.3043 721.381 42.0636 722.458 41.6974 723.821C41.2754 725.246 41.0662 726.439 39.627 729.522C32.2437 744.338 40.4705 765.153 43.7851 775.857C45.7347 781.622 47.7926 787.33 49.7854 792.978C57.2281 813.136 76.2415 824.207 97.2975 836.888C113.249 845.457 140.584 852.979 168.016 861.68C172.163 862.959 176.591 864.311 180.995 865.65C187.624 867.705 238.528 882.459 227.003 882.612C225.365 882.637 203.096 877.398 221.113 885.527C217.737 882.877 229.073 885.163 230.036 885.275C252.366 887.973 240.324 883.368 273.813 893.412ZM362.85 954.125C361.253 953.527 359.745 952.969 358.326 952.45C322.684 939.679 350.656 951.674 340.54 953.464C345.726 955.226 350.948 957.029 356.087 958.844C356.346 958.935 356.604 959.027 356.863 959.118C356.623 958.972 356.383 958.826 356.144 958.681C355.076 958.026 354.007 957.374 352.919 956.716C352.913 956.714 352.907 956.712 352.901 956.709C354.347 956.327 355.793 955.946 357.235 955.565C359.117 955.085 360.991 954.606 362.85 954.125ZM652.241 1459.01C652.733 1457.06 653.223 1455.15 653.847 1453.11C657.659 1448.06 661.482 1443.31 665.228 1438.63C665.171 1439.48 665.128 1440.32 665.07 1441.17C660.8 1446.87 656.437 1452.68 652.241 1459.01ZM82.9028 609.387C83.5007 609.108 84.0539 608.854 84.5692 608.617C91.0176 605.852 89.4559 603.486 98.9843 598.854C96.4592 597.558 93.847 596.38 91.2907 595.126C86.4753 598.627 84.4883 600.56 80.929 602.963C78.7519 604.413 76.3924 606.138 73.6614 608.417C75.2231 608.058 76.8392 607.724 78.3997 607.51C79.4767 606.493 80.6738 605.452 81.92 604.503C82.2461 604.239 82.5667 603.98 82.8786 603.73C83.7983 603.902 83.4482 604.707 82.6869 605.694C79.9295 608.68 75.4683 613.311 82.8765 609.412C82.8853 609.404 82.8941 609.396 82.9028 609.387ZM154.845 559.164C158.98 556.865 175.971 549.237 177.865 547.357C183.961 539.941 138.14 566.97 171.236 545.74C170.854 545.385 170.8 544.875 170.583 544.442C164.051 547.538 157.697 550.872 151.39 554.501C152.716 555.956 153.476 557.723 154.845 559.164ZM206.347 905.289C199.705 903.06 167.022 895.016 176.893 900.269C179.789 901.817 195.08 903.068 200.485 904.809C204.021 905.949 199.534 906.427 206.697 907.884C206.604 907.06 206.653 906.191 206.327 905.288C206.333 905.288 206.34 905.288 206.347 905.289ZM221.853 899.365C214.8 897.598 207.63 895.885 200.508 894.116C205.101 897.537 215.486 899.288 215.312 902.134C213.319 901.763 211.381 901.408 209.398 901.04C208.09 900.02 206.815 899.008 205.55 898C199.082 897.657 202.546 899.469 191.441 895.716C197.01 901.751 197.649 904.291 218.059 905.904C213.79 907.016 215.108 915.145 227.244 913.213C229.522 912.862 221.373 909.757 221.341 909.585C220.622 907.339 225.568 907.508 224.725 905.337C224.358 904.359 219.262 902.862 218.839 901.531C218.645 900.885 223.937 900.775 221.853 899.365ZM232.932 912.964C230.439 913.455 237.011 918.33 243.55 919.692C253.771 921.829 238.815 914.571 232.932 912.964ZM652.22 1459.05C652.227 1459.03 652.234 1459.02 652.241 1459.01C652.239 1459.02 652.238 1459.02 652.236 1459.03C652.231 1459.04 652.225 1459.04 652.22 1459.05ZM133.807 571.291C137.717 567.255 144.711 562.841 143.341 561.844C145.786 560.627 148.305 559.401 150.773 558.258C150.5 557.862 150.205 557.479 149.935 557.088C142.766 561.126 135.769 565.485 129.013 569.975C130.566 570.44 132.115 570.916 133.807 571.291ZM212.657 532.42C221.909 529.127 213.451 529.979 215.093 528.244C216.73 526.516 225.224 524.18 223.731 523.138C218.275 525.169 212.654 527.242 207.171 529.188C209.182 530.196 210.739 531.397 212.676 532.413C212.67 532.415 212.663 532.417 212.657 532.42ZM530.502 1032.04C524.374 1028.91 527.603 1028.63 514.389 1024.79C514.399 1024.79 514.408 1024.8 514.417 1024.8C525.651 1031.53 540.73 1038.75 553.844 1042.72C546.765 1037.9 540.142 1036.85 530.502 1032.04ZM61.5155 625.328C60.7879 628.491 69.8796 618.015 71.5134 614.732C73.6828 609.282 62.2067 620.507 61.5155 625.328ZM727.028 1202.78C727.091 1202.88 727.153 1202.97 727.214 1203.06C729.525 1206.22 730.861 1205.06 731.478 1202.16C732.474 1196.69 730.707 1183.48 723.558 1171.96C722.736 1170.31 727.132 1183.56 724.759 1180.08C724.579 1179.68 721.601 1172.8 720.157 1171.43C718.787 1170.07 718.561 1172.37 716.642 1170.04C713.466 1165.9 707.776 1155.45 704.025 1153.52C703.626 1153.25 706.996 1159.8 707.15 1160.23C710.819 1166.49 716.12 1171.52 716.674 1172.55C719.446 1177.75 717.339 1177.78 717.577 1179.25C717.995 1182.04 720.428 1186.27 720.471 1186.62C721.922 1195.29 715.599 1176.52 713.333 1174.71C708.214 1169.55 710.788 1175.26 700.267 1162.96C699.224 1161.75 687.137 1148.23 700.705 1166.7C693.028 1158.71 689.003 1156.73 688.908 1157.03C688.716 1157.43 691.994 1160.49 695.812 1164.88C703.913 1173.27 711.387 1189.93 712.697 1193.52C714.109 1196.62 714.212 1191.21 715.561 1192.95C718.346 1196.53 720.328 1203.17 722.261 1204.1C722.552 1204.25 722.84 1204.25 723.125 1204.07C723.239 1204 723.346 1203.93 723.448 1203.85C727.649 1200.75 721.925 1190.61 719.793 1183.25C721.148 1183.6 722.296 1183.49 723.892 1184.63C721.97 1182.79 726.928 1202.02 727.018 1202.78C727.022 1202.78 727.025 1202.78 727.028 1202.78ZM647.139 1109.33C640.426 1100.33 638.641 1103.21 632.672 1094.71C624.177 1090.53 636.997 1102.79 638.33 1104.39C644.465 1111.58 642.047 1113.68 649.373 1119.83C648.483 1116.16 647.973 1112.89 647.139 1109.33ZM711.35 1178.7C706.802 1173.33 712.258 1184.23 711.996 1184.91C711.715 1190.58 695.196 1159.23 711.35 1178.7ZM166.395 886.448C162.774 885.226 164.606 887.453 161.271 886.925C160.998 886.882 160.678 886.811 160.322 886.719C156.234 885.662 147.291 881.753 147.305 882.709C147.259 883.746 166.717 892.476 146.277 886.717C146.787 887.461 146.435 887.787 146.613 888.371C150.667 889.647 154.582 890.874 158.656 892.141C160.208 892.623 161.789 893.111 163.395 893.605C162.032 892.328 160.687 891.031 159.39 889.755C158.1 888.526 156.857 887.318 155.678 886.163C158.007 885.977 159.383 886.892 160.077 887.518C160.394 887.814 160.562 888.045 160.615 888.061C160.615 888.06 160.616 888.058 160.616 888.056C166.514 889.732 174.498 889.166 166.395 886.448ZM447.307 987.013C450.012 983.865 440.09 984.145 436.57 983.113C433.033 982.048 429.072 978.688 430.095 981.018C435.009 984.456 447.003 987.343 447.309 987.008C447.309 987.01 447.308 987.012 447.307 987.013ZM603.626 1067.11C597.017 1062.07 596.52 1062.86 591.291 1057.14C590.701 1056.48 589.993 1055.71 589.165 1054.85C588.859 1055.84 588.513 1056.84 588.178 1057.81C588.69 1058.25 589.15 1058.64 589.576 1058.98C594.867 1063.39 596.643 1061.98 602.924 1069.3C604.045 1070.61 599.832 1069.71 605.976 1074.52C605.169 1072.11 604.385 1069.55 603.626 1067.11ZM566.121 1044.59C575.356 1048.78 586.502 1045.67 567.49 1040.34C564.634 1039.63 558.93 1041.5 566.121 1044.59ZM261.766 914.684C244.276 909.188 263.858 916.387 268.071 918.926C226.941 907.539 272.798 919.98 275.676 925.07C280.985 925.501 291.07 925.888 280.92 922.039C276.681 920.439 277.912 922.06 277.654 921.975C269.78 919.265 271.308 917.696 261.766 914.684ZM660.555 1123.11C660.051 1122.64 659.765 1124.33 658.125 1122.94C656.475 1121.52 653.8 1117.33 652.851 1117.55C651.979 1117.76 657.553 1124.52 660.076 1126.76C660.255 1126.92 660.424 1127.06 660.579 1127.18C662.903 1128.95 664.601 1127.97 662.191 1124.89C661.813 1124.38 661.255 1123.76 660.555 1123.11ZM613.254 1071.37C605.944 1065.78 613.379 1079.67 614.823 1081.03C627.602 1092.91 611.83 1072.15 613.254 1071.37ZM304.969 919.128C283.079 914.952 297.274 923.926 309.65 930.6C311.556 930.644 313.503 930.703 315.377 930.746C306.476 931.331 291.694 929.948 323.32 937.106C306.712 930.958 321.091 934.665 321.248 934.526C324.955 929.43 299.07 924.118 304.988 919.133C304.982 919.131 304.975 919.13 304.969 919.128ZM682.303 1144.81C690.291 1150.29 706.565 1166.95 701.167 1157.07C695.293 1152.41 688.956 1148.61 682.303 1144.81ZM22.932 746.71C24.2096 739.412 24.8647 733.179 28.2483 725.361C23.3576 731.685 24.8832 726.968 25.5589 724.178C26.5534 719.993 22.5136 729.392 22.5994 729.472C21.6362 729.085 21.6227 727.248 21.2488 727.336C20.9709 727.439 19.6912 729.4 18.5675 737.161C18.3537 733.231 18.5754 729.244 19.3409 725.208C15.3266 736.975 14.5414 740 12.9985 748.173C16.8519 740.19 14.1056 750.761 17.8656 759.24C19.6191 763.345 22.0265 750.236 22.931 746.682C22.9313 746.691 22.9317 746.7 22.932 746.71ZM283.347 911.587C280.956 911.607 278.682 911.931 276.333 912.076C274.01 911.45 271.698 910.82 269.372 910.197C269.272 909.502 269.228 908.792 269.073 908.106C266.098 907.012 267.023 908.218 266.099 908.026C266.1 908.023 266.101 908.019 266.102 908.016C252.859 905.248 247.611 903.549 238.049 898.648C237.493 900.518 236.937 902.387 236.381 904.257C238.7 904.753 241.046 905.262 243.382 905.77C244.884 905.124 246.396 904.481 247.905 903.838C250.38 905.181 252.809 906.507 255.278 907.852C257.505 908.127 260.133 908.503 262.069 908.703C270.99 917.085 248.213 906.359 247.347 908.474C246.795 909.816 270.812 916.974 274.55 917.08C275.089 917.091 271.089 911.625 279.246 916.326C280.522 917.067 278.427 925.601 289.963 921.717C291.608 921.17 288.519 914.499 283.347 911.587ZM196.883 882.783C208.768 892.201 160.674 871.615 180.825 882.481C173.968 883.117 175.136 883.435 180.622 887.473C181.101 887.831 176.639 887.233 176.982 887.43C182.393 890.377 189.561 891.81 188.94 894.023C190.526 894.367 192.081 894.716 193.647 895.053C187.746 891.041 198.539 892.731 203.044 892.159C205.104 891.906 200.984 890.419 202.723 890.179C203.365 890.094 209.078 892.336 209.53 891.679C210.519 890.183 207.481 886.868 201.632 883.815C201.632 883.813 201.633 883.812 201.633 883.81C200.024 883.45 198.465 883.13 196.883 882.783ZM479.459 988.929C480.16 992.829 488.235 998.024 471.17 990.839C471.712 991.805 472.269 992.774 472.789 993.733C475.576 995.117 478.243 996.462 481.05 997.912C486.949 996.235 492.36 999.179 495.714 1001.68C499.594 1004.55 500.835 1006.73 497.363 1000.85C497.245 1000.65 496.957 1000.4 496.593 1000.13C494.791 998.8 491.01 997.002 497.133 998.614C497.125 998.608 497.117 998.602 497.11 998.595C487.874 994.087 486.245 994.477 479.459 988.929ZM416.501 961.999C392.37 959.001 444.908 978.008 437.008 972.904C436.316 972.328 413.655 964.167 416.501 961.999ZM590.091 1037.86C580.337 1031.88 578.1 1035.19 578.5 1036.7C578.899 1038.27 586.027 1040.75 586.734 1041.5C589.058 1043.72 583.187 1040.62 586.151 1043.5C586.733 1044.05 592.188 1048.09 595.933 1052.16C598.609 1054.99 600.89 1057.37 601.186 1057.56C605.148 1060.11 602.185 1053.35 603.379 1054.02C607.298 1056.18 610.591 1061.36 612.552 1061.09C616.795 1060.55 606.4 1055.52 604.994 1054.29C601.247 1050.97 602.129 1049.82 600.38 1047.38C600.128 1047.05 599.826 1046.69 599.456 1046.3C596.161 1042.92 593.309 1041.69 590.05 1039.42C588.953 1038.67 590.575 1038.18 590.091 1037.86ZM554.685 1029.17C565.908 1030.85 542.129 1018.09 539.019 1017.45C529.701 1015.62 549.301 1028.39 554.685 1029.17ZM228.3 900.937C238.519 901.95 216.464 893.775 209.818 892.623C210.796 893.751 224.812 900.596 228.3 900.937ZM310.827 920.984C301.814 918.775 312.221 926.612 319.581 928.908C324.767 927.567 320.536 926.797 315.763 925.151C310.992 923.51 317.864 922.722 310.827 920.984ZM671.652 1120.18C671.45 1119.96 670.711 1119.27 669.689 1118.26C663.891 1112.4 648.34 1099.25 658.605 1110.97C659.075 1111.52 663.325 1115.77 667.471 1120.22C671.469 1124.55 676.141 1128.24 676.91 1128.63C680.057 1130.14 674.821 1123.8 671.652 1120.18ZM354.469 930.82C348.996 931.571 344.441 930.013 347.79 934.209C347.797 934.211 347.803 934.213 347.809 934.216C335.759 931.108 337.089 925.316 334.496 924.591C325.441 922.107 332.574 928.888 326.559 928.395C339.941 931.383 335.334 932.882 345.107 936.335C347.305 937.107 356.65 938.494 358.302 937.949C359.939 937.389 356.473 932.816 354.469 930.82ZM706.13 1149.81C698.741 1140.85 688.381 1137.69 699.33 1148.24C704.423 1153.55 710.37 1155.38 706.13 1149.81ZM175.455 563.815C173.539 563.629 171.548 563.505 169.518 563.427C172.873 561.299 176.266 559.242 179.714 557.255C177.063 558.931 174.394 560.672 171.784 562.444C178.531 559.287 182.391 559.541 175.472 563.806C175.466 563.809 175.46 563.812 175.455 563.815ZM427.102 481.054C430.624 481.465 436.64 477.105 435.75 477.022C429.126 476.467 422.248 480.485 427.102 481.054ZM216.752 887.567C204.884 883.595 211.689 890.935 218.944 893.448C214.702 891.173 223.503 889.826 216.752 887.567ZM336.468 502.217C335.265 502.151 334.095 502.079 332.767 502.066C336.641 501.402 337.438 501.589 336.468 502.217ZM671.648 1113.47C670.631 1111.65 660.901 1101.02 659.207 1100.04C655.685 1097.92 661.46 1107.76 666.563 1111.99C667.137 1112.45 672.672 1115.18 671.627 1113.45C671.634 1113.45 671.641 1113.46 671.648 1113.47ZM191.124 558.386C191.085 558.35 191.076 558.303 191.094 558.248C191.1 558.295 191.123 558.337 191.124 558.386ZM680.608 350.459C680.493 350.485 680.402 350.478 680.346 350.426C680.426 350.442 680.529 350.431 680.608 350.459ZM602.307 1039.7C600.853 1031.92 588.342 1027.4 595.55 1034.81C595.956 1035.17 601.254 1038.71 602.307 1039.7Z" fill="var(--stroke-0, white)"/>
</svg>
